<svg xmlns="http://www.w3.org/2000/svg" width="228" height="53" fill="none">
  <g clip-path="url(#a)">
    <path fill="#6897B8" d="M46.59 8.741a6.06 6.06 0 0 1-3.732 3.503l-.012.005c-.12.183-.275.34-.457.46-.295.543-1.256.888-1.81 1.074-.638.216-1.302.4-1.966.548l.023.008.093.03c.405.137.822.232 1.247.282l.039.002v.007c.158.018.313.025.469.03l.065-.002a6.05 6.05 0 0 0 6.163-6.24c-.029.084-.068.163-.1.246l-.022.052V8.74Z"/>
    <path fill="#B8DEEB" d="m36.637 21.774.03.009c.002-.123 0-.245.002-.368l-.029-.009c-.001.123 0 .245-.003.368ZM36.626 19.212l.03.005c-.003-.084-.008-.169-.01-.253l-.028.038.008.21ZM41.342 18.123l.007-.014a6.42 6.42 0 0 0-1.117-.717l.023.414c.325.179.636.384.924.619.054-.101.107-.202.163-.302ZM42.408 16.257l.004-.007a5.414 5.414 0 0 0-1.29-.664 7.545 7.545 0 0 0-1.048-.295c.012.121.021.243.032.364.304.07.603.159.895.268.437.154.85.367 1.23.632.06-.099.117-.199.177-.298Z"/>
    <path fill="#FFF5D1" d="M3.774 22.369v.01c.13.089.266.174.398.262-.136-.09-.27-.18-.398-.272ZM4.793 23.039a50.27 50.27 0 0 1-.444-.283c.146.096.288.194.437.289l.003.03.006.005-.002-.041ZM36.555 23.803h.002c.039-.676.067-1.353.08-2.03.002-.122.002-.244.003-.367.003-.275.008-.55.007-.825a53.96 53.96 0 0 1-.092 3.222Z"/>
    <path fill="#18355E" d="M34.95 8.506h-.003c-.167.28-.322.508-.475.7h.001c.154-.192.309-.42.477-.7Z"/>
    <path fill="#fff" d="M35.924 29.514c-.013.082-.026.169-.043.252h-.011a43.743 43.743 0 0 1-1.992 7.655c-.12.319-.246.625-.376.924-2.74 3.04-6.608 4.581-10.595 4.73H21.89a18.028 18.028 0 0 1-1.717-.124l-.015.02c.589.071 1.18.118 1.775.131.344.014.683.014 1.017 0 3.98-.148 7.814-1.676 10.552-4.685l.04-.082c.13-.3.256-.592.375-.924a43.73 43.73 0 0 0 1.994-7.662c.017-.083.043-.17.043-.252.313-1.89.52-3.793.63-5.699l-.027.005h-.002a53.924 53.924 0 0 1-.63 5.71Z"/>
    <path fill="#18355E" d="M5.235 37.866a45.04 45.04 0 0 1-2.104-8.14 45.043 45.043 0 0 0 2.104 8.15c2.604 7.06 8.083 9.3 14.37 12.343.174.083.362.123.55.123a1.294 1.294 0 0 1-.55-.133c-6.287-3.04-11.766-5.283-14.37-12.343ZM36.01 6.347c-.073-.034-.19.043-.268.184l.004-.001c-.01.019-.023.035-.033.056-.074.167-.065.33.024.37.087.038.22-.065.296-.232.057-.127.064-.254.026-.323a.108.108 0 0 0-.05-.054Z"/>
    <path fill="#18355E" d="M19.637 52.885c.331.153.713.153 1.044 0 9.68-4.464 15.013-6.923 17.954-18.352a57.205 57.205 0 0 0 1.636-11.331h.001c.022-.503.04-1.006.048-1.509.232-.586.49-1.163.772-1.727.623-1.28 1.331-2.52 2.063-3.74.375-.628.758-1.25 1.142-1.87.07-.044.138-.092.206-.139l.001-.002A6.756 6.756 0 0 0 40.527 1.91a6.72 6.72 0 0 0-3.837 1.2 6.75 6.75 0 0 0-2.106 2.361c-.731.104-1.457.156-2.171.156h-.002C25.36 5.626 21.185.521 21.145.472a1.246 1.246 0 0 0-1.953 0c-.04.052-4.165 5.16-11.259 5.16-1.449 0-2.945-.216-4.446-.641a1.246 1.246 0 0 0-1.542.876A57.428 57.428 0 0 0 .006 19.881a57.478 57.478 0 0 0 1.52 14.032c2.3 9.486 5.755 12.853 12.92 16.524l.022-.029c1.544.79 3.256 1.594 5.169 2.477ZM3.148 6.19C13.856 9.22 20.17 1.246 20.17 1.246s5.139 6.476 14.004 5.529a6.735 6.735 0 0 0-.27 1.852 17.744 17.744 0 0 1-10.09-2.161 19.735 19.735 0 0 1-3.225-2.236.664.664 0 0 0-.84 0c-.998.85-2.078 1.6-3.224 2.236A17.747 17.747 0 0 1 5.058 8.459a.666.666 0 0 0-.734.502 54.595 54.595 0 0 0-.551 20.675 44.075 44.075 0 0 0 2.073 8.03c2.525 6.859 7.927 9.028 14.04 11.985.18.084.39.078.566-.017 6.11-2.957 11.522-5.123 14.04-11.967a44.623 44.623 0 0 0 2.073-8.03c.81-4.89.943-9.856.412-14.764.214-.042.428-.084.642-.13l.08-.015c.186.09.378.17.571.242.04.016.08.032.121.046.14.05.281.089.424.129a56.022 56.022 0 0 1-1.39 19.086C34.689 44.873 30.167 47.14 20.16 51.754 9.77 46.96 5.424 44.661 2.736 33.58a56.15 56.15 0 0 1 .412-27.39ZM40.654 2.6l.111.002c.064 0 .13-.001.195.006l.094.01.291.034.297.034.097.012c.065.01.129.029.192.036l.114.026.178.044.117.032.163.05.118.04.155.054.116.044.15.063.114.048.149.07.107.055c.05.024.1.051.149.077l.101.056.153.092.016.01c.02.011.04.023.056.034l.017.01.188.127.045.028c.076.053.15.11.222.165l.081.064c.045.037.092.073.136.111l.09.08.117.105.093.09.106.105.09.095c.035.035.067.071.1.108l.087.1.093.111.083.105.088.115.08.108.08.119.074.11.077.127.068.112c.026.045.043.084.075.139a5.123 5.123 0 0 1 .176.346l.056.123.056.133.051.13.05.13.044.138c.015.042.027.081.042.129.014.047.029.097.04.14l.035.132.035.142.028.135c.01.046.018.099.027.144.01.045.016.088.023.136l.022.145.015.14c.006.048.01.1.014.146l.01.142c.003.05.014.098.009.145a.042.042 0 0 0-.002.015c-.028.08-.066.156-.096.235v.005c.032-.083.071-.162.1-.247a6.05 6.05 0 0 1-5.57 6.223c-.188.018-.38.025-.572.025-.028 0-.057-.004-.086-.005a6.143 6.143 0 0 1-.468-.03l-.001-.007c-.013-.001-.026 0-.04-.002a6.142 6.142 0 0 1-1.245-.282v.001l-.095-.03.001-.001-.023-.008a19.472 19.472 0 0 0 1.966-.548c.554-.186 1.515-.531 1.81-1.074a1.59 1.59 0 0 0 .543-.613c.005-.008.008-.017.012-.026a1.59 1.59 0 0 0 .09-.241 1.552 1.552 0 0 0 .059-.58c-.006-.063-.021-.123-.034-.183-.009-.043-.014-.086-.027-.129a1.566 1.566 0 0 0-.096-.24c-.006-.011-.01-.023-.015-.034a1.568 1.568 0 0 0-1.209-.833c-.034-.004-.068 0-.102 0-.08-.005-.16-.01-.238-.002h-.046c-.094.012-.188.03-.281.06 1.206-.685 2.146-2.12 1.422-3.148-.024-.034-.054-.068-.082-.102-.03-.039-.058-.078-.092-.117-.99-1.119-3.385-2.195-5.296-2.358l-.039-.002h-.113l-.252.01.045-.038.1-.088.083-.09.101-.083.117-.087.102-.074.129-.088.095-.064c.06-.039.12-.076.181-.111l.098-.058c.07-.034.133-.068.195-.1l.095-.05.15-.073.108-.048c.046-.022.094-.042.144-.062l.112-.046.149-.056.109-.038.161-.051.103-.03c.059-.022.125-.038.189-.054l.075-.019c.081-.022.179-.042.269-.059l.074-.011a3.53 3.53 0 0 1 .204-.034l.104-.013.185-.02.113-.008.173-.012.114-.003.184-.003ZM35.29 6.574c.167-.389.475-.63.677-.539.12.054.176.216.166.418l.008-.001a1.275 1.275 0 0 1-.114.452c-.114.253-.283.44-.445.517a.33.33 0 0 1-.162.038.238.238 0 0 1-.085-.02c-.202-.087-.223-.446-.065-.815h.002c.006-.017.01-.033.018-.05Zm5.377 2.568c-.025-.001-.05.002-.075-.001h-.003l-.004-.001c-.024-.003-.046-.01-.07-.015-.04-.008-.082-.014-.121-.027-.013-.004-.024-.01-.037-.015a.971.971 0 0 1-.14-.062l-.014-.01a.976.976 0 0 1-.141-.099l-.005-.005a.985.985 0 0 1-.125-.13l-.004-.005a.982.982 0 0 1-.098-.152l-.007-.017a.972.972 0 0 1-.063-.157c-.004-.013-.005-.027-.008-.04a.96.96 0 0 1-.028-.147c-.002-.025 0-.051 0-.077 0-.037-.003-.075 0-.113l.002-.01a.977.977 0 0 1 1.941.222.973.973 0 0 1-.986.86l-.003.001h-.011Zm-10.612 5.273a8.253 8.253 0 0 1-.563-.042c-1.637-.185-1.159-.814-.082-1.584.55-.394 1.257-.825 1.919-1.252 1.284-.839 2.341-1.585 2.892-2.154.127-.131.226-.253.295-.364.16-.26.346-.504.556-.727 0 .002-.002.004-.003.005l.007-.008.002-.01c0-.003.003-.004.004-.006v-.002a.596.596 0 0 1 .093-.113.593.593 0 0 1 .198-.139l.01-.006-.014.004c.472-.349.917-.372 1.27-.082l.023.016c.589.504.906 1.036 1.286 1.48l.001.002c.469.546 1.037.955 2.33 1.003a1.575 1.575 0 0 0-.296 1.262c-.143.09-.27.163-.34.21-.221.153-.63.354-1.16.575v.003c-.323.134-.692.275-1.094.419a31.079 31.079 0 0 1-1.254.415v.002c-2.025.628-4.447 1.17-6.08 1.093Zm11.607-4.214a1.195 1.195 0 0 1-.14 2.384h-.003c-.043 0-.085.003-.128-.002h-.002a1.199 1.199 0 0 1 .273-2.382ZM5.02 32.324c-.044-.192-.087-.382-.127-.574 0-.04 0-.084-.026-.123l-.06-.303c-.027-.13-.057-.259-.08-.389l-.04-.219c-.03-.15-.056-.299-.083-.445-.026-.146-.036-.196-.056-.296-.027-.15-.05-.299-.077-.448-.08-.472-.15-.947-.216-1.422-.02-.15-.036-.3-.056-.449-.042-.328-.082-.66-.12-.996-.02-.173-.036-.333-.056-.519-.03-.315-.06-.631-.087-.947l-.04-.511c-.017-.22-.031-.451-.045-.683l-.02-.357c0-.107 0-.21-.02-.332v.016c0-.316-.024-.632-.035-.948v-.01l-.002-.039v-.182c0-.439-.017-.88-.02-1.33v-.202c0-.508 0-1.02.023-1.528v-.376c0-.385.033-.77.053-1.156l.03-.472c.027-.385.057-.774.093-1.16l.03-.368c.05-.505.103-.997.166-1.508 0-.094.023-.183.037-.276a47.195 47.195 0 0 1 .249-1.701c.056-.36.12-.718.186-1.077l.08-.448c.095-.489.193-.983.301-1.459a18.35 18.35 0 0 0 11.852-2.073l.013-.008.017-.009a21.272 21.272 0 0 0 3.297-2.289l.025.02a21.097 21.097 0 0 0 3.293 2.286 18.354 18.354 0 0 0 9.765 2.288c-.247.205-.504.402-.764.588-.509.366-1.032.712-1.556 1.05l-.413.265c-.612.39-1.237.774-1.811 1.211-.402.307-.875.718-.98 1.235-.028.136-.027.275.002.41.198.939 1.513 1.028 2.278 1.064.309.014.618.012.927-.005l.101.03c1.598.435 3.151.208 4.751-.062.181-.03.361-.064.542-.096l.027-.005c.107.997.19 1.997.24 2.998l-.027.036c.017.327.028.654.038.98l.028-.037c.002.084.007.169.01.253-.01 0-.02-.003-.03-.004.013.456.02.912.021 1.368.001.275-.004.55-.007.825l.03.01c-.002.122-.001.244-.004.367l-.03-.009a53.873 53.873 0 0 1-.079 2.029l.027-.005a53.936 53.936 0 0 1-.63 5.699c0 .083-.026.17-.043.252a43.738 43.738 0 0 1-1.994 7.662c-.12.332-.245.625-.375.924l-.04.082-.027.054c-.033.083-.07.163-.106.239l-.143.3-.113.225-.156.296-.113.206-.176.302c-.036.06-.07.123-.11.183-.07.116-.142.232-.219.332l-.073.116c-.1.15-.203.297-.309.439-.03.046-.063.086-.096.13-.073.103-.15.202-.223.299l-.13.159c-.07.083-.136.17-.205.25l-.143.165-.203.23c-.05.056-.103.11-.153.162-.05.053-.136.147-.206.216l-.16.16-.212.21-.16.149-.225.206-.16.14-.249.212-.146.123-.332.252-.087.067-.412.312-.13.09c-.099.07-.195.143-.298.209l-.166.116-.27.18-.186.116-.262.17-.19.119-.269.16-.192.116-.276.16-.193.109-.289.163-.186.103-.332.17-.17.089-.421.223-.067.033c-.166.086-.332.172-.502.256l-.146.073-.365.182-.183.093-.332.163-.203.1-.332.16-.203.1-.362.172-.17.08-.558.269-.106.05-.93.448-.485-.193-.103-.05-.123-.073-.485-.232-.29-.14-1.395-.664-.046-.023-.07-.034c-.303-.146-.598-.295-.89-.441h-.024l-.864-.45-.06-.029h-.023c-.262-.14-.521-.279-.777-.422l-.077-.043-.14-.08-.109-.06-.083-.046-.156-.093-.292-.173-.08-.047-.11-.066-.382-.24-.18-.112-.421-.28-.113-.076c-.176-.12-.349-.242-.518-.365l-.127-.097-.369-.315-.073-.057-.053-.043-.043-.036c-.27-.216-.535-.442-.79-.665l-.05-.043-.047-.043-.03-.027a16.205 16.205 0 0 1-.635-.631l-.09-.096c-.199-.213-.391-.432-.58-.665l-.054-.06-.056-.073c-.13-.16-.256-.332-.382-.492l-.044-.06a12.574 12.574 0 0 1-.395-.578l-.106-.162c-.1-.156-.196-.333-.293-.482l-.096-.163c-.116-.212-.236-.428-.332-.664v-.024l-.037-.08c-.1-.202-.2-.411-.292-.624l-.087-.2c-.106-.252-.209-.504-.305-.77-.133-.359-.26-.724-.382-1.09a14.008 14.008 0 0 0-.113-.349c-.08-.256-.16-.508-.236-.764l-.12-.402-.21-.754-.099-.379c-.08-.302-.153-.605-.226-.91 0-.06-.03-.12-.043-.183v-.043c-.02-.08-.036-.163-.056-.243Zm31.88-18.165a46.444 46.444 0 0 1-1.225.223c-.905.179-1.825.278-2.747.297l.007-.001h-.015c.425-.079.837-.17 1.232-.263.102-.025.209-.048.309-.074 1.344-.33 2.665-.75 3.954-1.256.44-.166.87-.362 1.285-.584.168-.089.323-.201.46-.334.233.412.64.697 1.108.776-.61.293-1.562.58-2.608.834a37.604 37.604 0 0 1-1.76.382Zm3.357 3.665-.001-.018-.023-.414c.395.201.77.439 1.117.717l-.007.014c-.058.105-.114.21-.17.316a6.153 6.153 0 0 0-.916-.615Zm.745-1.9a7.125 7.125 0 0 0-.895-.269c-.01-.121-.02-.243-.032-.364.356.075.707.168 1.049.295a5.41 5.41 0 0 1 1.29.664l-.005.007.003.002-.181.305a5.076 5.076 0 0 0-1.229-.64Z"/>
    <path fill="#B8DEEB" d="M35.335 7.44a.238.238 0 0 0 .085.02.33.33 0 0 0 .162-.04c.162-.076.33-.263.444-.516.071-.157.108-.314.115-.452l-.008.001c.01-.202-.046-.364-.166-.418-.202-.091-.51.15-.677.54l-.019.049h-.002c-.157.369-.136.728.066.816Zm.698-.716c-.076.167-.21.27-.296.231-.089-.04-.098-.202-.024-.369.01-.021.022-.037.033-.056h-.004c.078-.14.195-.217.268-.183.02.01.037.03.049.054.038.069.031.196-.026.323ZM20.16 51.754c10.006-4.615 14.528-6.88 17.266-17.523a56.025 56.025 0 0 0 1.389-19.086c-.143-.04-.285-.08-.424-.129-.04-.014-.08-.03-.12-.046a6.696 6.696 0 0 1-.573-.242l-.08.016a55.208 55.208 0 0 1-.415 14.982 45.05 45.05 0 0 1-2.103 8.15c-2.601 7.06-8.083 9.3-14.366 12.343a1.294 1.294 0 0 1-.55.123l-.015.002-.014-.002c-.188 0-.377-.04-.55-.123-6.287-3.043-11.766-5.283-14.37-12.343a45.044 45.044 0 0 1-2.104-8.15A55.275 55.275 0 0 1 3.69 8.795a1.298 1.298 0 0 1 1.468-.997 17.139 17.139 0 0 0 11.87-2.405 19.203 19.203 0 0 0 2.3-1.678 1.28 1.28 0 0 1 1.063-.292c.221.039.435.136.615.292a19.156 19.156 0 0 0 3.12 2.16 17.14 17.14 0 0 0 9.815 2.075c.043-.4.12-.793.232-1.175-8.865.947-14.004-5.529-14.004-5.529S13.856 9.22 3.15 6.19a56.15 56.15 0 0 0-.413 27.39C5.424 44.66 9.77 46.96 20.16 51.754ZM37.949 9.434V9.43c-.381-.444-.698-.976-1.287-1.48l-.023-.016.02.014c.59.505.907 1.04 1.29 1.485Z"/>
    <path fill="#B8DEEB" d="M37.389 12.903v.002c.402-.143.771-.285 1.094-.42v-.002c-.323.135-.692.276-1.094.42ZM38.636 14.339h-.002c.032.012.064.02.096.032v-.002l-.094-.03Z"/>
    <path fill="#6897B8" d="M24.126 5.874a19.2 19.2 0 0 1-3.12-2.16 1.281 1.281 0 0 0-1.28-.233 1.28 1.28 0 0 0-.398.234 19.205 19.205 0 0 1-3.12 2.16 17.154 17.154 0 0 1-11.05 1.923 1.298 1.298 0 0 0-1.468.997 55.275 55.275 0 0 0-.559 20.931 45.036 45.036 0 0 0 2.104 8.14c2.604 7.06 8.083 9.303 14.37 12.343.173.086.36.13.55.133l.014.002.014-.002c.189 0 .377-.04.55-.123C27.018 47.176 32.5 44.936 35.1 37.876a45.04 45.04 0 0 0 2.103-8.15 55.204 55.204 0 0 0 .416-14.982c-.214.045-.428.087-.642.129a54.53 54.53 0 0 1-.412 14.763 44.62 44.62 0 0 1-2.073 8.03c-2.518 6.845-7.93 9.011-14.04 11.968a.628.628 0 0 1-.565.017C13.773 46.694 8.37 44.524 5.846 37.667a44.074 44.074 0 0 1-2.073-8.03A54.595 54.595 0 0 1 4.324 8.96a.662.662 0 0 1 .734-.502c3.938.643 7.977-.06 11.466-1.993a19.708 19.708 0 0 0 3.223-2.236c.245-.2.596-.2.84 0 1 .85 2.08 1.6 3.227 2.236a17.744 17.744 0 0 0 10.089 2.161c0-.228.015-.453.038-.677a17.14 17.14 0 0 1-9.815-2.076ZM36.76 13.12v.001c.217-.072.427-.144.63-.216l-.001-.002c-.202.072-.412.144-.63.216ZM35.87 8.054a.6.6 0 0 1 .255.81.599.599 0 0 0-.743-.851l-.01.006a.593.593 0 0 0-.197.14.599.599 0 0 1 .695-.105ZM34.95 8.506c.043-.072.086-.145.13-.224l.002-.009-.004.005-.002.011-.007.008c-.041.074-.082.142-.122.21l.003-.001Z"/>
    <path fill="#F9C27A" d="M5.075 32.61c.013.063.043.123.043.183.073.305.146.608.226.91l.1.379.21.754.119.402c.076.256.156.508.236.764.04.116.076.233.113.35.123.365.249.73.382 1.089.096.266.2.518.305.77l.087.2c.093.213.193.422.292.625l.037.08v.023c.096.236.216.452.332.664l.096.163c.097.15.193.326.293.482l.106.163c.13.199.26.392.395.578l.044.06c.126.159.252.332.382.491l.056.073.053.06c.19.233.382.452.582.665l.09.096c.205.216.418.428.634.631l.03.027.046.043.05.043c.256.223.522.449.791.665l.043.036.053.043.073.057.37.315.126.097c.169.123.342.246.518.365l.113.077.422.279.18.113.381.239.11.066.08.047.292.173.156.093.083.046.11.06.14.08.076.043c.256.143.515.282.777.422h.024l.06.03.863.449h.024c.292.146.587.295.89.441l.07.034.046.023 1.396.664.289.14.485.232.123.074.103.05.485.192.93-.448.106-.05.558-.27.17-.08.362-.172.203-.1.332-.159.203-.1.332-.163.183-.093.365-.182.146-.073c.17-.084.336-.17.502-.256l.067-.034.421-.222.17-.09.332-.17.186-.102.29-.163.192-.11.276-.16.192-.115.27-.16.189-.12.262-.169.186-.116.27-.18.166-.116c.103-.066.2-.14.299-.21l.13-.09.411-.311.087-.067.332-.252.146-.123.25-.213.159-.14.226-.205.16-.15.212-.21.16-.159c.069-.07.155-.163.205-.216.05-.053.103-.106.153-.162l.203-.23.143-.166c.07-.08.136-.166.206-.249l.13-.16c.072-.096.149-.196.222-.298.033-.044.066-.084.096-.13.106-.142.21-.288.31-.439l.072-.116c.077-.1.15-.216.22-.332.04-.06.073-.123.11-.183l.175-.302.113-.206.156-.296.113-.226.143-.299c.037-.076.073-.156.106-.24l.027-.053c-2.738 3.009-6.572 4.537-10.552 4.685-.334.014-.673.014-1.017 0a18.016 18.016 0 0 1-1.775-.132 18.048 18.048 0 0 1-3.873-.91h-.046a19.26 19.26 0 0 1-1.097-.436l-.046-.02-.123-.057a17.035 17.035 0 0 1-2.915-1.648 17.039 17.039 0 0 1-3.963-3.877 15.979 15.979 0 0 1-.784-1.173 17.104 17.104 0 0 1-1.409-2.923c-.033-.1-.07-.196-.103-.293a21.213 21.213 0 0 1-.275-.794c-.103-.316-.206-.615-.303-.947a47.072 47.072 0 0 1-1.369-5.877L3.85 24c.014.232.028.463.046.683l.04.511c.026.316.056.632.086.947.02.186.036.346.056.518.038.337.078.67.12.997.02.15.037.3.056.449.067.475.137.95.216 1.422.027.15.05.299.077.448.02.1.03.15.056.296.027.146.053.296.083.445l.04.22c.023.13.053.259.08.388l.06.302c.026.04.026.084.026.123.04.193.083.383.127.575.02.08.036.163.056.243v.043Z"/>
    <path fill="#FFE49F" d="M5.221 29.892c.097.332.2.631.303.947.103.316.179.532.275.794.034.097.07.193.103.293.069.186.142.372.22.558.334.818.732 1.609 1.19 2.365.245.406.507.798.783 1.173a17.037 17.037 0 0 0 3.963 3.877 17.028 17.028 0 0 0 2.915 1.648l.123.057.046.02c.362.156.728.302 1.097.435h.046c1.255.447 2.554.75 3.873.911l.015-.019c.57.068 1.142.112 1.717.125h1.017c3.987-.15 7.854-1.691 10.595-4.731.13-.3.256-.605.375-.924a43.732 43.732 0 0 0 1.993-7.654c-.492.03-.989.048-1.485.066a66.199 66.199 0 0 1-2.348.046c-.136 0-.27-.002-.405-.003a66.6 66.6 0 0 1-2.247-.054l-.445-.016c.377.645.581 1.423.6 2.34-.023 1.282-.512 2.293-1.465 3.034-.931.741-2.008 1.195-3.232 1.361v1.026h2.611c.414.012.767-.037 1.06-.146.27-.104.41-.39.422-.862h.431v3.266h-5.136v-3.904a2.47 2.47 0 0 0 1-.698 3.29 3.29 0 0 0 .568-1.008c.144-.39.239-.79.285-1.198.023-.414.034-.804.034-1.172 0-.823-.168-1.582-.486-2.284a61.416 61.416 0 0 1-1.95-.218 59.968 59.968 0 0 1-2.541-.392 4.987 4.987 0 0 0-.848 2.894 7.595 7.595 0 0 0 .353 2.37c.144.373.33.71.56 1.008.253.305.578.537.974.698v3.904h-5.136v-3.266h.422c0 .471.15.758.448.862.138.075.296.117.474.129.178.012.365.017.56.017h2.611v-1.026a6.454 6.454 0 0 1-3.188-1.361c-.977-.741-1.477-1.752-1.5-3.033.034-1.67.672-2.885 1.905-3.654a55.797 55.797 0 0 1-1.795-.423 52.54 52.54 0 0 1-1.419-.377 50.37 50.37 0 0 1-1.32-.396 45.433 45.433 0 0 1-4.431-1.632l-.076-.031v-.003c-.41-.178-.814-.36-1.21-.548l-.001.002-2.112 3.457-.307.503-.004-.016-.714-2.64.001.035-.183-.678a14.53 14.53 0 0 1-.416-2.67l-.003-.031c-.15-.095-.29-.193-.438-.289-.06-.038-.117-.077-.176-.115-.132-.088-.268-.173-.397-.262.01.316.034.632.034.948v-.017c.02.123.02.226.02.333L3.85 24l.002.015a47.07 47.07 0 0 0 1.37 5.877Z"/>
    <path fill="#FFF6D1" d="M25.463 29.2c-.46-.81-1.212-1.227-2.258-1.25-.921.02-1.608.355-2.064 1.001l.094.016c.805.14 1.619.268 2.447.376.643.084 1.295.154 1.95.218-.055-.121-.104-.244-.169-.361Z"/>
    <path fill="#FFF6D1" d="m4.348 22.756.445.283.002.002c-.25-3.385.161-8.008.898-12.798a22.067 22.067 0 0 0 2.549.128 19.587 19.587 0 0 0 3.037-.262 18.86 18.86 0 0 0 2.614-.628c.4-.127.782-.263 1.146-.406a17.233 17.233 0 0 0 4.07-2.258c.176-.134.334-.259.472-.373.485-.4.73-.663.73-.663l-5.24 8.583c.088.168.165.345.227.535.143.412.248.866.315 1.362h.05l.745-3.116h3.647l-2.637 8.038c.176.445.42.85.732 1.21.269.396.614.594 1.034.594.337 0 .635-.139.896-.417.244-.243.4-.525.467-.845h.745a8.715 8.715 0 0 1-.518 2.473 2.41 2.41 0 0 1-.643.934c-.27.244-.614.374-1.035.391-.547-.017-1.001-.336-1.363-.959-.361-.622-.63-1.417-.807-2.385h-.05a7.632 7.632 0 0 1-1.704 2.335c-.724.656-1.586.992-2.587 1.01-1.472-.027-2.659-.445-3.572-1.241l-.488.8c.396.187.8.37 1.21.548v.003l.076.03a45.434 45.434 0 0 0 4.43 1.633c.436.136.875.27 1.321.396a56.124 56.124 0 0 0 3.214.8c.036-.022.067-.048.104-.07 1.27-.729 2.711-1.094 4.326-1.094 1.625 0 3.073.365 4.343 1.095.602.355 1.061.82 1.39 1.382l.446.016c.744.03 1.492.05 2.247.054l.405.003a65.666 65.666 0 0 0 2.348-.046c.496-.018.992-.037 1.485-.066l.011-.001c.017-.083.03-.17.043-.252a53.9 53.9 0 0 0 .631-5.711 53.877 53.877 0 0 0 .071-4.59L36.618 19c-.01-.327-.022-.653-.038-.98a53.908 53.908 0 0 0-.24-3.03c-.18.033-.36.067-.542.097-1.6.27-3.153.497-4.751.062l-.1-.03a9.189 9.189 0 0 1-.928.005c-.765-.036-2.08-.125-2.278-1.063a1.004 1.004 0 0 1-.003-.41c.106-.518.58-.929.981-1.236.574-.437 1.199-.822 1.81-1.21l.414-.266A35.986 35.986 0 0 0 32.5 9.89c.26-.186.517-.383.764-.588a18.354 18.354 0 0 1-9.765-2.288 21.096 21.096 0 0 1-3.293-2.286l-.025-.02a21.276 21.276 0 0 1-3.297 2.289l-.017.01-.013.007A18.35 18.35 0 0 1 5.001 9.087c-.108.476-.206.97-.301 1.458l-.08.449c-.067.359-.13.718-.186 1.076a47.1 47.1 0 0 0-.25 1.701c-.013.094-.036.183-.036.276a61.568 61.568 0 0 0-.166 1.509l-.03.369a45.43 45.43 0 0 0-.093 1.16l-.03.47c-.02.386-.053.772-.053 1.157v.375c-.023.509-.023 1.02-.023 1.529v.203c.003.448.02.89.02 1.329v.182l.001.039c.127.091.262.181.398.272.06.038.117.077.176.116Z"/>
    <path fill="#FFF6D1" d="M36.136 13.322v-.002c-2.027.629-4.451 1.172-6.085 1.095a8.247 8.247 0 0 1 .004 0c1.633.078 4.055-.465 6.08-1.093ZM34.151 14.415a26.46 26.46 0 0 1-1.232.264l.015-.001c.42-.08.825-.168 1.217-.263ZM32.47 11.77l.342-.19c.212-.118.406-.222.584-.318-.177.095-.37.198-.58.314l-.346.193ZM30.32 12.326a8.229 8.229 0 0 0-1.093 1.038 10.4 10.4 0 0 0 .004-.003c.328-.381.697-.72 1.088-1.035ZM34.473 9.206h-.001a3.927 3.927 0 0 1 .001 0ZM31.325 11.54c1.294-.84 2.348-1.588 2.896-2.157-.55.569-1.608 1.315-2.892 2.154-.662.428-1.369.858-1.92 1.252.55-.393 1.256-.823 1.916-1.249ZM11.222 23.088c.185 1.018.703 1.527 1.552 1.527.513 0 .926-.223 1.237-.67.31-.428.534-.945.669-1.551.227-1.312.332-2.355.315-3.13 0-.378-.008-.87-.025-1.476a8.865 8.865 0 0 0-.24-1.779 4.732 4.732 0 0 0-.21-.744l-2.219 3.634-.519.85-.146.24-.65 1.063c.049.833.127 1.515.236 2.036Z"/>
    <path fill="#fff" d="m11.636 19.989.146-.24.519-.85 2.22-3.634a3.674 3.674 0 0 0-.41-.808c-.31-.395-.731-.601-1.26-.618-.43.017-.775.189-1.036.517a3.16 3.16 0 0 0-.34.568 4.85 4.85 0 0 0-.253.72c-.21 1.101-.307 2.006-.29 2.712-.008 1.032.01 1.928.055 2.695l.649-1.062Z"/>
    <path fill="#fff" d="M8.345 23.58c-.959-1.237-1.438-2.742-1.438-4.517a6.7 6.7 0 0 1 1.577-4.316c.976-1.261 2.284-1.91 3.924-1.943 1.035.017 1.8.353 2.297 1.01.14.168.262.352.366.55l5.24-8.583s-.245.263-.73.663c-.138.114-.296.24-.473.373a17.234 17.234 0 0 1-4.069 2.258 18.415 18.415 0 0 1-3.76 1.034 19.586 19.586 0 0 1-3.037.262 21.191 21.191 0 0 1-2.549-.128c-.737 4.79-1.149 9.413-.898 12.798l-.002-.002.002.041.001.01a14.53 14.53 0 0 0 .409 2.656l.183.678-.001-.035.714 2.64.004.016.307-.503 2.112-3.457v-.002l.49-.8c-.241-.21-.467-.44-.669-.703Z"/>
    <path fill="#18355E" d="m20.482 28.838-.09-.018c-.53-.1-1.054-.204-1.571-.316l-.045-.01c-1.233.768-1.871 1.983-1.905 3.653.023 1.28.523 2.292 1.5 3.033a6.457 6.457 0 0 0 3.189 1.362v1.025h-2.612a8.7 8.7 0 0 1-.56-.017 1.136 1.136 0 0 1-.474-.13c-.299-.102-.448-.39-.448-.861h-.422v3.266h5.136v-3.904a2.423 2.423 0 0 1-.974-.698 3.979 3.979 0 0 1-.56-1.008 7.594 7.594 0 0 1-.353-2.37 4.987 4.987 0 0 1 .848-2.894c-.22-.037-.442-.073-.659-.113ZM28.71 29.793a64.886 64.886 0 0 1-2.267-.154c-.23-.02-.458-.042-.686-.064l-.125-.014c.318.702.486 1.46.486 2.284 0 .368-.011.758-.034 1.172-.046.408-.14.807-.285 1.198-.132.373-.321.71-.568 1.008a2.472 2.472 0 0 1-1 .698v3.904h5.136V36.56h-.43c-.012.471-.153.758-.423.862-.293.109-.646.158-1.06.146h-2.611v-1.025c1.224-.167 2.3-.62 3.232-1.362.953-.741 1.442-1.752 1.465-3.033-.019-.918-.223-1.696-.6-2.341h-.008c-.074-.004-.148-.01-.223-.013Z"/>
    <path fill="#0E476C" d="M27.549 28.424c-1.27-.73-2.718-1.095-4.343-1.095-1.615 0-3.057.365-4.326 1.095-.037.021-.068.047-.104.07l.045.01c.517.112 1.041.216 1.57.316l.091.018c.217.04.439.076.659.113.456-.646 1.143-.98 2.065-1.001 1.045.023 1.798.44 2.257 1.25.065.117.114.24.169.361l.125.014c.228.022.456.045.686.064.748.064 1.504.115 2.266.154.075.003.149.009.223.012h.008a3.842 3.842 0 0 0-1.391-1.381ZM14.52 15.265c.087.232.158.478.21.744.143.606.223 1.199.24 1.78.017.605.025 1.097.025 1.476.017.773-.088 1.817-.315 3.129-.135.606-.358 1.123-.67 1.552-.31.446-.723.669-1.236.669-.85 0-1.367-.51-1.552-1.527-.11-.521-.187-1.203-.235-2.037l-.977 1.6-.997 1.632c.913.796 2.1 1.214 3.572 1.24 1.001-.017 1.863-.353 2.587-1.01a7.63 7.63 0 0 0 1.703-2.334h.05c.177.968.447 1.763.808 2.385.362.623.816.942 1.363.96.42-.018.765-.148 1.035-.392.277-.244.492-.555.643-.934a8.712 8.712 0 0 0 .518-2.473h-.745a1.66 1.66 0 0 1-.467.845c-.26.278-.56.417-.896.417-.42 0-.765-.197-1.034-.593a4.226 4.226 0 0 1-.732-1.211l2.637-8.038h-3.647l-.744 3.116h-.05a7.03 7.03 0 0 0-.316-1.362 3.428 3.428 0 0 0-.227-.535l-.55.9Z"/>
    <path fill="#195B7F" d="M14.705 13.814c-.497-.657-1.262-.993-2.297-1.01-1.64.034-2.948.681-3.924 1.943a6.7 6.7 0 0 0-1.577 4.316c0 1.775.48 3.28 1.438 4.517.202.263.428.493.668.703l.997-1.632.977-1.6a41.799 41.799 0 0 1-.055-2.695c-.017-.706.08-1.61.29-2.713.068-.252.152-.492.253-.72.109-.226.223-.415.34-.567.261-.328.606-.5 1.035-.517.53.017.95.223 1.262.618.165.24.3.512.409.808l.55-.901a3.107 3.107 0 0 0-.366-.55Z"/>
    <path fill="#6897B8" d="M43.83 3.495Z"/>
    <path fill="#B8DEEB" d="m40.47 2.603-.114.003-.173.012-.113.009-.185.019-.104.013a3.53 3.53 0 0 0-.204.034l-.074.011c-.09.017-.188.037-.269.059l-.075.019c-.064.016-.13.032-.19.053l-.102.03-.161.052-.11.038-.148.056-.112.046c-.05.02-.098.04-.144.062l-.108.048-.15.073-.095.05a6.294 6.294 0 0 1-.195.1l-.098.058c-.06.035-.122.072-.181.11l-.095.065-.13.088-.101.074-.117.087-.1.082-.084.091-.1.088-.045.039c.09-.005.177-.009.251-.01h.114l.039.001c1.91.163 4.307 1.24 5.296 2.358.034.04.062.078.092.117.027.034.058.068.082.102.724 1.028-.216 2.463-1.422 3.149a1.569 1.569 0 0 1 .507-.07c.02.001.038.008.058.01.034.002.068-.003.102.001.536.063.976.389 1.209.833l.015.034c.038.077.07.157.096.24.013.043.018.086.027.129.013.06.028.12.034.182a1.57 1.57 0 0 1-.149.822c-.004.01-.007.018-.012.026a1.583 1.583 0 0 1-.086.153l.012-.005a6.06 6.06 0 0 0 3.732-3.503l.021-.052c.031-.08.07-.155.097-.235 0-.005 0-.01.002-.015.005-.047-.006-.095-.01-.145-.003-.05-.005-.096-.009-.142a5.556 5.556 0 0 0-.014-.147l-.015-.139-.022-.145c-.007-.048-.013-.091-.023-.136l-.027-.144-.028-.135a4.419 4.419 0 0 0-.035-.142l-.035-.132a3.641 3.641 0 0 0-.04-.14c-.015-.048-.027-.087-.042-.13l-.045-.136c-.015-.044-.032-.087-.049-.13l-.05-.13-.057-.134-.055-.123a5.132 5.132 0 0 0-.086-.177c-.03-.058-.059-.114-.09-.17-.033-.054-.05-.093-.076-.138l-.068-.112-.077-.126c-.023-.038-.048-.074-.073-.111l-.082-.12-.079-.107-.088-.115-.083-.105-.093-.111-.087-.1c-.033-.037-.065-.073-.1-.108l-.09-.095-.106-.106-.093-.089-.118-.105-.09-.08c-.043-.038-.09-.074-.135-.11l-.08-.065a5.167 5.167 0 0 0-.223-.165l-.044-.028-.19-.127-.016-.01a1.46 1.46 0 0 0-.056-.034l-.016-.01-.153-.092-.101-.056c-.048-.026-.098-.053-.149-.077l-.107-.055-.15-.07-.113-.048-.15-.063-.116-.044-.155-.055-.118-.039-.163-.05-.117-.032-.178-.044-.114-.026c-.063-.007-.127-.025-.192-.037l-.097-.01-.297-.035-.29-.033-.095-.011c-.065-.007-.13-.006-.195-.006l-.111-.002-.184.003Zm2.03.495c2.6.954 3.925 3.181 3.816 5.899a.599.599 0 0 1-.576.524.591.591 0 0 1-.08.014h-.015c-.023-.003-.045-.01-.067-.015a.598.598 0 0 1-.455-.655c.008-.07.01-.135.016-.203.007-.096.017-.192.02-.286.002-.032 0-.063 0-.094a5.828 5.828 0 0 0 0-.365l-.008-.086a5.362 5.362 0 0 0-.03-.353c-.011-.089-.028-.175-.044-.262-.01-.052-.016-.105-.027-.156-.357-1.66-1.538-2.899-3.264-3.705-.254-.12-.398-.186-.477-.22l-.002-.001c-.33-.144.53.287-.582-.282l.03-.002a8.148 8.148 0 0 1-.028-.014c.815-.031.98-.029 1.774.262Z"/>
    <path fill="#B8DEEB" d="M40.681 9.141a.973.973 0 0 0 .127-1.942.977.977 0 0 0-1.082.859l-.001.01c-.004.04-.001.077 0 .114 0 .026-.003.052 0 .077a.96.96 0 0 0 .027.146c.003.014.004.028.008.041a.973.973 0 0 0 .063.157l.007.017a.981.981 0 0 0 .098.152l.004.005c.037.047.08.09.124.13.003.001.004.003.006.005.043.037.09.07.14.099l.015.01a.971.971 0 0 0 .14.061c.013.005.024.012.037.016.039.013.08.02.122.027.023.004.045.012.07.015h.006c.026.004.05 0 .075.002h.014Zm.863-1.094v.002l-.001.002V8.05a.423.423 0 0 1-.469.37h-.002c-.007-.001-.012-.006-.02-.007h-.007a.421.421 0 0 1 .126-.835c.233.026.4.237.373.47Z"/>
    <path fill="#F9C27A" d="M37.54 14.03c.377-.08.753-.165 1.119-.253 1.046-.254 1.999-.54 2.608-.834a1.572 1.572 0 0 1-1.109-.776 1.983 1.983 0 0 1-.459.334c-.415.223-.844.418-1.285.584-1.289.506-2.61.926-3.954 1.256-.1.026-.206.049-.309.074a25.78 25.78 0 0 1-1.217.263l-.007.002c.922-.02 1.842-.12 2.747-.298a46.555 46.555 0 0 0 1.866-.353Z"/>
    <path fill="#FFE49F" d="M36.135 13.32a32.886 32.886 0 0 0 1.254-.417c.402-.144.77-.285 1.094-.42.53-.22.939-.422 1.16-.575.07-.047.197-.12.34-.21-.087-.443.02-.903.296-1.262-1.294-.048-1.861-.457-2.33-1.003-.383-.444-.7-.98-1.29-1.484l-.02-.014c-.353-.29-.798-.267-1.27.082l.013-.004a.598.598 0 0 1 .743.85c-.967 1.44-1.48 1.726-2.73 2.399-.178.096-.37.2-.583.317l-.342.19c-.9.504-1.829 1.033-2.781 1.419-.154.063-.308.122-.462.176.33-.382.7-.722 1.092-1.038.653-.526 1.367-.984 2.05-1.462.697-.488 1.163-.76 1.561-1.097l.01-.008c.045-.039.09-.078.134-.12.136-.127.267-.267.398-.432.153-.193.308-.42.475-.7l.122-.21.003-.005c-.21.223-.396.466-.556.727-.069.111-.168.233-.295.364-.548.57-1.602 1.318-2.896 2.157-.66.426-1.365.856-1.915 1.25-1.076.77-1.555 1.398.082 1.583.165.019.35.033.56.042 1.633.077 4.057-.466 6.083-1.095Z"/>
    <path fill="#B8DEEB" d="M40.335 11.255a1.199 1.199 0 0 0 1.056 1.328c.043.005.085.002.128.002h.003a1.195 1.195 0 0 0 .14-2.384 1.199 1.199 0 0 0-1.327 1.054Zm1.777.877a.944.944 0 0 1-1.427-.313c-.013-.027-.021-.055-.032-.082-.012-.03-.026-.06-.035-.09-.008-.03-.01-.062-.016-.092-.005-.03-.013-.058-.015-.088-.003-.03 0-.06.001-.089.001-.03-.001-.061.002-.092.003-.027.012-.053.017-.08.007-.032.01-.065.021-.097.009-.027.023-.053.034-.08.012-.029.022-.059.037-.087.015-.027.035-.052.053-.077.017-.026.032-.052.052-.076.02-.024.045-.044.068-.066.022-.022.042-.046.068-.067.027-.021.056-.036.084-.054.026-.016.05-.035.077-.049.03-.015.063-.025.094-.037.027-.01.052-.023.079-.03.031-.009.063-.011.095-.017a.938.938 0 0 1 .743 1.663Z"/>
    <path fill="#18355E" d="M42.264 10.808a.938.938 0 0 0-.895-.339c-.032.006-.064.008-.095.017-.027.007-.052.02-.078.03-.032.012-.064.022-.095.037-.027.014-.051.033-.077.05-.028.017-.057.032-.083.053h-.001c-.025.02-.045.045-.068.067-.023.022-.048.042-.068.066-.02.024-.035.05-.052.076-.018.025-.038.05-.053.077-.015.028-.025.058-.037.088-.011.026-.025.052-.034.08-.01.031-.014.064-.02.097-.006.026-.015.052-.018.08-.003.03-.001.06-.002.091 0 .03-.004.06-.001.089.002.03.01.059.015.088.006.03.008.061.016.091.009.031.023.06.035.09.01.028.019.056.032.083a.944.944 0 0 0 1.428.313.942.942 0 0 0 .15-1.324Zm-.801 1.334-.026.002-.026-.008a.754.754 0 0 1-.167-.044l-.033-.016a.746.746 0 0 1-.176-.109l1.158-.92c.164.321.08.712-.2.937a.753.753 0 0 1-.53.158Zm-.636-.476a.749.749 0 0 1-.036-.12l-.007-.032a.756.756 0 0 1-.006-.19l.005-.035a.757.757 0 0 1 .05-.188c.001-.005.004-.01.007-.015a.753.753 0 0 1 .107-.174l.004-.006.002-.002a.751.751 0 0 1 .229-.181l.022-.01a.753.753 0 0 1 .108-.042l.034-.008a.751.751 0 0 1 .669.154l-1.16.921c-.011-.024-.015-.05-.025-.075l-.003.003Z"/>
    <path fill="#B8DEEB" d="M42.015 10.817a.75.75 0 0 0-.669-.155c-.011.003-.023.005-.034.009a.759.759 0 0 0-.108.042l-.022.01a.755.755 0 0 0-.229.18c0 .002-.001.002-.002.003l-.004.006a.754.754 0 0 0-.107.174l-.008.015a.757.757 0 0 0-.05.188l-.004.035a.751.751 0 0 0 .006.19l.007.032c.008.04.02.08.035.12l.004-.003c.01.025.014.051.026.075l1.159-.921ZM41.992 11.984a.757.757 0 0 0 .201-.936l-1.158.92a.75.75 0 0 0 .176.108l.033.016c.054.021.11.036.167.044.009.002.017.006.026.007l.026-.001a.754.754 0 0 0 .53-.158Z"/>
    <path fill="#18355E" d="M41.171 7.578a.424.424 0 0 0-.455.541c.043.15.17.263.329.293h.003l.005.001c.007.001.012.006.02.007h.001a.423.423 0 0 0 .469-.37v-.002a.424.424 0 0 0-.372-.47Z"/>
    <path fill="#D2E5EA" d="m40.727 2.836.029.014-.03.002c1.112.569.25.138.581.282.013.006.011.006.002 0 .079.035.224.101.477.22 1.726.807 2.907 2.046 3.264 3.706.011.051.017.104.027.156.016.087.033.173.044.262.015.116.023.234.03.353.002.029.006.057.007.086.005.12.004.242.002.365-.001.031 0 .062 0 .094-.004.094-.014.19-.021.286-.006.068-.008.134-.016.203a.598.598 0 0 0 .455.655.606.606 0 0 0 .083-.001.599.599 0 0 0 .655-.522c.11-2.718-1.215-4.945-3.815-5.899-.794-.29-.96-.293-1.774-.262Z"/>
    <path fill="#fff" d="M34.95 8.506a6.32 6.32 0 0 1-.477.7 3.94 3.94 0 0 1-.533.553l-.01.008c-.398.337-.864.61-1.56 1.097-.684.478-1.398.936-2.05 1.462a8.21 8.21 0 0 0-1.089 1.035c.153-.053.306-.111.458-.173.952-.386 1.88-.915 2.781-1.419l.346-.193c.21-.116.403-.219.58-.314 1.25-.673 1.762-.959 2.73-2.398a.6.6 0 0 0-1.044-.593v.002l-.001.01-.13.223Z"/>
    <path fill="#18355E" d="M49.768 39.528v.08h4.556l.927-5.845h5.765l.926 5.846h4.556v-.081l-2.286-11.866-3.64-18.892h-4.837l-3.241 16.707-2.726 14.05Zm8.345-23.582 1.77 10.91.487 2.997h-4.515l.591-3.639 1.667-10.268ZM73.39 8.81h-4.434V39.61h4.435V8.81ZM87.54 19.654a6.885 6.885 0 0 0-1.451.162l-4.838.644v-.725h-4.514v27.13h4.514v-7.256h4.596c1.316 0 2.338-.363 3.064-1.089s1.088-1.693 1.088-2.902V22.073c0-1.613-.82-2.419-2.459-2.419Zm-2.056 14.714c0 .51-.108.887-.322 1.129-.216.242-.592.363-1.129.363h-2.782V23.564l4.233-.08v10.884ZM103.987 19.654a6.862 6.862 0 0 0-1.451.162l-4.838.644V8.81h-4.514V39.61h4.514V23.564l4.233-.08v16.125h4.515V22.073c0-1.613-.82-2.419-2.459-2.419ZM119.991 19.735h-7.619c-1.693 0-2.54.82-2.54 2.459v3.709h4.072V23.08h4.313v4.555h-6.087c-1.693 0-2.54.82-2.54 2.459v7.175c0 1.613.82 2.42 2.459 2.42.215 0 .424-.015.625-.041.202-.027.45-.067.746-.121l4.757-.605v.686h4.313V22.194c0-1.639-.833-2.46-2.499-2.46Zm-1.774 16.286-4.313.161V30.7h4.313v5.322ZM134.987 25.7h-9.393v4.113h9.393V25.7ZM151.111 8.81h-9.997c-1.828 0-2.741.941-2.741 2.822v25.155c0 1.881.913 2.822 2.741 2.822h9.997c.887 0 1.572-.242 2.056-.726s.726-1.182.726-2.096V11.632c0-.913-.242-1.612-.726-2.096s-1.169-.726-2.056-.726ZM149.297 35.7h-6.329V12.72h6.329v22.978ZM176.864 19.654a6.943 6.943 0 0 0-1.454.162l-5.212.725-.122-.201c-.135-.162-.364-.316-.687-.464-.323-.147-.727-.222-1.212-.222a8.16 8.16 0 0 0-.748.04 8.354 8.354 0 0 0-.828.122l-4.727.644v-.725h-4.515v19.874h4.515V23.564l4.233-.08v16.125h4.515V23.564l4.192-.08v16.125h4.515V22.073c0-1.613-.822-2.419-2.465-2.419ZM192.833 19.735h-7.78c-1.693 0-2.54.82-2.54 2.459V37.15c0 1.639.847 2.459 2.54 2.459h7.78c1.693 0 2.54-.82 2.54-2.46v-4.151h-4.313v3.305h-4.233V30.74h7.296l1.25-1.25v-7.296c0-1.639-.847-2.46-2.54-2.46Zm-1.773 8.062h-4.233V23.04h4.233v4.757ZM207.305 20.46l-3.411-.645a8.03 8.03 0 0 0-.843-.12 9.405 9.405 0 0 0-.842-.04c-1.124 0-2.006.322-2.648.967-.643.645-.963 1.546-.963 2.7v12.175c0 1.21.361 2.177 1.083 2.902.722.726 1.725 1.089 3.01 1.089h4.614v4.111h-3.991v-2.378h-4.354v3.185c0 1.638.847 2.459 2.54 2.459h7.792c1.685 0 2.528-.82 2.528-2.46v-24.67h-4.515v.725Zm0 15.4h-2.729c-.976 0-1.463-.498-1.463-1.492v-9.514c0-.967.474-1.45 1.424-1.45h.454c.171 0 .323.013.455.04l1.859.2V35.86ZM225.405 19.735h-7.619c-1.693 0-2.54.82-2.54 2.459v3.709h4.072V23.08h4.313v4.555h-6.087c-1.693 0-2.539.82-2.539 2.459v7.175c0 1.613.819 2.42 2.458 2.42.215 0 .424-.015.625-.041.202-.027.45-.067.746-.121l4.757-.605v.686h4.313V22.194c0-1.639-.833-2.46-2.499-2.46Zm-1.774 16.286-4.313.161V30.7h4.313v5.322Z"/>
  </g>
  <defs>
    <clipPath id="a">
      <path fill="#fff" d="M0 0h227.904v53H0z"/>
    </clipPath>
  </defs>
</svg>