<svg xmlns="http://www.w3.org/2000/svg" xml:space="preserve" width="205" height="38" preserveAspectRatio="xMaxYMin" viewBox="0 0 170.079 31.56"><path d="M115.33 22.99h1.085l-1.037 4.986c-.084.413-.127.72-.127.919 0 .433.172.783.514 1.044.346.266.775.399 1.295.399.414 0 .799-.096 1.154-.285a2.08 2.08 0 0 0 .844-.836c.207-.37.393-.955.559-1.762l.935-4.465h1.084l-.998 4.756c-.17.809-.392 1.451-.668 1.924-.277.475-.66.853-1.15 1.139-.49.285-1.057.427-1.707.427-.614 0-1.145-.101-1.594-.302-.45-.204-.785-.483-1.008-.84a2.22 2.22 0 0 1-.336-1.211c0-.285.076-.774.229-1.467l.926-4.426M121.935 31.1l1.701-8.11h1.002l-1.701 8.11h-1.002M127.224 30.287l-.166.818c-.24.063-.473.094-.7.094-.398 0-.716-.098-.952-.29a.748.748 0 0 1-.266-.606c0-.127.047-.426.145-.89l.712-3.415h-.792l.158-.777h.793l.304-1.44 1.15-.69-.445 2.13h.987l-.166.777h-.98l-.684 3.246c-.086.412-.13.66-.13.74 0 .12.036.21.104.272.069.064.18.095.334.095.223 0 .42-.023.594-.064M128.384 31.1l1.233-5.88h.894l-.256 1.204c.307-.453.606-.79.895-1.006.29-.219.588-.326.889-.326.2 0 .445.07.738.215l-.41.927a.953.953 0 0 0-.57-.185c-.352 0-.714.195-1.085.586-.373.39-.668 1.094-.882 2.11l-.493 2.355h-.953M136.472 30.37a4.013 4.013 0 0 1-1.002.653 2.604 2.604 0 0 1-1.03.206c-.542 0-.98-.159-1.312-.479-.332-.318-.498-.729-.498-1.225 0-.328.075-.619.225-.87.148-.255.348-.456.596-.61.248-.152.55-.264.908-.328.224-.045.65-.08 1.28-.106.628-.025 1.08-.093 1.35-.199.079-.271.118-.498.118-.68a.655.655 0 0 0-.256-.545c-.232-.183-.572-.275-1.018-.275-.421 0-.765.092-1.033.28-.267.185-.463.449-.584.792l-1.01-.088c.208-.584.536-1.029.983-1.34.45-.31 1.014-.464 1.697-.464.727 0 1.303.172 1.727.52.326.257.488.593.488 1.005 0 .315-.047.678-.139 1.092l-.326 1.459c-.103.465-.156.844-.156 1.135 0 .183.041.449.123.797h-1.016a3.69 3.69 0 0 1-.115-.73m.37-2.247c-.141.055-.29.096-.452.125a8.734 8.734 0 0 1-.8.096c-.585.05-.999.117-1.239.195a1.04 1.04 0 0 0-.543.377.985.985 0 0 0-.184.574c0 .28.098.512.291.692.194.18.47.27.829.27.332 0 .652-.089.957-.263a1.92 1.92 0 0 0 .726-.73c.178-.314.315-.76.414-1.336zM139.271 29.086l1.01-.059c0 .287.043.533.13.735.088.203.253.369.489.498.238.127.515.191.83.191.441 0 .773-.088.994-.264.22-.177.33-.384.33-.625a.754.754 0 0 0-.197-.492c-.137-.154-.469-.345-.996-.572-.528-.227-.865-.387-1.012-.477a1.646 1.646 0 0 1-.56-.535 1.304 1.304 0 0 1-.19-.705c0-.463.186-.861.553-1.191.369-.332.885-.498 1.547-.498.738 0 1.298.17 1.683.512.385.34.586.789.6 1.343l-.98.065c-.014-.352-.141-.631-.376-.836-.236-.203-.568-.307-.998-.307-.345 0-.613.078-.804.236-.192.159-.287.329-.287.512 0 .186.082.346.248.484.109.096.394.243.855.442.764.332 1.246.596 1.445.787.319.307.479.68.479 1.117 0 .291-.09.578-.268.858-.18.279-.453.504-.818.671-.37.169-.8.253-1.299.253-.678 0-1.256-.169-1.73-.504-.477-.336-.702-.881-.678-1.64M149.253 28.955l1.01.108c-.252.734-.61 1.279-1.074 1.632a2.532 2.532 0 0 1-1.582.534c-.64 0-1.158-.208-1.555-.62-.398-.414-.597-.988-.597-1.73 0-.64.126-1.272.382-1.89.254-.62.62-1.09 1.094-1.415a2.843 2.843 0 0 1 1.627-.482c.631 0 1.133.178 1.502.535.371.355.555.826.555 1.414l-.987.064c-.004-.37-.113-.662-.324-.87-.213-.21-.492-.315-.84-.315-.402 0-.75.125-1.047.38-.295.255-.527.64-.693 1.157a4.762 4.762 0 0 0-.254 1.492c0 .502.111.877.334 1.127.219.25.492.375.818.375.323 0 .635-.123.932-.369.295-.246.53-.623.7-1.127M151.228 31.1l1.701-8.11h1l-.654 3.115c.367-.36.709-.62 1.023-.777.317-.158.641-.236.975-.236.478 0 .85.127 1.115.384.266.258.397.596.397 1.018 0 .207-.063.588-.186 1.139l-.76 3.467h-1l.782-3.557c.113-.514.17-.84.17-.973a.613.613 0 0 0-.198-.469c-.129-.12-.316-.181-.562-.181-.354 0-.694.094-1.016.283-.322.19-.574.45-.756.781-.183.328-.35.862-.502 1.596l-.529 2.52h-1M161.847 30.37a4.013 4.013 0 0 1-1.002.653c-.32.137-.664.206-1.03.206-.542 0-.98-.159-1.312-.479-.332-.318-.498-.729-.498-1.225 0-.328.075-.619.225-.87.15-.255.35-.456.596-.61.248-.152.55-.264.908-.328.222-.045.65-.08 1.28-.106.628-.025 1.08-.093 1.353-.199.076-.271.115-.498.115-.68a.655.655 0 0 0-.256-.545c-.232-.183-.57-.275-1.018-.275-.421 0-.765.092-1.033.28-.267.185-.46.449-.584.792l-1.01-.088c.208-.584.536-1.029.983-1.34.45-.31 1.016-.464 1.697-.464.729 0 1.303.172 1.727.52.326.257.488.593.488 1.005 0 .315-.047.678-.139 1.092l-.326 1.459c-.103.465-.154.844-.154 1.135 0 .183.039.449.121.797h-1.014a3.542 3.542 0 0 1-.117-.73m.37-2.247a2.445 2.445 0 0 1-.45.125c-.162.031-.43.062-.803.096-.586.05-1 .117-1.238.195-.24.08-.42.205-.543.377a.983.983 0 0 0-.182.574c0 .28.096.512.29.692.193.18.47.27.828.27.332 0 .652-.089.959-.263.306-.175.546-.42.724-.73.176-.314.315-.76.414-1.336zM164.48 31.1l1.701-8.11h1.002l-1.701 8.11h-1.002M167.353 31.1l1.701-8.11h1.002l-1.703 8.11h-1"/><path fill="red" d="M89.601 1.578a.227.227 0 0 0-.174-.084h-3.355a.223.223 0 0 0-.217.17l-1.07 4.571h-3.18l.986-4.475a.222.222 0 0 0-.219-.266H79.18a.222.222 0 0 0-.217.171l-2.777 11.763a.22.22 0 0 0 .043.19.22.22 0 0 0 .172.084h3.264c.1 0 .187-.069.212-.164l1.204-4.61h3.117l-1.002 4.502a.218.218 0 0 0 .043.188.22.22 0 0 0 .174.084h3.218c.104 0 .194-.07.217-.17l2.797-11.764a.221.221 0 0 0-.043-.19M101.287 4.919c-.24-.715-.844-1.433-1.416-1.522l-.036-.002h-5.843c-1.745.076-3.188 1.11-3.688 2.634a32.668 32.668 0 0 0-.789 3.192 7.426 7.426 0 0 1-.205.835c-.254.892-.541 1.905.133 2.755.597.908 1.648.897 2.574.885.244-.004.473-.006.691.006.012.002 6.489-.008 6.489-.008a.228.228 0 0 0 .134-.045l.122-.094a.24.24 0 0 0 .074-.101c.201-.582.332-.795.463-1.38l.093-.42c.004-.023.006-.049.004-.072v.006c0-.012.008-.043.012-.065.08-.356-.094-.473-.25-.508a.197.197 0 0 0-.049-.006h-6.728c.074-.73.617-3.324 1.097-4.585h2.75L94.3 9.348a.22.22 0 0 0-.043.239.226.226 0 0 0 .205.135h3.944a.217.217 0 0 0 .154-.064l2.396-2.33a.224.224 0 0 0 .036-.045c.154-.257.226-.568.283-.84.13-.447.137-1.023.012-1.524M109.464 3.454a.216.216 0 0 0-.162-.085c-.14-.007-3.164-.17-4.521.394-1.992.783-2.371 2.532-2.85 4.746l-.008.042-1.101 4.88a.23.23 0 0 0 .043.187.223.223 0 0 0 .174.084h3.316c.105 0 .2-.077.219-.182.449-2.345 1.279-6.417 1.672-7.102l2.207-.012c.142-.01.373-.088.433-.323.33-1.252.62-2.434.621-2.448a.216.216 0 0 0-.043-.18M116.337 3.454a.223.223 0 0 0-.164-.085c-.14-.007-3.166-.17-4.52.394-1.995.783-2.372 2.532-2.85 4.746l-.01.042-1.102 4.88a.218.218 0 0 0 .045.187.223.223 0 0 0 .174.084h3.316c.105 0 .2-.077.219-.182.449-2.345 1.28-6.417 1.674-7.102l2.205-.012c.142-.01.375-.088.435-.323.33-1.252.617-2.434.621-2.448a.238.238 0 0 0-.043-.18M133.417 4.726c-.304-.718-1.007-1.225-1.884-1.357-.008-.002-.018-.002-.026-.003-1.379-.049-2.892-.025-4.103 0-.737.013-1.496.028-2.276.026l-.12-.023-.034-.003c-1.379-.049-2.633-.025-3.846 0-1.205.023-2.455.047-3.824-.003a.221.221 0 0 0-.168.072l-.148.159a.2.2 0 0 0-.051.09c-.434 1.556-2.272 9.664-2.29 9.746a.22.22 0 0 0 .044.19c.04.05.105.084.172.084h3.203c.103 0 .191-.07.217-.168l1.746-7.02c.092-.059.166-.112.213-.155l.047.001c.017.001 1.87-.004 2.46-.007l-1.572 7.075a.235.235 0 0 0 .045.19.222.222 0 0 0 .172.084h3.428c.101 0 .191-.07.215-.168l1.77-7.105.005-.028c.002-.012.006-.027.006-.04h.004l2.672-.006-1.66 7.071a.222.222 0 0 0 .214.276h3.45c.101 0 .191-.07.214-.168.01-.041.98-3.864 1.39-5.76.046-.274.112-.538.187-.815.185-.708.376-1.44.128-2.235M145.117 4.287c-.598-.91-1.649-.896-2.575-.885-.242.003-.47.006-.69-.007l-6.62.007a.21.21 0 0 0-.135.048l-.12.092a.231.231 0 0 0-.073.103c-.205.582-.336.927-.465 1.514l-.09.416a.143.143 0 0 0-.006.07V5.64l-.013.065c-.079.356.091.473.25.509a.208.208 0 0 0 .048.005h6.98l.1.007c-.09.725-.964 3.341-1.447 4.58h-2.883l2.752-2.925a.219.219 0 0 0 .043-.24.223.223 0 0 0-.205-.134h-3.814a.225.225 0 0 0-.157.063l-2.525 2.33a.271.271 0 0 0-.037.045c-.15.256-.22.556-.28.84a2.554 2.554 0 0 0-.013 1.394c.238.716.975 1.43 1.549 1.52.012.003.021.005.035.005h8.666c.1 0 .19-.069.215-.166.05-.188 1.23-4.588 1.437-5.66.043-.266.121-.542.205-.835.252-.894.541-1.905-.132-2.756M157.806 4.726c-.303-.718-1.008-1.225-1.883-1.357-.008-.002-.017-.002-.025-.003-1.379-.049-2.746-.025-4.07 0-1.315.023-2.676.047-4.043-.003a.222.222 0 0 0-.17.072l-.149.159a.203.203 0 0 0-.052.09c-.434 1.556-2.272 9.664-2.29 9.746a.22.22 0 0 0 .043.19c.041.05.106.084.174.084h3.428c.102 0 .19-.07.215-.168l1.77-7.105c0-.01.001-.019.003-.028.002-.012.004-.027.008-.04h.002l2.938-.006-1.66 7.071a.223.223 0 0 0 .216.276h3.627c.1 0 .19-.07.215-.168.012-.041.98-3.864 1.389-5.76.045-.274.115-.538.187-.815.184-.708.38-1.44.127-2.235M169.96 4.726c-.304-.718-1.01-1.225-1.886-1.357-.006-.002-.016-.002-.022-.003-1.383-.049-2.75-.025-4.07 0-1.317.023-2.678.047-4.045-.003a.222.222 0 0 0-.17.072l-.148.159a.223.223 0 0 0-.053.09c-.434 1.556-2.27 9.664-2.29 9.746a.22.22 0 0 0 .044.19c.04.05.107.084.172.084h3.427c.104 0 .19-.07.217-.168l1.768-7.105.006-.028a.16.16 0 0 1 .007-.04h.002l2.938-.006-1.66 7.071a.229.229 0 0 0 .04.19.229.229 0 0 0 .177.086h3.626c.102 0 .19-.07.215-.168.01-.041.98-3.864 1.389-5.76.045-.274.115-.538.187-.815.184-.708.38-1.44.13-2.235"/><path d="M39.164.93c-.235.124-18.184 10.351-19.959 11.268L0 12.203V10.64l18.581-.008c18.883-10.634.001 0 18.883-10.631 0 0 .437.228 1.7.93"/><path d="m40.933 2.129 1.658.933c-1.234.67-21.235 11.866-21.887 12.206H.007v-1.564H20.07L40.933 2.129M68.382 17.756c-6.203 3.463-7.799 4.416-20.69 11.66-1.148-.654-.625-.352-1.688-.937 0-.15 20.874-11.794 21.747-12.29h102.28v1.567H68.382"/><path d="m170.048 20.832-100.177-.004c-5.448 3.031-13.245 7.776-18.712 10.732l-1.696-.943 19.79-11.355 100.795-.008v1.578M44.308 4.246 23.6 15.73l20.707 11.605 20.64-11.605-20.64-11.483zm7.754 16.838h-2.508a.227.227 0 0 1-.17-.076.217.217 0 0 1-.051-.18l.636-4.021h-2.132l-1.183 4.115a.224.224 0 0 1-.217.162h-3.526a.223.223 0 0 1-.215-.158l-1.163-3.819-1.023 3.809a.222.222 0 0 1-.217.168h-3.397a.225.225 0 0 1-.218-.166l-2.46-9.472a.209.209 0 0 1 .04-.188.22.22 0 0 1 .177-.086h2.602c.102 0 .19.066.217.162l1.407 5.072 1.132-5.065a.22.22 0 0 1 .216-.17h2.8c.1 0 .188.064.215.156l1.545 5.064 1.3-5.052a.224.224 0 0 1 .218-.167h2.482a.22.22 0 0 1 .22.259l-.505 2.933h2.331l.897-3.036a.221.221 0 0 1 .214-.156h2.387a.221.221 0 0 1 .218.267l-2.048 9.471a.223.223 0 0 1-.221.174z"/></svg>