<svg xmlns="http://www.w3.org/2000/svg" viewBox="0 0 500 114.94"><defs><style>.cls-1{fill:#270089;}.cls-2{fill:#2a7de1;}</style></defs><g id="Camada_2" data-name="Camada 2"><g id="Layer_1" data-name="Layer 1"><path class="cls-1" d="M210.46,80.46a16.2,16.2,0,0,1-6.11-4.71A17.48,17.48,0,0,1,201,68.48h-1.25l1.61,13.06h-9.52V15.59h10.26l.09,17.89a20.89,20.89,0,0,1-.43,4.07q-.45,2.18-1.18,5a33.79,33.79,0,0,0-.87,3.82h1.24a20.23,20.23,0,0,1,6.62-10.09,17.31,17.31,0,0,1,11-3.52,20.47,20.47,0,0,1,19.24,12,28.68,28.68,0,0,1,2.69,12.6,28.76,28.76,0,0,1-2.73,12.72,20.62,20.62,0,0,1-19.2,12A19.57,19.57,0,0,1,210.46,80.46Zm12.93-8.62A13.74,13.74,0,0,0,228.31,66,20.08,20.08,0,0,0,230,57.49,20.08,20.08,0,0,0,228.29,49a14,14,0,0,0-4.95-5.86,13.94,13.94,0,0,0-14.78,0,13.8,13.8,0,0,0-4.9,5.86,20.23,20.23,0,0,0-1.73,8.54A20.11,20.11,0,0,0,203.66,66a13.66,13.66,0,0,0,4.92,5.82,14.11,14.11,0,0,0,14.81,0Z"/><path class="cls-1" d="M253.59,59.1a16.72,16.72,0,0,0,1.81,8,12.68,12.68,0,0,0,5.06,5.2,15,15,0,0,0,7.48,1.82,13.51,13.51,0,0,0,8.21-2.53,12.09,12.09,0,0,0,4.57-6.86l9.48.6a19.32,19.32,0,0,1-4,8.85,20.47,20.47,0,0,1-7.73,5.85,24.9,24.9,0,0,1-10.12,2,27.9,27.9,0,0,1-13.29-3,21.49,21.49,0,0,1-8.81-8.58,26.07,26.07,0,0,1-3.1-13,27.55,27.55,0,0,1,2.92-12.92,21,21,0,0,1,8.28-8.72,24.25,24.25,0,0,1,12.39-3.1,26.78,26.78,0,0,1,12.44,2.8,20.66,20.66,0,0,1,8.53,8,24,24,0,0,1,3.18,12.14,17.71,17.71,0,0,1-.33,3.36Zm7-16.93a11.61,11.61,0,0,0-4.69,4.16A12.38,12.38,0,0,0,254,52.66h26.68a12.45,12.45,0,0,0-1.91-6.44A11.34,11.34,0,0,0,274,42.1a15.84,15.84,0,0,0-6.76-1.4A14.89,14.89,0,0,0,260.55,42.17Z"/><path class="cls-1" d="M294.09,33.34h9.52l-2.8,13.48h1.24q2.9-7.18,7.31-10.61a17.28,17.28,0,0,1,10.9-3.42q8.75,0,13.78,5.54t5,16.86V81.54H328.86V55.69q0-7.17-2.94-10.9t-8.65-3.72a12.05,12.05,0,0,0-7,2,12.29,12.29,0,0,0-4.42,5.65,22.62,22.62,0,0,0-1.49,8.54V81.54H294.09Z"/><path class="cls-1" d="M391.63,44.49a21.6,21.6,0,0,1,8.69-8.6,28.64,28.64,0,0,1,25.74,0,21.53,21.53,0,0,1,8.69,8.67,26.21,26.21,0,0,1,3.08,12.85,26,26,0,0,1-3.13,13A21.47,21.47,0,0,1,426,79a26.72,26.72,0,0,1-12.84,3,26,26,0,0,1-12.87-3.08,21.66,21.66,0,0,1-8.65-8.64,26,26,0,0,1-3.08-12.84A26.2,26.2,0,0,1,391.63,44.49Zm14.05-1.33A13.65,13.65,0,0,0,400.74,49,19.6,19.6,0,0,0,399,57.44,19.89,19.89,0,0,0,400.74,66a13.62,13.62,0,0,0,24.86,0,20,20,0,0,0,1.72-8.51A19.6,19.6,0,0,0,425.57,49a13.65,13.65,0,0,0-4.94-5.82,14.41,14.41,0,0,0-14.95,0Z"/><path class="cls-1" d="M487,73V41.89h11.68V33.34H487.08V15.59H476.87V27.77a4.33,4.33,0,0,0,4.26,4.37h.06v1.2H468.45v8.55h8.37V81.54H500V73Z"/><path class="cls-1" d="M456.72,25.41a5.45,5.45,0,0,0-1.25,4v3.91h13v8.55h-13V73h13v8.55H436.89V73h8.37V41.89h-8.37V33.34h12.74v-1.2a5.3,5.3,0,0,1-4.39-1.91,8.53,8.53,0,0,1-1.54-5.49,9.15,9.15,0,0,1,1.5-5.59,7.7,7.7,0,0,1,4.2-2.78,24.91,24.91,0,0,1,6.76-.78h12.33v8.6h-7.68C458.91,24.19,457.54,24.59,456.72,25.41Z"/><path class="cls-1" d="M372.75,54.67c-4.44-1.11-9-2-13.46-3.05-2.31-.52-6.5-2-6.5-4.9,0-3.47,6.06-5.81,12-5.81,6.89,0,11.24,2.37,11.24,6.71v.6h9l.07-.53a9.85,9.85,0,0,0-2.83-8.23c-3.8-4.1-10.72-6.65-18.05-6.65-11.52,0-20.89,6.3-20.89,14a10.72,10.72,0,0,0,4.32,8.66c3.58,2.75,8.21,3.79,12.56,4.75,2.9.64,5.81,1.17,8.69,1.87,4.39,1.07,8.74,2.71,8.75,5.78,0,4.25-4.15,6-7.75,6.33-5.56.6-11.88.11-16.52-3.26-1.71-1.23-2.89-3.06-2.29-5.22A5.41,5.41,0,0,1,353,63l-6.85-2.57a7.88,7.88,0,0,0-3.8,5.08,10,10,0,0,0,2.37,8.81c3.42,4.16,8.86,6.32,14.05,7.26,7.8,1.41,17.83.73,24-5a12.45,12.45,0,0,0,4.11-9.51C386.81,58.34,378,56,372.75,54.67Z"/><path class="cls-1" d="M188.52,73v8.56h-5.38a8,8,0,0,1-5.29-1.48,4.78,4.78,0,0,1-1.75-3.86,8,8,0,0,1,.32-2.21l.74-4.37h-1.24A19.68,19.68,0,0,1,169,78.85q-4.65,3.29-11.82,3.29a22.92,22.92,0,0,1-9.08-1.66,13.56,13.56,0,0,1-6-4.76,12.8,12.8,0,0,1-2.14-7.43,12.12,12.12,0,0,1,2.47-7.82,16.13,16.13,0,0,1,7.19-4.85,52.85,52.85,0,0,1,12-2.64l11.78-1.57v-1.7a8,8,0,0,0-3-6.64q-3-2.37-8.21-2.37a12.85,12.85,0,0,0-7.47,2,7.75,7.75,0,0,0-3.48,5.32l-9.84-.65a14.51,14.51,0,0,1,3.22-7.79,17.23,17.23,0,0,1,7.31-5,30.23,30.23,0,0,1,10.72-1.75q10,0,15.41,4.51t5.42,12.92V68.85q0,4.19,4.14,4.18Zm-21.89-.27a11.63,11.63,0,0,0,4.92-4.31,12.07,12.07,0,0,0,1.75-6.55v-4l-11.6,1.52q-5.7.78-8.57,2.66a6.16,6.16,0,0,0-2.88,5.48,5.78,5.78,0,0,0,2.44,4.92,11,11,0,0,0,6.62,1.79A16.83,16.83,0,0,0,166.63,72.76Z"/><rect class="cls-2" x="63.57" y="7.27" height="13.32"/><path class="cls-2" d="M73.14,12.78l8.17,3.37,24.85,10.27a14.15,14.15,0,0,1,7.67,18.45L110.06,54l-1.42-3.42L105,41.7l.17-.43a4.7,4.7,0,0,0-2.55-6.15L86.42,28.45,60.84,17.89Z"/><rect class="cls-2" x="44.6" y="8.84" width="13.32" transform="translate(0.53 20.35) rotate(-22.56)"/><rect class="cls-2" x="85.91" y="30.99" width="13.32" transform="translate(-4.81 37.89) rotate(-22.56)"/><rect class="cls-2" x="96.23" y="80.81" height="13.32" transform="translate(-26.19 43.62) rotate(-22.56)"/><path class="cls-2" d="M102.19,79.89l.43-.18a4.72,4.72,0,0,0,2.54-6.15L87.84,31.87,100.15,37l13.7,33a14.14,14.14,0,0,1-7.62,18.46L97.11,92.2Z"/><rect class="cls-2" x="18.7" y="20.81" height="13.32"/><path class="cls-2" d="M8.71,26.52l9.11-3.78L12.74,35.05l-.42.17a4.71,4.71,0,0,0-2.54,6.16L27.1,83.06,14.79,78,1.08,45A14.14,14.14,0,0,1,8.71,26.52Z"/><path class="cls-2" d="M35.05,102.2l.17.42a4.73,4.73,0,0,0,6.16,2.54L83.06,87.84,78,100.15l-33,13.7a14.14,14.14,0,0,1-18.47-7.62l-3.78-9.12Z"/><polygon class="cls-2" points="33.47 16.38 33.54 16.21 33.54 16.21 33.47 16.38"/><path class="cls-2" d="M37,14.79,70,1.08A14.13,14.13,0,0,1,88.41,8.71l3.79,9.11L79.89,12.73l-.18-.41a4.7,4.7,0,0,0-6.15-2.54L31.87,27.1Z"/><path class="cls-2" d="M73.24,105l.42.17a4.7,4.7,0,0,0,6.15-2.55l6.67-16.15L97,60.84l5.11,12.3-3.37,8.17L88.51,106.16a14.13,14.13,0,0,1-18.44,7.67l-9.13-3.77Z"/><path class="cls-2" d="M12.78,41.79l3.38-8.16,5.08-12.31L26.42,8.77A14.13,14.13,0,0,1,44.87,1.11L54,4.88,50.58,6.3,41.7,10l-.43-.18a4.7,4.7,0,0,0-6.14,2.55l-1.59,3.85L28.46,28.52,17.89,54.09Z"/><path class="cls-2" d="M1.1,70.06l3.77-9.13L10,73.24l-.17.42a4.71,4.71,0,0,0,2.55,6.15l16.16,6.67L54.09,97,41.8,102.15l-8.17-3.37L8.77,88.51A14.16,14.16,0,0,1,1.1,70.06Z"/></g></g></svg>