<svg width="110" height="119" viewBox="0 0 110 119" fill="none" xmlns="http://www.w3.org/2000/svg">
<path d="M61.3351 38.0848C78.764 33.5205 96.0198 33.2923 98.1798 38.8821C99.097 44.8058 84.0392 53.2581 66.669 58.0419C56.4528 60.8554 44.0207 63.0137 27.7809 64.5511C10.8915 66.15 5.70414 65.4071 5.28445 63.8368C4.86477 62.2665 8.98657 59.0226 24.4107 51.9412C39.2415 45.1321 51.0844 40.7693 61.3351 38.0848Z" fill="#FF85E4"/>
<path d="M58.4089 94C84.0902 94 104.909 73.1812 104.909 47.5C104.909 21.8188 84.0902 1 58.4089 1C39.1959 1 22.7044 12.6524 15.6159 29.2758C16.1724 29.1113 16.7451 29.0426 17.3112 29.0653C20.5662 21.8203 25.6808 15.5919 32.0473 10.9877C34.7378 12.9882 36.4816 16.196 36.4816 19.8121C36.4816 21.8858 35.908 23.8252 34.9115 25.4797C36.6754 26.5159 38.0274 28.1807 38.6615 30.1674C45.3926 26.5507 51.6124 24.0767 57.5239 22.5791C66.7743 20.2358 76.4308 20.3577 84.4414 22.8741C92.4289 25.3834 99.1945 30.4415 101.681 38.2397L101.727 38.3858L101.76 38.5358C103.496 46.5355 100.159 54.3073 94.4934 60.4843C93.8388 61.198 93.1495 61.895 92.428 62.5739C93.1844 63.2395 93.8662 63.9885 94.459 64.8064C96.2275 62.3664 98.7874 60.5403 101.761 59.7072C96.4393 78.6444 79.0442 92.5284 58.4062 92.5284C46.0598 92.5284 34.874 87.5596 26.7395 79.5125L25.8398 80.6889C34.2289 88.9223 45.7259 94 58.4089 94Z" fill="#FF85E4"/>
<path fill-rule="evenodd" clip-rule="evenodd" d="M9.63523 37.2187L8.97622 55.5861C5.53949 59.4192 4.60735 62.1226 5.13922 64.1126C5.6015 65.8423 7.29034 67.4842 10.9338 68.9326L15.1126 79.1773C15.4183 79.8823 16.0806 80.3645 16.8419 80.4365L20.5408 80.7861C21.2596 80.8541 21.9627 80.5461 22.4029 79.9705L28.0796 72.5479C28.7454 72.6263 29.4288 72.7027 30.1302 72.777C39.2339 73.7423 47.1173 73.9825 54.0372 73.5623C56.4615 76.8032 60.6817 78.4155 64.8165 77.3046L74.6643 74.6589C77.3837 73.9282 78.9994 71.1184 78.2731 68.383C78.2394 68.2558 78.2075 68.1294 78.1768 68.004C91.5652 61.7166 100.903 50.2231 98.4757 39.0393C94.3521 26.1061 75.6729 21.0947 58.1833 25.5253C48.8429 27.8915 38.5156 32.8694 26.2484 41.3845L18.6538 32.9308C18.0019 32.2051 16.9403 32.0242 16.0871 32.4933L10.7273 35.4402C10.0769 35.7978 9.66197 36.4736 9.63523 37.2187ZM9.47409 57.9268C9.66659 57.6903 9.87072 57.4481 10.0869 57.2L29.219 46.054C29.6333 45.8126 29.7221 45.2512 29.4023 44.8952L27.5293 42.8103C39.589 34.4627 49.6459 29.6505 58.6481 27.3699C67.095 25.2301 75.7753 25.3891 82.7703 27.5865C88.2605 29.3112 92.5632 32.231 95.0407 36.1466C88.8796 33.5729 75.1663 34.4655 61.3442 38.0853C51.0935 40.7698 39.2506 45.1326 24.4198 51.9417C15.2349 56.1586 10.0579 59.0147 7.46114 60.9669C7.85121 60.1452 8.4842 59.1429 9.47409 57.9268ZM61.8238 39.9261C70.4182 37.6754 78.9169 36.51 85.4703 36.5789C88.7577 36.6135 91.4535 36.9583 93.397 37.5725C95.2035 38.1435 96.0158 38.8312 96.3261 39.383C96.3326 40.0164 95.9721 41.0193 94.6924 42.4192C93.3156 43.9254 91.1529 45.5754 88.3232 47.2532C82.6821 50.598 74.7409 53.8488 66.1754 56.2078C56.098 58.9831 43.7818 61.1265 27.613 62.6572C19.1883 63.4548 13.7831 63.6572 10.4676 63.4827C9.2408 63.4181 8.36565 63.3045 7.7608 63.1745C8.21979 62.7587 8.92103 62.2216 9.9513 61.5507C12.7355 59.7376 17.5175 57.2034 25.2112 53.671C39.9773 46.8917 51.7124 42.5741 61.8238 39.9261Z" fill="#9F0492"/>
<path d="M1 98H3.57664V111.17C3.57664 112.677 3.95837 113.851 4.72182 114.691C5.50436 115.512 6.57319 115.922 7.92831 115.922C9.34069 115.922 10.4477 115.521 11.2493 114.72C12.0509 113.899 12.4518 112.715 12.4518 111.17C12.4518 109.7 12.0128 108.545 11.1348 107.705C10.2759 106.846 9.14029 106.417 7.72791 106.417C6.52547 106.417 5.48527 106.761 4.6073 107.448V104.871C5.65705 104.298 6.79268 104.012 8.0142 104.012C10.0373 104.012 11.7074 104.671 13.0243 105.988C14.3604 107.285 15.0284 109.013 15.0284 111.17C15.0284 113.441 14.3318 115.206 12.9385 116.466C11.5642 117.707 9.82739 118.327 7.72791 118.327C5.72385 118.327 4.10152 117.678 2.86091 116.38C1.6203 115.082 1 113.345 1 111.17V98Z" fill="#9F0492"/>
<path d="M21.7485 118.041H19.2291V106.703H16.8815L18.0267 104.298H21.7485V118.041ZM19.1146 101.436C18.8665 101.111 18.7424 100.758 18.7424 100.376C18.7424 99.9945 18.8665 99.651 19.1146 99.3456C19.3627 99.0211 19.7444 98.8589 20.2597 98.8589C20.7751 98.8589 21.1568 99.0211 21.4049 99.3456C21.653 99.651 21.7771 99.9945 21.7771 100.376C21.7771 100.758 21.653 101.111 21.4049 101.436C21.1568 101.741 20.7751 101.894 20.2597 101.894C19.7444 101.894 19.3627 101.741 19.1146 101.436Z" fill="#9F0492"/>
<path d="M24.144 106.703L29.2686 101.579V104.298H33.1336V106.703H29.2686V112.601C29.2686 113.269 29.3736 113.822 29.5835 114.261C29.8126 114.7 30.137 115.015 30.5569 115.206C30.9768 115.378 31.3681 115.493 31.7307 115.55C32.1125 115.607 32.5801 115.636 33.1336 115.636V118.041C30.9387 118.041 29.3163 117.621 28.2666 116.781C27.2168 115.941 26.692 114.548 26.692 112.601V106.703H24.144Z" fill="#9F0492"/>
<path d="M45.2545 115.034L46.9723 116.724C45.6554 117.792 44.1475 118.327 42.4489 118.327C40.3303 118.327 38.6316 117.649 37.3528 116.294C36.0741 114.92 35.4347 113.212 35.4347 111.17C35.4347 109.165 36.1027 107.476 37.4387 106.102C38.7938 104.709 40.4639 104.012 42.4489 104.012C44.1475 104.012 45.6554 104.547 46.9723 105.615L45.2832 107.333C44.4815 106.722 43.5368 106.417 42.4489 106.417C41.1319 106.417 40.0822 106.856 39.2996 107.734C38.5362 108.593 38.1545 109.738 38.1545 111.17C38.1545 112.601 38.5362 113.756 39.2996 114.634C40.0822 115.493 41.1319 115.922 42.4489 115.922C43.5559 115.922 44.4911 115.626 45.2545 115.034Z" fill="#9F0492"/>
<path d="M48.9665 118.041V110.225C48.9665 108.03 49.3769 106.512 50.1976 105.673C50.5984 105.253 51.0851 104.938 51.6577 104.728C52.2303 104.518 52.7265 104.394 53.1464 104.356C53.5854 104.318 54.1771 104.298 54.9214 104.298H57.4408V106.703H54.4061C54.0244 106.703 53.7285 106.713 53.5186 106.732C53.3086 106.751 53.0605 106.818 52.7742 106.932C52.4879 107.047 52.2398 107.228 52.0299 107.476C51.6672 107.934 51.4859 108.851 51.4859 110.225V118.041H48.9665Z" fill="#9F0492"/>
<path d="M60.8678 106.102C62.2039 104.709 63.8739 104.012 65.878 104.012C66.8514 104.012 67.758 104.203 68.5978 104.585C69.4567 104.947 70.201 105.453 70.8309 106.102C71.4798 106.751 71.9856 107.514 72.3482 108.392C72.7109 109.251 72.8922 110.177 72.8922 111.17C72.8922 112.162 72.7109 113.097 72.3482 113.975C72.0047 114.834 71.518 115.588 70.8881 116.237C70.2583 116.886 69.5139 117.401 68.655 117.783C67.7962 118.146 66.8705 118.327 65.878 118.327C64.8664 118.327 63.9312 118.146 63.0723 117.783C62.2325 117.401 61.4977 116.886 60.8678 116.237C60.238 115.588 59.7418 114.834 59.3791 113.975C59.0356 113.097 58.8638 112.162 58.8638 111.17C58.8638 109.146 59.5318 107.457 60.8678 106.102ZM65.878 106.417C64.542 106.417 63.4636 106.856 62.6429 107.734C61.8412 108.612 61.4404 109.757 61.4404 111.17C61.4404 112.582 61.8412 113.727 62.6429 114.605C63.4636 115.483 64.542 115.922 65.878 115.922C67.2331 115.922 68.3115 115.483 69.1131 114.605C69.9147 113.708 70.3155 112.563 70.3155 111.17C70.3155 109.776 69.9147 108.641 69.1131 107.763C68.3115 106.866 67.2331 106.417 65.878 106.417Z" fill="#9F0492"/>
<path d="M87.9535 118.327C86.5411 117.239 85.5963 116.141 85.1192 115.034C84.642 113.927 84.2889 112.296 84.0599 110.139H83.7736C83.5446 112.296 83.1915 113.927 82.7143 115.034C82.2371 116.141 81.2924 117.239 79.88 118.327C78.563 117.678 77.5133 116.504 76.7308 114.805C75.9673 113.107 75.5188 111.007 75.3852 108.507L75.1848 104.298H77.7328L77.9618 108.392C78.1336 111.523 78.7539 113.794 79.8227 115.206C80.109 114.882 80.3762 114.519 80.6244 114.118C80.8725 113.718 81.0824 113.279 81.2542 112.801C81.426 112.305 81.5691 111.876 81.6836 111.513C81.8173 111.131 81.9318 110.654 82.0272 110.082C82.1417 109.49 82.2181 109.06 82.2562 108.793C82.2944 108.526 82.3421 108.097 82.3994 107.505C82.4757 106.913 82.5234 106.579 82.5425 106.503H85.2909C85.31 106.579 85.3482 106.913 85.4055 107.505C85.4818 108.097 85.5391 108.526 85.5772 108.793C85.6154 109.06 85.6822 109.49 85.7776 110.082C85.8922 110.654 86.0067 111.131 86.1212 111.513C86.2548 111.876 86.4075 112.305 86.5793 112.801C86.751 113.279 86.961 113.718 87.2091 114.118C87.4572 114.519 87.7244 114.882 88.0107 115.206C89.0796 113.794 89.6999 111.523 89.8717 108.392L90.1007 104.298H92.6487L92.4483 108.507C92.3147 111.007 91.8566 113.107 91.0741 114.805C90.3106 116.504 89.2704 117.678 87.9535 118.327Z" fill="#9F0492"/>
<path d="M109 98.0001H106.423V111.17C106.423 112.677 106.042 113.851 105.278 114.691C104.496 115.512 103.427 115.922 102.072 115.922C100.659 115.922 99.5523 115.521 98.7507 114.72C97.9491 113.899 97.5483 112.716 97.5483 111.17C97.5483 109.7 97.9872 108.545 98.8652 107.705C99.7241 106.847 100.86 106.417 102.272 106.417C103.475 106.417 104.515 106.761 105.393 107.448V104.871C104.343 104.299 103.207 104.012 101.986 104.012C99.9627 104.012 98.2926 104.671 96.9757 105.988C95.6396 107.286 94.9716 109.013 94.9716 111.17C94.9716 113.441 95.6683 115.206 97.0616 116.466C98.4358 117.707 100.173 118.327 102.272 118.327C104.276 118.327 105.898 117.678 107.139 116.38C108.38 115.082 109 113.345 109 111.17V98.0001Z" fill="#9F0492"/>
</svg>
