<?xml version="1.0" encoding="UTF-8" standalone="no"?>
<!-- Created with Inkscape (http://www.inkscape.org/) -->

<svg
   xmlns:dc="http://purl.org/dc/elements/1.1/"
   xmlns:cc="http://creativecommons.org/ns#"
   xmlns:rdf="http://www.w3.org/1999/02/22-rdf-syntax-ns#"
   xmlns:svg="http://www.w3.org/2000/svg"
   xmlns="http://www.w3.org/2000/svg"
   xmlns:xlink="http://www.w3.org/1999/xlink"
   xmlns:sodipodi="http://sodipodi.sourceforge.net/DTD/sodipodi-0.dtd"
   xmlns:inkscape="http://www.inkscape.org/namespaces/inkscape"
   id="svg3698"
   version="1.1"
   inkscape:version="0.48.4 r9939"
   width="2500"
   height="2500"
   xml:space="preserve"
   sodipodi:docname="code-change-no-opacity.svg"
   inkscape:export-filename="/home/kero/CodeChange/logo/code-change-no-opacity-32.png"
   inkscape:export-xdpi="1.152"
   inkscape:export-ydpi="1.152"><metadata
     id="metadata3704"><rdf:RDF><cc:Work
         rdf:about=""><dc:format>image/svg+xml</dc:format><dc:type
           rdf:resource="http://purl.org/dc/dcmitype/StillImage" /><dc:title></dc:title></cc:Work></rdf:RDF></metadata><defs
     id="defs3702"><clipPath
       clipPathUnits="userSpaceOnUse"
       id="clipPath3712"><path
         d="m 0,2000 2000,0 L 2000,0 0,0 0,2000 z"
         id="path3714" /></clipPath><clipPath
       clipPathUnits="userSpaceOnUse"
       id="clipPath3776"><path
         d="m 0,2000 2000,0 L 2000,0 0,0 0,2000 z"
         id="path3778" /></clipPath><clipPath
       clipPathUnits="userSpaceOnUse"
       id="clipPath3784"><path
         d="m 963.809,1337.92 604.741,0 0,-687.717 -604.741,0 0,687.717 z"
         id="path3786" /></clipPath><clipPath
       clipPathUnits="userSpaceOnUse"
       id="clipPath3788"><path
         d="m 1336.085,1029.468 c -14.603,-21.772 -39.28,-36 -68.543,-36.051 -46.286,-0.082 -82.542,36.416 -83.209,82.916 -0.663,46.281 36.324,83.546 82.605,84.23 36.218,0.534 66.05,-21.846 77.882,-53.281 l 18.18,41.051 200.639,-52.548 c -28.738,80.932 -89.018,148.781 -167.139,191.882 -57.133,31.521 -123.22,50.25 -194.712,50.25 -49.086,0 -95.999,-8.546 -139.077,-24.104 -60.661,-53.808 -98.902,-131.92 -98.902,-218.72 0,-161.925 133.038,-293.66 296.564,-293.66 57.493,0 112.736,16.12 160.612,46.749 l -121.905,-195.253 1.248,-2.726 c 130.128,31.875 232.592,125.869 268.223,245.177 L 1457,1027 l -120.915,2.468 z"
         id="path3790" /></clipPath><clipPath
       clipPathUnits="userSpaceOnUse"
       id="clipPath3792"><path
         d="m -32768,32767 65535,0 0,-65535 -65535,0 0,65535 z"
         id="path3794" /></clipPath><linearGradient
       x1="0"
       y1="0"
       x2="1"
       y2="0"
       gradientUnits="userSpaceOnUse"
       gradientTransform="matrix(359.00595,-386.47089,-386.47089,-359.00595,1113.4197,1220.2468)"
       spreadMethod="pad"
       id="linearGradient3796"><stop
         style="stop-opacity:0;stop-color:#ffffff"
         offset="0"
         id="stop3798" /><stop
         style="stop-opacity:1;stop-color:#ffffff"
         offset="0.625"
         id="stop3800" /><stop
         style="stop-opacity:1;stop-color:#ffffff"
         offset="0.625"
         id="stop3802" /><stop
         style="stop-opacity:1;stop-color:#ffffff"
         offset="1"
         id="stop3804" /></linearGradient><mask
       maskUnits="userSpaceOnUse"
       x="0"
       y="0"
       width="1"
       height="1"
       id="mask3806"><g
         id="g3808"><g
           clip-path="url(#clipPath3792)"
           id="g3810"><g
             id="g3812"><g
               id="g3814"><path
                 d="m -32768,32767 65535,0 0,-65535 -65535,0 0,65535 z"
                 style="fill:url(#linearGradient3796);stroke:none"
                 id="path3816" /></g></g></g></g></mask><linearGradient
       x1="0"
       y1="0"
       x2="1"
       y2="0"
       gradientUnits="userSpaceOnUse"
       gradientTransform="matrix(359.00595,-386.47089,-386.47089,-359.00595,1113.4197,1220.2468)"
       spreadMethod="pad"
       id="linearGradient3818"><stop
         style="stop-color:#ffffff;stop-opacity:0.02631579;"
         offset="0"
         id="stop3820" /><stop
         style="stop-color:#bfd1c4;stop-opacity:1;"
         offset="1"
         id="stop3826" /></linearGradient><clipPath
       clipPathUnits="userSpaceOnUse"
       id="clipPath3850"><path
         d="m 1345.52,1120.33 236.62,0 0,-210.872 -236.62,0 0,210.872 z"
         id="path3852" /></clipPath><clipPath
       clipPathUnits="userSpaceOnUse"
       id="clipPath3854"><path
         d="m 1567.285,1084.907 -154.952,35.426 -63.374,-28.166 c 0.873,-4.927 1.351,-9.992 1.351,-15.17 0,-10.075 -1.68,-19.718 -4.792,-28.644 l 92.149,37.98 134.747,-176.875 c 6.356,25.385 9.729,51.812 9.729,78.953 0,33.512 -5.194,65.877 -14.858,96.496"
         id="path3856" /></clipPath><clipPath
       clipPathUnits="userSpaceOnUse"
       id="clipPath3858"><path
         d="m -32768,32767 65535,0 0,-65535 -65535,0 0,65535 z"
         id="path3860" /></clipPath><linearGradient
       x1="0"
       y1="0"
       x2="1"
       y2="0"
       gradientUnits="userSpaceOnUse"
       gradientTransform="matrix(359.00595,-386.47089,-386.47089,-359.00595,1220.9296,1320.1163)"
       spreadMethod="pad"
       id="linearGradient3862"><stop
         style="stop-opacity:0;stop-color:#ffffff"
         offset="0"
         id="stop3864" /><stop
         style="stop-opacity:1;stop-color:#ffffff"
         offset="0.625"
         id="stop3866" /><stop
         style="stop-opacity:1;stop-color:#ffffff"
         offset="0.625"
         id="stop3868" /><stop
         style="stop-opacity:1;stop-color:#ffffff"
         offset="1"
         id="stop3870" /></linearGradient><mask
       maskUnits="userSpaceOnUse"
       x="0"
       y="0"
       width="1"
       height="1"
       id="mask3872"><g
         id="g3874"><g
           clip-path="url(#clipPath3858)"
           id="g3876"><g
             id="g3878"><g
               id="g3880"><path
                 d="m -32768,32767 65535,0 0,-65535 -65535,0 0,65535 z"
                 style="fill:url(#linearGradient3862);stroke:none"
                 id="path3882" /></g></g></g></g></mask><linearGradient
       x1="0"
       y1="0"
       x2="1"
       y2="0"
       gradientUnits="userSpaceOnUse"
       gradientTransform="matrix(359.00595,-386.47089,-386.47089,-359.00595,1220.9296,1320.1163)"
       spreadMethod="pad"
       id="linearGradient3884"><stop
         style="stop-opacity:1;stop-color:#ffffff"
         offset="0"
         id="stop3886" /><stop
         style="stop-opacity:1;stop-color:#365e3c"
         offset="0.625"
         id="stop3888" /><stop
         style="stop-opacity:1;stop-color:#365e3c"
         offset="0.625"
         id="stop3890" /><stop
         style="stop-opacity:1;stop-color:#2d4533"
         offset="1"
         id="stop3892" /></linearGradient><clipPath
       clipPathUnits="userSpaceOnUse"
       id="clipPath3916"><path
         d="m 671.333,1146.198 c 0,-278.72 230.667,-494.667 509.706,-504.667 l 0,0 c 11.761,-0.421 82.711,-0.072 119.909,8.823 l 0,0 129.544,207.485 c -47.987,-33.786 -106.668,-53.655 -170.036,-53.655 l 0,0 c -162.222,0 -293.729,130.207 -293.729,290.825 l 0,0 c 0,160.618 131.507,290.825 293.729,290.825 l 0,0 c 56.694,0 109.626,-15.92 154.514,-43.467 l 0,0 -114.153,298.476 c 0,0 -37.817,10.021 -119.778,10.021 l 0,0 c -281.503,0 -509.706,-225.947 -509.706,-504.666"
         id="path3918" /></clipPath><linearGradient
       x1="0"
       y1="0"
       x2="1"
       y2="0"
       gradientUnits="userSpaceOnUse"
       gradientTransform="matrix(0,-1009.4448,-1009.4448,0,1050.9127,1650.8641)"
       spreadMethod="pad"
       id="linearGradient3924"><stop
         style="stop-opacity:1;stop-color:#ffffff"
         offset="0"
         id="stop3926" /><stop
         style="stop-opacity:1;stop-color:#365e3c"
         offset="0.688172"
         id="stop3928" /><stop
         style="stop-opacity:1;stop-color:#2d4533"
         offset="1"
         id="stop3930" /></linearGradient><clipPath
       clipPathUnits="userSpaceOnUse"
       id="clipPath3938"><path
         d="m 1086.772,1635.129 c -53.154,-9.824 -103.635,-28.023 -148.682,-53.142 l 0,0 C 904.425,1563.645 873.383,1541.736 845.833,1517 l 0,0 c 42.398,-61.711 160.007,-104.151 300.115,-104.151 l 0,0 c 84.428,0 161.361,16.196 218.302,42.526 l 0,0 -68.667,179.458 c 0,0 -35.539,9.084 -117.5,9.084 l 0,0 c -1.829,0.029 -3.66,0.044 -5.488,0.044 l 0,0 c -28.991,0 -57.852,-3.663 -85.823,-8.832"
         id="path3940" /></clipPath><clipPath
       clipPathUnits="userSpaceOnUse"
       id="clipPath3946"><path
         d="m -32768,32767 65535,0 0,-65535 -65535,0 0,65535 z"
         id="path3948" /></clipPath><linearGradient
       x1="0"
       y1="0"
       x2="1"
       y2="0"
       gradientUnits="userSpaceOnUse"
       gradientTransform="matrix(-16.181219,192.15198,192.15198,16.181219,1108.7982,1441.5779)"
       spreadMethod="pad"
       id="linearGradient3950"><stop
         style="stop-opacity:0;stop-color:#ffffff"
         offset="0"
         id="stop3952" /><stop
         style="stop-opacity:1;stop-color:#ffffff"
         offset="1"
         id="stop3954" /></linearGradient><mask
       maskUnits="userSpaceOnUse"
       x="0"
       y="0"
       width="1"
       height="1"
       id="mask3956"><g
         id="g3958"><g
           clip-path="url(#clipPath3946)"
           id="g3960"><g
             id="g3962"><g
               id="g3964"><path
                 d="m -32768,32767 65535,0 0,-65535 -65535,0 0,65535 z"
                 style="fill:url(#linearGradient3950);stroke:none"
                 id="path3966" /></g></g></g></g></mask><linearGradient
       x1="0"
       y1="0"
       x2="1"
       y2="0"
       gradientUnits="userSpaceOnUse"
       gradientTransform="matrix(-16.181219,192.15198,192.15198,16.181219,1108.7982,1441.5779)"
       spreadMethod="pad"
       id="linearGradient3972"><stop
         style="stop-opacity:1;stop-color:#ffffff"
         offset="0"
         id="stop3974" /><stop
         style="stop-opacity:1;stop-color:#ffffff"
         offset="1"
         id="stop3976" /></linearGradient><clipPath
       clipPathUnits="userSpaceOnUse"
       id="clipPath3984"><path
         d="m 826.537,991.676 c 0,-45.322 10.582,-90.118 29.147,-129.077 l 0,0 C 900.438,768.681 965.858,714.276 1035.822,681.1 l 0,0 c 88.699,-42.059 184.89,-40.746 264.612,-30.423 l 0,0 129.964,207.027 c -47.987,-33.787 -108.676,-59.329 -172.044,-59.329 l 0,0 c -119.884,0 -226.47,73.038 -271.333,175.333 l 0,0 c -33.274,75.869 -33.956,156.11 -5.75,229.584 l 0,0 c 20.25,52.75 64.562,105.165 100.312,130.999 l 0,0 c -162.25,-56.667 -255.046,-185.3 -255.046,-342.615"
         id="path3986" /></clipPath><linearGradient
       x1="0"
       y1="0"
       x2="1"
       y2="0"
       gradientUnits="userSpaceOnUse"
       gradientTransform="matrix(0,-689.67029,-689.67029,0,1128.4678,1334.2916)"
       spreadMethod="pad"
       id="linearGradient3992"><stop
         style="stop-opacity:1;stop-color:#ffffff"
         offset="0"
         id="stop3994" /><stop
         style="stop-opacity:1;stop-color:#365e3c"
         offset="0.891381"
         id="stop3996" /><stop
         style="stop-opacity:1;stop-color:#2d4533"
         offset="1"
         id="stop3998" /></linearGradient><clipPath
       clipPathUnits="userSpaceOnUse"
       id="clipPath4006"><path
         d="m 816.516,999.255 c 0,-45.323 8.995,-88.674 25.447,-128.572 l 0,0 c 55.014,-133.41 193.418,-228.194 357.759,-228.861 l 0,0 0.167,0.168 c -20.609,1.163 -40.841,3.875 -60.583,8.004 l 0,0 c -34.698,5.328 -69.636,15.056 -103.484,31.106 l 0,0 c -69.964,33.176 -135.384,87.581 -180.138,181.499 l 0,0 c -18.565,38.959 -29.147,83.755 -29.147,129.077 l 0,0 c 0,152.418 87.11,277.911 240.097,337.116 l 0,0 c 4.92,1.923 9.893,3.769 14.928,5.52 l 0,0 c 3.125,2.126 9.271,6.521 9.271,6.521 l 0,0 C 934.018,1294.948 816.516,1158.899 816.516,999.255"
         id="path4008" /></clipPath><linearGradient
       x1="0"
       y1="0"
       x2="1"
       y2="0"
       gradientUnits="userSpaceOnUse"
       gradientTransform="matrix(0,699.01074,699.01074,0,1008.2025,641.82263)"
       spreadMethod="pad"
       id="linearGradient4014"><stop
         style="stop-opacity:1;stop-color:#365e3c"
         offset="0"
         id="stop4016" /><stop
         style="stop-opacity:1;stop-color:#b8c1b1"
         offset="0.235294"
         id="stop4018" /><stop
         style="stop-opacity:1;stop-color:#ffffff"
         offset="0.417112"
         id="stop4020" /><stop
         style="stop-opacity:1;stop-color:#c8cfc3"
         offset="0.807487"
         id="stop4022" /><stop
         style="stop-opacity:1;stop-color:#c8cfc3"
         offset="0.807487"
         id="stop4024" /><stop
         style="stop-opacity:1;stop-color:#9fac96"
         offset="1"
         id="stop4026" /></linearGradient><clipPath
       clipPathUnits="userSpaceOnUse"
       id="clipPath4034"><path
         d="m 0,2000 2000,0 L 2000,0 0,0 0,2000 z"
         id="path4036" /></clipPath><clipPath
       clipPathUnits="userSpaceOnUse"
       id="clipPath4046"><path
         d="m 1038.996,1094 c 0,-126.475 102.529,-229.004 229.004,-229.004 l 0,0 c 50.429,0 97.04,16.314 134.873,43.932 l 0,0 L 1302,996.892 c -10.445,-4.439 -21.935,-6.896 -34,-6.896 l 0,0 c -48.051,0 -87.004,38.953 -87.004,87.004 l 0,0 c 0,48.05 38.953,87.003 87.004,87.003 l 0,0 c 12.065,0 23.555,-2.457 34,-6.896 l 0,0 90.074,129.395 c -35.753,23.092 -78.346,36.502 -124.074,36.502 l 0,0 c -126.475,0 -229.004,-102.528 -229.004,-229.004"
         id="path4048" /></clipPath><linearGradient
       x1="0"
       y1="0"
       x2="1"
       y2="0"
       gradientUnits="userSpaceOnUse"
       gradientTransform="matrix(0,458.00726,458.00726,0,1220.9349,864.99634)"
       spreadMethod="pad"
       id="linearGradient4054"><stop
         style="stop-opacity:1;stop-color:#ffffff"
         offset="0"
         id="stop4056" /><stop
         style="stop-opacity:1;stop-color:#365e3c"
         offset="0.688172"
         id="stop4058" /><stop
         style="stop-opacity:1;stop-color:#2d4533"
         offset="1"
         id="stop4062" /></linearGradient><clipPath
       clipPathUnits="userSpaceOnUse"
       id="clipPath4070"><path
         d="m 0,2000 2000,0 L 2000,0 0,0 0,2000 z"
         id="path4072" /></clipPath><clipPath
       clipPathUnits="userSpaceOnUse"
       id="clipPath4078"><path
         d="m 1121.48,1323 270.59,0 0,-106.88 -270.59,0 0,106.88 z"
         id="path4080" /></clipPath><clipPath
       clipPathUnits="userSpaceOnUse"
       id="clipPath4082"><path
         d="m 1288.804,1216.118 c 20.071,0 39.384,1.609 57.458,4.574 l 45.812,65.811 c -35.753,23.091 -78.346,36.501 -124.074,36.501 -55.736,0 -106.814,-19.92 -146.523,-53.017 28.668,-31.754 92.803,-53.869 167.327,-53.869"
         id="path4084" /></clipPath><clipPath
       clipPathUnits="userSpaceOnUse"
       id="clipPath4086"><path
         d="m -32768,32767 65535,0 0,-65535 -65535,0 0,65535 z"
         id="path4088" /></clipPath><linearGradient
       x1="0"
       y1="0"
       x2="1"
       y2="0"
       gradientUnits="userSpaceOnUse"
       gradientTransform="matrix(-7.7099771,91.555977,91.555977,7.7099771,1260.9442,1228.7388)"
       spreadMethod="pad"
       id="linearGradient4090"><stop
         style="stop-opacity:0;stop-color:#ffffff"
         offset="0"
         id="stop4092" /><stop
         style="stop-opacity:1;stop-color:#ffffff"
         offset="1"
         id="stop4094" /></linearGradient><mask
       maskUnits="userSpaceOnUse"
       x="0"
       y="0"
       width="1"
       height="1"
       id="mask4096"><g
         id="g4098"><g
           clip-path="url(#clipPath4086)"
           id="g4100"><g
             id="g4102"><g
               id="g4104"><path
                 d="m -32768,32767 65535,0 0,-65535 -65535,0 0,65535 z"
                 style="fill:url(#linearGradient4090);stroke:none"
                 id="path4106" /></g></g></g></g></mask><linearGradient
       x1="0"
       y1="0"
       x2="1"
       y2="0"
       gradientUnits="userSpaceOnUse"
       gradientTransform="matrix(-7.7099771,91.555977,91.555977,7.7099771,1260.9442,1228.7388)"
       spreadMethod="pad"
       id="linearGradient4108"><stop
         style="stop-opacity:1;stop-color:#ffffff"
         offset="0"
         id="stop4110" /><stop
         style="stop-opacity:1;stop-color:#ffffff"
         offset="1"
         id="stop4112" /></linearGradient><clipPath
       clipPathUnits="userSpaceOnUse"
       id="clipPath4136"><path
         d="m 0,2000 2000,0 L 2000,0 0,0 0,2000 z"
         id="path4138" /></clipPath><linearGradient
       inkscape:collect="always"
       xlink:href="#linearGradient3818"
       id="linearGradient6758"
       gradientUnits="userSpaceOnUse"
       gradientTransform="matrix(359.00595,-386.47089,-386.47089,-359.00595,1113.4197,1220.2468)"
       spreadMethod="pad"
       x1="-0.053234827"
       y1="0.0064172209"
       x2="0.37682697"
       y2="0.13881338" /></defs><sodipodi:namedview
     pagecolor="#ffffff"
     bordercolor="#666666"
     borderopacity="1"
     objecttolerance="10"
     gridtolerance="10"
     guidetolerance="10"
     inkscape:pageopacity="0"
     inkscape:pageshadow="2"
     inkscape:window-width="1918"
     inkscape:window-height="1059"
     id="namedview3700"
     showgrid="false"
     inkscape:zoom="0.48166683"
     inkscape:cx="1145.4321"
     inkscape:cy="1322.4039"
     inkscape:window-x="0"
     inkscape:window-y="0"
     inkscape:window-maximized="0"
     inkscape:current-layer="g3706" /><g
     id="g3706"
     inkscape:groupmode="layer"
     inkscape:label="CodeChange_FINAL"
     transform="matrix(1.25,0,0,-1.25,0,2500)"><g
       id="g3708"><g
         id="g3710"
         clip-path="url(#clipPath3712)"><g
           id="g3716"
           transform="translate(887.9958,467.1083)"><path
             inkscape:connector-curvature="0"
             d="m 0,0 c 0,-11.389 6.613,-20.361 19.84,-26.913 13.227,-6.554 29.816,-9.831 49.774,-9.831 20.327,0 37.056,3.309 50.191,9.927 13.134,6.618 19.701,16.009 19.701,28.171 0,7.692 -2.808,14.407 -8.423,20.144 -5.618,5.738 -13.832,10.186 -24.644,13.344 C 95.626,38.001 83.488,39.58 70.031,39.58 50.909,39.58 34.459,36.54 20.675,30.459 6.892,24.377 0,14.224 0,0 m -27.846,0.193 c 0,15.686 9.097,27.967 27.289,36.841 18.191,8.874 41.676,13.312 70.449,13.312 18.842,0 35.828,-2.085 50.958,-6.253 15.127,-4.169 26.662,-9.982 34.598,-17.437 7.936,-7.457 11.904,-15.913 11.904,-25.367 0,-9.583 -4.177,-18.157 -12.531,-25.721 -8.354,-7.564 -20.188,-13.29 -35.503,-17.179 -15.315,-3.89 -31.837,-5.834 -49.565,-5.834 -19.213,0 -36.387,2.149 -51.514,6.446 -15.13,4.297 -26.593,10.163 -34.389,17.599 -7.797,7.435 -11.696,15.299 -11.696,23.593"
             style="fill:#373535;fill-opacity:1;fill-rule:nonzero;stroke:none"
             id="path3718" /></g><g
           id="g3720"
           transform="translate(1117.1643,432.4271)"><path
             inkscape:connector-curvature="0"
             d="m 0,0 43.578,0 c 13.457,0 24.017,0.58 31.675,1.741 7.657,1.16 13.76,2.793 18.308,4.899 6.404,2.965 11.393,6.951 14.967,11.958 3.571,5.005 5.36,11.077 5.36,18.211 0,9.884 -3.504,17.479 -10.512,22.787 -7.009,5.308 -15.523,8.864 -25.548,10.669 -7.24,1.289 -18.888,1.934 -34.946,1.934 L 0,72.199 0,0 z m -27.01,-11.152 0,94.503 70.31,0 c 15.872,0 27.985,-0.451 36.338,-1.354 11.695,-1.247 21.671,-3.503 29.934,-6.768 10.767,-4.213 18.817,-9.596 24.156,-16.148 5.337,-6.554 8.006,-14.044 8.006,-22.466 0,-7.178 -1.81,-13.537 -5.43,-19.081 C 132.684,11.99 128.041,7.403 122.381,3.771 116.719,0.139 110.524,-2.718 103.794,-4.803 97.063,-6.888 88.943,-8.467 79.429,-9.541 69.914,-10.615 58.984,-11.152 46.641,-11.152 l -73.651,0 z"
             style="fill:#373535;fill-opacity:1;fill-rule:nonzero;stroke:none"
             id="path3722" /></g><g
           id="g3724"
           transform="translate(885.0862,201)"><path
             inkscape:connector-curvature="0"
             d="m 0,0 0,94.353 27.706,0 107.205,-74.197 0,74.197 25.897,0 0,-94.503 -27.706,0 L 25.896,74.112 25.896,0 0,0 z"
             style="fill:#373535;fill-opacity:1;fill-rule:nonzero;stroke:none"
             id="path3726" /></g><g
           id="g3728"
           transform="translate(437.4893,222.9523)"><path
             inkscape:connector-curvature="0"
             d="m 0,0 c -14.842,-5.716 -32.965,-8.573 -54.369,-8.573 -17.6,0 -33.95,2.097 -49.05,6.293 -15.102,4.195 -26.232,10.534 -33.389,19.017 -7.16,8.482 -10.736,18.408 -10.736,29.778 0,8.816 3.021,17.375 9.062,25.675 6.038,8.3 16.514,14.912 31.419,19.837 14.903,4.925 33.455,7.388 55.649,7.388 19.305,0 35.327,-2.22 48.065,-6.658 6.875,-2.396 12.841,-5.59 17.957,-9.528 l 0,23.518 c -18.232,5.205 -39.978,7.808 -65.234,7.808 -25.48,0 -48.823,-2.69 -70.029,-8.071 -21.209,-5.382 -37.559,-13.257 -49.05,-23.623 -11.493,-10.367 -17.236,-22.514 -17.236,-36.437 0,-12.769 5.089,-24.717 15.266,-35.844 10.175,-11.127 25.018,-19.625 44.519,-25.492 19.502,-5.869 44.815,-8.802 75.939,-8.802 25.193,0 47.128,2.689 65.825,8.045 l 0,23.223 C 10.406,4.651 5.538,2.132 0,0"
             style="fill:#373535;fill-opacity:1;fill-rule:nonzero;stroke:none"
             id="path3730" /></g><g
           id="g3732"
           transform="translate(835.1187,443.3771)"><path
             inkscape:connector-curvature="0"
             d="m 0,0 c -14.842,-5.716 -32.965,-8.573 -54.369,-8.573 -17.6,0 -33.95,2.097 -49.05,6.293 -15.102,4.195 -26.232,10.534 -33.389,19.017 -7.16,8.482 -10.736,18.408 -10.736,29.778 0,8.816 3.021,17.375 9.062,25.675 6.038,8.3 16.514,14.912 31.419,19.837 14.903,4.925 33.455,7.388 55.649,7.388 19.305,0 35.327,-2.22 48.065,-6.658 6.875,-2.396 12.841,-5.59 17.957,-9.528 l 0,23.518 c -18.232,5.205 -39.978,7.808 -65.234,7.808 -25.48,0 -48.823,-2.69 -70.029,-8.071 -21.209,-5.382 -37.559,-13.257 -49.05,-23.623 -11.493,-10.367 -17.236,-22.514 -17.236,-36.437 0,-12.769 5.089,-24.717 15.266,-35.844 10.175,-11.127 25.018,-19.625 44.52,-25.492 19.501,-5.869 44.814,-8.802 75.938,-8.802 25.193,0 47.128,2.689 65.825,8.045 l 0,23.223 C 10.406,4.651 5.538,2.132 0,0"
             style="fill:#373535;fill-opacity:1;fill-rule:nonzero;stroke:none"
             id="path3734" /></g><g
           id="g3736"
           transform="translate(1227.8879,212.0024)"><path
             inkscape:connector-curvature="0"
             d="m 0,0 -43.578,0 c -13.457,0 -24.017,0.58 -31.675,1.741 -7.657,1.16 -13.76,2.793 -18.308,4.899 -6.404,2.965 -11.393,6.951 -14.967,11.958 -3.572,5.005 -5.36,11.077 -5.36,18.21 0,9.885 3.504,17.48 10.512,22.788 7.009,5.308 15.523,8.864 25.548,10.669 7.24,1.289 18.888,1.934 34.946,1.934 l 31.327,0 11.555,0 27.01,0 0,11.152 -70.31,0 c -15.872,0 -27.985,-0.451 -36.338,-1.354 -11.695,-1.247 -21.671,-3.503 -29.934,-6.768 -10.767,-4.213 -18.817,-9.596 -24.156,-16.148 -5.337,-6.554 -8.006,-14.044 -8.006,-22.466 0,-7.178 1.81,-13.537 5.43,-19.081 3.62,-5.544 8.263,-10.132 13.923,-13.763 5.662,-3.632 11.857,-6.489 18.587,-8.573 6.731,-2.086 14.851,-3.665 24.365,-4.739 9.515,-1.074 20.445,-1.611 32.788,-1.611 l 73.651,0 0,43.483 L 0,32.331 0,0 z"
             style="fill:#373535;fill-opacity:1;fill-rule:nonzero;stroke:none"
             id="path3738" /></g><g
           id="g3740"
           transform="translate(1304.6287,515.7781)"><path
             inkscape:connector-curvature="0"
             d="m 0,0 0,-11.152 91.292,0 L 81.392,0 0,0 z"
             style="fill:#373535;fill-opacity:1;fill-rule:nonzero;stroke:none"
             id="path3742" /></g><g
           id="g3744"
           transform="translate(1304.6287,475.6819)"><path
             inkscape:connector-curvature="0"
             d="m 0,0 0,-11.088 126.832,0 L 116.988,0 0,0 z"
             style="fill:#373535;fill-opacity:1;fill-rule:nonzero;stroke:none"
             id="path3746" /></g><g
           id="g3748"
           transform="translate(1304.6287,432.427)"><path
             inkscape:connector-curvature="0"
             d="m 0,0 0,-11.152 165.29,0 L 155.389,0 0,0 z"
             style="fill:#373535;fill-opacity:1;fill-rule:nonzero;stroke:none"
             id="path3750" /></g><g
           id="g3752"
           transform="translate(1304.6287,200.8502)"><path
             inkscape:connector-curvature="0"
             d="m 0,0 0,11.152 91.292,0 L 81.392,0 0,0 z"
             style="fill:#373535;fill-opacity:1;fill-rule:nonzero;stroke:none"
             id="path3754" /></g><g
           id="g3756"
           transform="translate(1304.6287,240.9464)"><path
             inkscape:connector-curvature="0"
             d="m 0,0 0,11.088 126.832,0 L 116.988,0 0,0 z"
             style="fill:#373535;fill-opacity:1;fill-rule:nonzero;stroke:none"
             id="path3758" /></g><g
           id="g3760"
           transform="translate(1304.6287,284.2012)"><path
             inkscape:connector-curvature="0"
             d="m 0,0 0,11.152 165.29,0 L 155.389,0 0,0 z"
             style="fill:#373535;fill-opacity:1;fill-rule:nonzero;stroke:none"
             id="path3762" /></g><g
           id="g3764"
           transform="translate(513.1044,295.2979)"><path
             inkscape:connector-curvature="0"
             d="m 0,0 0,-43.11 105.498,0 0,43.11 28.478,0 0,-94.162 -28.478,0 0,39.77 -105.498,0 0,-39.77 -28.155,0 0,94.162 L 0,0 z"
             style="fill:#373535;fill-opacity:1;fill-rule:nonzero;stroke:none"
             id="path3766" /></g><g
           id="g3768"
           transform="translate(782.8924,295.0118)"><path
             inkscape:connector-curvature="0"
             d="m 0,0 -15.892,0 -0.558,0 -15.892,0 -74.108,-94.162 29.125,0 29.804,39.118 26.855,35.246 8.99,0 26.854,-35.246 29.805,-39.118 29.125,0 L 0,0 z"
             style="fill:#373535;fill-opacity:1;fill-rule:nonzero;stroke:none"
             id="path3770" /></g></g></g><g
       id="g4390"><g
         id="g4315"><path
           d="m 1336.085,1029.468 c -14.603,-21.772 -39.28,-36 -68.543,-36.051 -46.286,-0.082 -82.542,36.416 -83.209,82.916 -0.663,46.281 36.324,83.546 82.605,84.23 36.218,0.534 66.05,-21.846 77.882,-53.281 l 18.18,41.051 200.639,-52.548 c -28.738,80.932 -89.018,148.781 -167.139,191.882 -57.133,31.521 -123.22,50.25 -194.712,50.25 -49.086,0 -95.999,-8.546 -139.077,-24.104 -60.661,-53.808 -98.902,-131.92 -98.902,-218.72 0,-161.925 133.038,-293.66 296.564,-293.66 57.493,0 112.736,16.12 160.612,46.749 l -121.905,-195.253 1.248,-2.726 c 130.128,31.875 232.592,125.869 268.223,245.177 L 1457,1027 l -120.915,2.468 z"
           style="fill:url(#linearGradient6758);stroke:none;fill-opacity:1"
           id="path3844"
           inkscape:connector-curvature="0" /><path
           d="m 1567.285,1084.907 -154.952,35.426 -63.374,-28.166 c 0.873,-4.927 1.351,-9.992 1.351,-15.17 0,-10.075 -1.68,-19.718 -4.792,-28.644 l 92.149,37.98 134.747,-176.875 c 6.356,25.385 9.729,51.812 9.729,78.953 0,33.512 -5.194,65.877 -14.858,96.496"
           style="fill:#bfd1c4;fill-opacity:1;stroke:none"
           id="path3910"
           inkscape:connector-curvature="0" /></g><g
         id="g4362"><g
           id="g3912"><g
             id="g3914"
             clip-path="url(#clipPath3916)"><g
               id="g3920"><g
                 id="g3922"><path
                   inkscape:connector-curvature="0"
                   d="m 671.333,1146.198 c 0,-278.72 230.667,-494.667 509.706,-504.667 l 0,0 c 11.761,-0.421 82.711,-0.072 119.909,8.823 l 0,0 129.544,207.485 c -47.987,-33.786 -106.668,-53.655 -170.036,-53.655 l 0,0 c -162.222,0 -293.729,130.207 -293.729,290.825 l 0,0 c 0,160.618 131.507,290.825 293.729,290.825 l 0,0 c 56.694,0 109.626,-15.92 154.514,-43.467 l 0,0 -114.153,298.476 c 0,0 -37.817,10.021 -119.778,10.021 l 0,0 c -281.503,0 -509.706,-225.947 -509.706,-504.666"
                   style="fill:url(#linearGradient3924);stroke:none"
                   id="path3932" /></g></g></g></g><g
           id="g3934"><g
             id="g3936"
             clip-path="url(#clipPath3938)"><g
               id="g3942"><g
                 id="g3944" /><g
                 id="g3968"
                 mask="url(#mask3956)"><g
                   id="g3970"><path
                     inkscape:connector-curvature="0"
                     d="m 1086.772,1635.129 c -53.154,-9.824 -103.635,-28.023 -148.682,-53.142 l 0,0 C 904.425,1563.645 873.383,1541.736 845.833,1517 l 0,0 c 42.398,-61.711 160.007,-104.151 300.115,-104.151 l 0,0 c 84.428,0 161.361,16.196 218.302,42.526 l 0,0 -68.667,179.458 c 0,0 -35.539,9.084 -117.5,9.084 l 0,0 c -1.829,0.029 -3.66,0.044 -5.488,0.044 l 0,0 c -28.991,0 -57.852,-3.663 -85.823,-8.832"
                     style="fill:url(#linearGradient3972);stroke:none"
                     id="path3978" /></g></g></g></g></g><g
           id="g3980"><g
             id="g3982"
             clip-path="url(#clipPath3984)"><g
               id="g3988"><g
                 id="g3990"><path
                   inkscape:connector-curvature="0"
                   d="m 826.537,991.676 c 0,-45.322 10.582,-90.118 29.147,-129.077 l 0,0 C 900.438,768.681 965.858,714.276 1035.822,681.1 l 0,0 c 88.699,-42.059 184.89,-40.746 264.612,-30.423 l 0,0 129.964,207.027 c -47.987,-33.787 -108.676,-59.329 -172.044,-59.329 l 0,0 c -119.884,0 -226.47,73.038 -271.333,175.333 l 0,0 c -33.274,75.869 -33.956,156.11 -5.75,229.584 l 0,0 c 20.25,52.75 64.562,105.165 100.312,130.999 l 0,0 c -162.25,-56.667 -255.046,-185.3 -255.046,-342.615"
                   style="fill:url(#linearGradient3992);stroke:none"
                   id="path4000" /></g></g></g></g><g
           id="g4002"><g
             id="g4004"
             clip-path="url(#clipPath4006)"><g
               id="g4010"><g
                 id="g4012"><path
                   inkscape:connector-curvature="0"
                   d="m 816.516,999.255 c 0,-45.323 8.995,-88.674 25.447,-128.572 l 0,0 c 55.014,-133.41 193.418,-228.194 357.759,-228.861 l 0,0 0.167,0.168 c -20.609,1.163 -40.841,3.875 -60.583,8.004 l 0,0 c -34.698,5.328 -69.636,15.056 -103.484,31.106 l 0,0 c -69.964,33.176 -135.384,87.581 -180.138,181.499 l 0,0 c -18.565,38.959 -29.147,83.755 -29.147,129.077 l 0,0 c 0,152.418 87.11,277.911 240.097,337.116 l 0,0 c 4.92,1.923 9.893,3.769 14.928,5.52 l 0,0 c 3.125,2.126 9.271,6.521 9.271,6.521 l 0,0 C 934.018,1294.948 816.516,1158.899 816.516,999.255"
                   style="fill:url(#linearGradient4014);stroke:none"
                   id="path4028" /></g></g></g></g><g
           id="g4030"><g
             id="g4032"
             clip-path="url(#clipPath4034)"><g
               id="g4038"
               transform="translate(1181.0394,1650.8641)"><path
                 inkscape:connector-curvature="0"
                 d="m 0,0 c -281.503,0 -509.706,-225.947 -509.706,-504.667 0,-278.719 230.667,-494.666 509.706,-504.666 1.81,-0.065 5.023,-0.112 9.297,-0.112 23.501,0 79.137,1.408 110.612,8.934 l 129.544,207.487 c -47.987,-33.788 -106.668,-53.656 -170.036,-53.656 -162.222,0 -293.729,130.207 -293.729,290.825 0,160.618 131.507,290.825 293.729,290.825 56.694,0 109.625,-15.92 154.514,-43.467 L 119.777,-10.021 C 119.777,-10.021 81.961,0 0,0 m 0,-7 c 66.325,0 103.649,-6.695 114.574,-9.011 l 105.841,-276.743 c -43.257,22.771 -91.605,34.724 -140.998,34.724 -165.823,0 -300.729,-133.604 -300.729,-297.825 0,-164.221 134.906,-297.825 300.729,-297.825 52.404,0 102.963,13.209 147.914,38.441 L 115.513,-994.335 c -36.088,-7.876 -98.992,-8.11 -106.216,-8.11 -3.853,0 -7.15,0.039 -9.046,0.107 -67.706,2.426 -133.267,17.001 -194.862,43.32 -60.111,25.684 -113.942,61.436 -159.999,106.264 -95.501,92.952 -148.096,216.572 -148.096,348.087 0,67.179 13.287,132.346 39.492,193.689 25.315,59.26 61.558,112.482 107.722,158.19 46.17,45.713 99.932,81.603 159.795,106.672 C -133.718,-20.16 -67.877,-7 0,-7"
                 style="fill:#2d4533;fill-opacity:1;fill-rule:nonzero;stroke:none"
                 id="path4040" /></g></g></g></g><g
         id="g4338"><g
           id="g4042"><g
             id="g4044"
             clip-path="url(#clipPath4046)"><g
               id="g4050"><g
                 id="g4052"><path
                   inkscape:connector-curvature="0"
                   d="m 1038.996,1094 c 0,-126.475 102.529,-229.004 229.004,-229.004 l 0,0 c 50.429,0 97.04,16.314 134.873,43.932 l 0,0 L 1302,996.892 c -10.445,-4.439 -21.935,-6.896 -34,-6.896 l 0,0 c -48.051,0 -87.004,38.953 -87.004,87.004 l 0,0 c 0,48.05 38.953,87.003 87.004,87.003 l 0,0 c 12.065,0 23.555,-2.457 34,-6.896 l 0,0 90.074,129.395 c -35.753,23.092 -78.346,36.502 -124.074,36.502 l 0,0 c -126.475,0 -229.004,-102.528 -229.004,-229.004"
                   style="fill:url(#linearGradient4054);stroke:none"
                   id="path4064" /></g></g></g></g><g
           id="g4066"><g
             id="g4068"
             clip-path="url(#clipPath4070)"><g
               id="g4074"><g
                 id="g4076" /><g
                 id="g4114"><g
                   style="opacity:0.72000098"
                   clip-path="url(#clipPath4078)"
                   id="g4116"><g
                     id="g4118"><g
                       clip-path="url(#clipPath4082)"
                       id="g4120"><g
                         id="g4122"><g
                           id="g4124" /><g
                           mask="url(#mask4096)"
                           id="g4126"><g
                             id="g4128"><path
                               inkscape:connector-curvature="0"
                               d="m 1288.804,1216.118 c 20.071,0 39.384,1.609 57.458,4.574 l 45.812,65.811 c -35.753,23.091 -78.346,36.501 -124.074,36.501 -55.736,0 -106.814,-19.92 -146.523,-53.017 28.668,-31.754 92.803,-53.869 167.327,-53.869"
                               style="fill:url(#linearGradient4108);stroke:none"
                               id="path4130" /></g></g></g></g></g></g></g></g></g></g><g
           id="g4132"><g
             id="g4134"
             clip-path="url(#clipPath4136)"><g
               id="g4140"
               transform="translate(1302,996.8923)"><path
                 inkscape:connector-curvature="0"
                 d="m 0,0 c -10.445,-4.439 -21.935,-6.896 -34,-6.896 -48.051,0 -87.004,38.953 -87.004,87.004 0,48.05 38.953,87.003 87.004,87.003 12.065,0 23.555,-2.457 34,-6.896 L 90.074,289.61 C 54.321,312.702 11.728,326.111 -34,326.111 c -126.475,0 -229.004,-102.528 -229.004,-229.003 0,-126.475 102.529,-229.004 229.004,-229.004 50.429,0 97.04,16.313 134.874,43.932 L 0,0 z"
                 style="fill:none;stroke:#365e3c;stroke-width:7;stroke-linecap:butt;stroke-linejoin:miter;stroke-miterlimit:10;stroke-opacity:1;stroke-dasharray:none"
                 id="path4142" /></g></g></g></g></g></g></svg>