<svg width="390" height="60" viewBox="0 0 390 60" fill="none" xmlns="http://www.w3.org/2000/svg">
<path d="M93.1315 0C79.85 0 71.4958 10.0967 71.4958 22.478C71.4958 34.9786 79.85 45.3176 93.1315 45.3176C103.89 45.3176 111.582 39.3096 114.048 29.813L106.236 29.7515C105.036 35.4017 99.1433 38.2865 92.9545 38.2865C84.2387 38.2865 79.1923 31.4939 79.1923 22.4819C79.1923 13.4699 84.3618 6.97727 92.9545 6.97727C99.7856 6.97727 104.324 11.4236 105.063 16.647H112.544C112.24 6.54648 104.128 0 93.1315 0Z" fill="black"/>
<path d="M132.826 12.1391C124.291 12.1391 117.502 18.9894 117.502 28.3052C117.502 38.1596 124.295 44.5907 132.826 44.5907C141.18 44.5907 147.973 38.1596 147.973 28.3052C147.969 18.9932 141.18 12.1391 132.826 12.1391ZM132.826 38.2827C127.899 38.2827 124.233 34.2555 124.233 28.3052C124.233 22.5357 127.899 18.4509 132.826 18.4509C137.572 18.4509 141.242 22.5357 141.242 28.3052C141.238 34.2555 137.572 38.2827 132.826 38.2827Z" fill="black"/>
<path d="M187.721 11.539C181.967 11.539 178.036 15.4123 177.016 19.5894H176.12C176.563 15.6315 172.416 11.539 167.224 11.539C163.454 11.539 161.193 13.0776 159.608 15.6046H158.173C158.292 14.493 158.289 13.4199 158.15 12.7391H151.357V43.9906H158.15V29.3284C158.15 21.3357 161.454 17.9701 166.566 17.9701C171.255 17.9701 172.035 21.0357 172.035 30.2323V43.9945H178.766V29.9899C178.766 20.9164 182.432 17.9701 187.359 17.9701C191.748 17.9701 193.009 21.0357 193.009 29.8707V43.9945H199.741V27.1052C199.741 15.7469 196.133 11.539 187.721 11.539Z" fill="black"/>
<path d="M241.277 11.539C235.523 11.539 231.592 15.4123 230.573 19.5894H229.677C230.123 15.6315 225.977 11.539 220.784 11.539C217.015 11.539 214.753 13.0776 213.168 15.6046H211.733C211.853 14.493 211.849 13.4199 211.71 12.7391H204.918V43.9906H211.71V29.3284C211.71 21.3357 215.014 17.9701 220.126 17.9701C224.815 17.9701 225.596 21.0357 225.596 30.2323V43.9945H232.327V29.9899C232.327 20.9164 235.992 17.9701 240.92 17.9701C245.308 17.9701 246.57 21.0357 246.57 29.8707V43.9945H253.301V27.1052C253.297 15.7469 249.693 11.539 241.277 11.539Z" fill="black"/>
<path d="M285.691 12.7391H278.96V28.8476C278.96 36.5403 275.837 39.0635 270.544 39.0635C266.036 39.0635 265.255 36.4787 265.255 28.3053V12.7391H258.463V30.8285C258.463 41.4674 262.428 45.1907 269.279 45.1907C273.752 45.1907 276.714 42.8675 278.279 40.1366H279.083C278.995 40.6443 278.956 41.1097 278.956 41.4059C278.956 42.729 279.018 43.6291 279.256 43.9907H286.106V43.5099C285.926 43.0291 285.926 42.129 285.926 40.9251L285.691 12.7391Z" fill="black"/>
<path d="M309.188 11.539C304.788 11.539 302.165 12.9622 300.426 15.6046H298.98C299.08 14.643 299.049 13.7007 298.915 12.7391H292.184V43.9906H298.915V28.786C298.915 20.7933 303.904 17.9701 307.631 17.9701C312.739 17.9701 313.881 20.8549 313.881 30.29V43.9906H320.612V27.1052C320.608 16.1662 317.423 11.539 309.188 11.539Z" fill="black"/>
<path d="M333.359 12.7391H326.628V43.9906H333.359V12.7391Z" fill="black"/>
<path d="M357.648 43.3329L356.145 37.7442C354.583 38.525 353.441 39.0058 352.179 39.0058C350.375 39.0058 350.017 37.8634 350.017 34.9787V18.6894H357.772V12.7391H349.14C350.852 10.6082 351.206 5.63106 350.198 3.71558H343.405V12.7391H338.54V18.6894H343.409V36.5403C343.409 41.529 345.632 44.8945 351.764 44.8945C354.164 44.8945 356.506 44.1137 357.648 43.3329Z" fill="black"/>
<path d="M329.993 8.77735C332.152 8.77735 333.901 7.02773 333.901 4.86946C333.901 2.7112 332.152 0.961578 329.993 0.961578C327.835 0.961578 326.085 2.7112 326.085 4.86946C326.085 7.02773 327.835 8.77735 329.993 8.77735Z" fill="black"/>
<path d="M382.119 51.2949C380.938 52.6834 379.111 54.3181 376.53 54.3181C374.115 54.3181 370.941 52.7757 370.472 48.787H363.937C363.98 50.091 364.11 51.4333 364.649 52.7872C365.26 54.4642 366.403 56.072 367.88 57.1952C370.907 59.4491 374.365 59.9107 377.626 59.8068C381.05 59.6376 384.696 58.1183 387.115 55.1489C389.431 52.318 390 48.864 390 45.8331V30.1246V12.7391H383.415V29.4015C383.257 36.6326 380.18 39.0635 375.03 39.0635C370.522 39.0635 369.741 36.4787 369.741 28.3053V12.7391H362.949V30.8285C362.949 41.4674 366.914 45.1907 373.765 45.1907C378.753 45.1907 381.877 42.306 383.261 39.1827L383.446 38.6058C383.446 38.6058 383.446 38.6327 383.446 44.3484C383.446 48.0832 383.261 49.9486 382.119 51.2949Z" fill="black"/>
<path d="M1.55779 52.4411C7.26961 43.1868 13.6392 38.8519 23.632 41.4482C29.7092 43.0252 35.6633 45.2792 43.006 45.2792C51.791 45.2792 55.922 43.4983 57.0259 42.9214C57.2221 42.8214 57.3413 42.6252 57.3413 42.4021V26.209C57.3413 25.9282 57.0413 25.7321 56.7874 25.859C55.3835 26.5321 51.2372 28.0976 43.006 28.0976C32.0055 28.0976 24.132 22.9281 14.2315 22.9281C5.83877 22.9281 1.46163 24.9436 0.31927 25.5513C0.123107 25.6551 0.0115629 25.8513 0.0115629 26.0705V52.3949C0.0038702 52.9949 1.04238 53.2719 1.55779 52.4411Z" fill="black"/>
<path d="M57.3259 19.601C57.3259 19.8202 57.2067 20.0164 57.0182 20.1125C55.9105 20.6895 51.7756 22.4704 42.9983 22.4704C31.9977 22.4704 24.1243 17.3047 14.2161 17.3047C6.3657 17.3047 2.02318 19.0663 0.561566 19.7971C0.300015 19.9241 0 19.7394 0 19.4548V3.25786C0 3.04247 0.111544 2.8463 0.307708 2.7463C1.44623 2.12704 5.83106 0.123093 14.2161 0.123093C24.1243 0.123093 31.9939 5.28873 42.9983 5.28873C51.2295 5.28873 55.3758 3.72327 56.772 3.05785C57.0297 2.93092 57.3259 3.11939 57.3259 3.40018V19.601Z" fill="black"/>
</svg>
