<?xml version="1.0" encoding="UTF-8"?>
<svg width="130px" height="36px" viewBox="0 0 130 36" version="1.1" xmlns="http://www.w3.org/2000/svg" xmlns:xlink="http://www.w3.org/1999/xlink">
    <title>Web Logo/webLogo</title>
    <defs>
        <path d="M36.0425532,11.1340019 C36.0425532,10.7096024 36.0425532,10.2851595 36.0400994,9.86071653 C36.0379561,9.50317444 36.0338007,9.14571913 36.0240028,8.78835059 C36.0028324,8.00944596 35.956511,7.22385993 35.8168472,6.45363245 C35.675215,5.67229822 35.4439145,4.94510942 35.0794237,4.23518816 C34.7211004,3.53741491 34.2530318,2.89890662 33.6945514,2.34534765 C33.1362021,1.79178868 32.4922962,1.32782132 31.788553,0.972622066 C31.0720814,0.61100172 30.3381572,0.381664569 29.5495572,0.24122485 C28.7729422,0.102911033 27.9807117,0.0570522801 27.195436,0.0360101844 C26.8348819,0.026335159 26.4743278,0.0222568971 26.1136863,0.0200442231 C25.6855529,0.0174410773 25.2574195,0.0176580061 24.8292862,0.0176580061 L19.85825,0 L16.1402957,0 L11.257222,0.0176580061 C10.8282576,0.0176580061 10.3992931,0.0174410773 9.9703287,0.0200442231 C9.60894354,0.0222568971 9.24773335,0.026335159 8.88647941,0.0360101844 C8.09936661,0.0570522801 7.3053428,0.102954419 6.52689065,0.241441779 C5.73724089,0.381838112 5.0022232,0.611088491 4.28478924,0.972448523 C3.57955892,1.32769116 2.93425328,1.79170191 2.37472302,2.34534765 C1.81528025,2.89886323 1.34633686,3.53724137 0.987357441,4.23488446 C0.621860662,4.94515281 0.390122758,5.67277546 0.248140644,6.45454355 C0.108345562,7.22446733 0.0620242259,8.00979305 0.0407225348,8.78835059 C0.0310121129,9.14576252 0.0268130116,9.50321783 0.0246259797,9.86071653 C0.0220015413,10.2852028 0,10.81247 0,11.236913 L0,16.0132518 L0,19.7405228 L0.0222202445,24.6183409 C0.0222202445,25.0433478 0.022045282,25.4683548 0.0246259797,25.8933617 C0.0268130116,26.2513811 0.0310121129,26.6093136 0.0407662754,26.9672028 C0.0620242259,27.7471053 0.108433044,28.5338194 0.248359347,29.3050881 C0.39029772,30.0874636 0.621991884,30.8156936 0.987182478,31.526526 C1.34620564,32.2252971 1.81523651,32.8646297 2.37472302,33.4189697 C2.93420954,33.9733096 3.57934022,34.4378843 4.28443932,34.7936042 C5.00231068,35.1557018 5.7376783,35.3853427 6.5278092,35.5259559 C7.30591143,35.6644867 8.0996728,35.7104322 8.88647941,35.7314743 C9.24773335,35.7411493 9.60898728,35.745271 9.97037244,35.7474402 C10.3993369,35.75 10.8282576,35.75 11.257222,35.75 L16.18443,35.75 L19.9116136,35.75 L24.8292862,35.75 C25.2574195,35.75 25.6855529,35.75 26.1136863,35.7474402 C26.4743278,35.745271 26.8348819,35.7411493 27.195436,35.7314743 C27.9810179,35.7103888 28.7735108,35.6643999 29.5504758,35.5257824 C30.3385946,35.3851691 31.0721688,35.155615 31.7882468,34.7937344 C32.4921212,34.4380579 33.1361584,33.9733963 33.6945514,33.4189697 C34.2529444,32.8647165 34.7209692,32.2254707 35.0792925,31.5268297 C35.444002,30.8156502 35.6753024,30.0870731 35.8170221,29.304177 C35.9565548,28.533212 36.0028324,27.7468016 36.0240466,26.9672028 C36.0338007,26.6092702 36.0379561,26.2513377 36.0400994,25.8933617 C36.0425532,25.4683548 36.0425532,25.0433478 36.0425532,24.6183409 C36.0425532,24.6183409 36.0425532,19.8266435 36.0425532,19.7405228 L36.0425532,16.0093471 C36.0425532,15.9457435 36.0425532,11.1340019 36.0425532,11.1340019" id="path-1"></path>
        <linearGradient x1="50%" y1="0%" x2="50%" y2="100%" id="linearGradient-3">
            <stop stop-color="#FFE000" offset="0%"></stop>
            <stop stop-color="#FFBC00" offset="51.0309473%"></stop>
            <stop stop-color="#FF9D00" offset="74.9351235%"></stop>
            <stop stop-color="#FF6A00" offset="100%"></stop>
        </linearGradient>
        <rect id="path-4" x="0" y="0" width="36.0425532" height="35.75"></rect>
        <path d="M41.0727639,-4.98938107 L41.0727639,40.7393811 L-5.0302107,40.7393811 L-5.0302107,-4.98938107 L41.0727639,-4.98938107 Z M19.85825,8.8817842e-16 L16.1402957,8.8817842e-16 L11.257222,0.0176580061 C10.8282576,0.0176580061 10.3992931,0.0174410773 9.9703287,0.0200442231 C9.60894354,0.0222568971 9.24773335,0.026335159 8.88647941,0.0360101844 C8.09936661,0.0570522801 7.3053428,0.102954419 6.52689065,0.241441779 C5.73724089,0.381838112 5.0022232,0.611088491 4.28478924,0.972448523 C3.57955892,1.32769116 2.93425328,1.79170191 2.37472302,2.34534765 C1.81528025,2.89886323 1.34633686,3.53724137 0.987357441,4.23488446 C0.621860662,4.94515281 0.390122758,5.67277546 0.248140644,6.45454355 C0.108345562,7.22446733 0.0620242259,8.00979305 0.0407225348,8.78835059 C0.0310121129,9.14576252 0.0268130116,9.50321783 0.0246259797,9.86071653 C0.0220015413,10.2852028 2.66453526e-15,10.81247 2.66453526e-15,11.236913 L2.66453526e-15,19.7405228 L0.0222202445,24.6183409 C0.0222202445,25.0433478 0.022045282,25.4683548 0.0246259797,25.8933617 C0.0268130116,26.2513811 0.0310121129,26.6093136 0.0407662754,26.9672028 C0.0620242259,27.7471053 0.108433044,28.5338194 0.248359347,29.3050881 C0.39029772,30.0874636 0.621991884,30.8156936 0.987182478,31.526526 C1.34620564,32.2252971 1.81523651,32.8646297 2.37472302,33.4189697 C2.93420954,33.9733096 3.57934022,34.4378843 4.28443932,34.7936042 C5.00231068,35.1557018 5.7376783,35.3853427 6.5278092,35.5259559 C7.30591143,35.6644867 8.0996728,35.7104322 8.88647941,35.7314743 C9.24773335,35.7411493 9.60898728,35.745271 9.97037244,35.7474402 L10.6137972,35.74968 L10.6137972,35.74968 L24.8292862,35.75 C25.2574195,35.75 25.6855529,35.75 26.1136863,35.7474402 C26.4743278,35.745271 26.8348819,35.7411493 27.195436,35.7314743 C27.9810179,35.7103888 28.7735108,35.6643999 29.5504758,35.5257824 C30.3385946,35.3851691 31.0721688,35.155615 31.7882468,34.7937344 C32.4921212,34.4380579 33.1361584,33.9733963 33.6945514,33.4189697 C34.2529444,32.8647165 34.7209692,32.2254707 35.0792925,31.5268297 C35.444002,30.8156502 35.6753024,30.0870731 35.8170221,29.304177 C35.9565548,28.533212 36.0028324,27.7468016 36.0240466,26.9672028 C36.0338007,26.6092702 36.0379561,26.2513377 36.0400994,25.8933617 L36.0422465,25.2558513 L36.0422465,25.2558513 L36.0425532,11.1340019 C36.0425532,10.7096024 36.0425532,10.2851595 36.0400994,9.86071653 C36.0379561,9.50317444 36.0338007,9.14571913 36.0240028,8.78835059 C36.0028324,8.00944596 35.956511,7.22385993 35.8168472,6.45363245 C35.675215,5.67229822 35.4439145,4.94510942 35.0794237,4.23518816 C34.7211004,3.53741491 34.2530318,2.89890662 33.6945514,2.34534765 C33.1362021,1.79178868 32.4922962,1.32782132 31.788553,0.972622066 C31.0720814,0.61100172 30.3381572,0.381664569 29.5495572,0.24122485 C28.7729422,0.102911033 27.9807117,0.0570522801 27.195436,0.0360101844 C26.8348819,0.026335159 26.4743278,0.0222568971 26.1136863,0.0200442231 C25.6855529,0.0174410773 25.2574195,0.0176580061 24.8292862,0.0176580061 L19.85825,8.8817842e-16 Z" id="path-6"></path>
        <filter x="-26.0%" y="-26.2%" width="152.1%" height="152.5%" filterUnits="objectBoundingBox" id="filter-7">
            <feOffset dx="0" dy="0" in="SourceAlpha" result="shadowOffsetOuter1"></feOffset>
            <feGaussianBlur stdDeviation="4" in="shadowOffsetOuter1" result="shadowBlurOuter1"></feGaussianBlur>
            <feComposite in="shadowBlurOuter1" in2="SourceAlpha" operator="out" result="shadowBlurOuter1"></feComposite>
            <feColorMatrix values="0 0 0 0 0.999901831   0 0 0 0 1   0 0 0 0 0.999879897  0 0 0 1 0" type="matrix" in="shadowBlurOuter1"></feColorMatrix>
        </filter>
        <radialGradient cx="45.2134997%" cy="34.7333123%" fx="45.2134997%" fy="34.7333123%" r="46.8928966%" gradientTransform="translate(0.452135,0.347333),scale(1.000000,0.754110),rotate(90.000000),translate(-0.452135,-0.347333)" id="radialGradient-8">
            <stop stop-color="#FFFFFF" offset="0%"></stop>
            <stop stop-color="#FFFFFF" stop-opacity="0.7" offset="72.3175534%"></stop>
            <stop stop-color="#FFFFFF" stop-opacity="0.35" offset="100%"></stop>
        </radialGradient>
        <path d="M19.7158102,37.9460571 L0.840911434,53.625 L-1.83319981,38.3335166 L17.2188206,33.2205879 C17.1044051,32.8119311 17.0092519,32.3936125 16.934556,31.9664759 C16.6978455,30.6128843 16.6842267,29.2716581 16.8670673,27.9811477 L-2.81582447,24.8327151 L-2.460499,11.3335088 L18.3775124,23.5319629 C19.2855164,21.9209906 20.5395255,20.5165261 22.0577701,19.4363174 L7.1706238,-1.8667169 L21.2747012,-1.34812 L26.1325766,17.5355903 C26.4506508,17.4527732 26.7743926,17.3818343 27.10341,17.3233382 C28.9349982,16.9976999 30.7437578,17.090788 32.4330906,17.5344028 L38.5588378,-5.90513393 L42.0764628,14.2098496 L37.3023642,20.0578259 C39.502043,21.9028427 41.0902724,24.5128798 41.6260384,27.5765736 C42.8283001,34.4515176 38.2755494,41.0074732 31.4571845,42.2197114 C31.0405045,42.293793 30.625006,42.3462035 30.2118263,42.377746 L30.2118263,38.4465263 C30.4016968,38.4256067 30.5921554,38.3982651 30.7829731,38.3643396 C35.4895982,37.527548 38.6323004,33.0020605 37.8023954,28.2563797 C36.9724904,23.5106989 32.4842465,20.3419184 27.7776214,21.17871 C23.0709963,22.0155015 19.9282941,26.5409891 20.7581991,31.2866699 C21.4815753,35.4231829 24.9843812,38.3616431 28.9885799,38.4937156 L28.9885799,42.4107584 C25.3542475,42.329398 21.9942838,40.6512168 19.7158102,37.9460571 Z" id="path-9"></path>
    </defs>
    <g id="Buttons-&amp;-Logo" stroke="none" stroke-width="1" fill="none" fill-rule="evenodd">
        <g id="Daylite-Logo-New" transform="translate(-4.000000, -4.000000)">
            <g id="Artwork" transform="translate(4.158756, 4.125000)">
                <mask id="mask-2" fill="white">
                    <use xlink:href="#path-1"></use>
                </mask>
                <use id="Mask" fill="#FFFFFF" xlink:href="#path-1"></use>
                <g id="Group" mask="url(#mask-2)">
                    <g id="Icon">
                        <path d="M36.0425532,11.1340019 C36.0425532,10.7096024 36.0425532,10.2851595 36.0400994,9.86071653 C36.0379561,9.50317444 36.0338007,9.14571913 36.0240028,8.78835059 C36.0028324,8.00944596 35.956511,7.22385993 35.8168472,6.45363245 C35.675215,5.67229822 35.4439145,4.94510942 35.0794237,4.23518816 C34.7211004,3.53741491 34.2530318,2.89890662 33.6945514,2.34534765 C33.1362021,1.79178868 32.4922962,1.32782132 31.788553,0.972622066 C31.0720814,0.61100172 30.3381572,0.381664569 29.5495572,0.24122485 C28.7729422,0.102911033 27.9807117,0.0570522801 27.195436,0.0360101844 C26.8348819,0.026335159 26.4743278,0.0222568971 26.1136863,0.0200442231 C25.6855529,0.0174410773 25.2574195,0.0176580061 24.8292862,0.0176580061 L19.85825,0 L16.1402957,0 L11.257222,0.0176580061 C10.8282576,0.0176580061 10.3992931,0.0174410773 9.9703287,0.0200442231 C9.60894354,0.0222568971 9.24773335,0.026335159 8.88647941,0.0360101844 C8.09936661,0.0570522801 7.3053428,0.102954419 6.52689065,0.241441779 C5.73724089,0.381838112 5.0022232,0.611088491 4.28478924,0.972448523 C3.57955892,1.32769116 2.93425328,1.79170191 2.37472302,2.34534765 C1.81528025,2.89886323 1.34633686,3.53724137 0.987357441,4.23488446 C0.621860662,4.94515281 0.390122758,5.67277546 0.248140644,6.45454355 C0.108345562,7.22446733 0.0620242259,8.00979305 0.0407225348,8.78835059 C0.0310121129,9.14576252 0.0268130116,9.50321783 0.0246259797,9.86071653 C0.0220015413,10.2852028 0,10.81247 0,11.236913 L0,16.0132518 L0,19.7405228 L0.0222202445,24.6183409 C0.0222202445,25.0433478 0.022045282,25.4683548 0.0246259797,25.8933617 C0.0268130116,26.2513811 0.0310121129,26.6093136 0.0407662754,26.9672028 C0.0620242259,27.7471053 0.108433044,28.5338194 0.248359347,29.3050881 C0.39029772,30.0874636 0.621991884,30.8156936 0.987182478,31.526526 C1.34620564,32.2252971 1.81523651,32.8646297 2.37472302,33.4189697 C2.93420954,33.9733096 3.57934022,34.4378843 4.28443932,34.7936042 C5.00231068,35.1557018 5.7376783,35.3853427 6.5278092,35.5259559 C7.30591143,35.6644867 8.0996728,35.7104322 8.88647941,35.7314743 C9.24773335,35.7411493 9.60898728,35.745271 9.97037244,35.7474402 C10.3993369,35.75 10.8282576,35.75 11.257222,35.75 L16.18443,35.75 L19.9116136,35.75 L24.8292862,35.75 C25.2574195,35.75 25.6855529,35.75 26.1136863,35.7474402 C26.4743278,35.745271 26.8348819,35.7411493 27.195436,35.7314743 C27.9810179,35.7103888 28.7735108,35.6643999 29.5504758,35.5257824 C30.3385946,35.3851691 31.0721688,35.155615 31.7882468,34.7937344 C32.4921212,34.4380579 33.1361584,33.9733963 33.6945514,33.4189697 C34.2529444,32.8647165 34.7209692,32.2254707 35.0792925,31.5268297 C35.444002,30.8156502 35.6753024,30.0870731 35.8170221,29.304177 C35.9565548,28.533212 36.0028324,27.7468016 36.0240466,26.9672028 C36.0338007,26.6092702 36.0379561,26.2513377 36.0400994,25.8933617 C36.0425532,25.4683548 36.0425532,25.0433478 36.0425532,24.6183409 C36.0425532,24.6183409 36.0425532,19.8266435 36.0425532,19.7405228 L36.0425532,16.0093471 C36.0425532,15.9457435 36.0425532,11.1340019 36.0425532,11.1340019" id="Mask-(Temporary)"></path>
                        <mask id="mask-5" fill="white">
                            <use xlink:href="#path-4"></use>
                        </mask>
                        <use id="Background" fill="url(#linearGradient-3)" xlink:href="#path-4"></use>
                        <g id="Inner-Glow" opacity="0.75" style="mix-blend-mode: soft-light;" mask="url(#mask-5)">
                            <use fill="black" fill-opacity="1" filter="url(#filter-7)" xlink:href="#path-6"></use>
                            <use fill-opacity="0.546694" fill="#FFFFFF" fill-rule="evenodd" xlink:href="#path-6"></use>
                        </g>
                        <g id="Rays" mask="url(#mask-5)">
                            <use fill="url(#radialGradient-8)" xlink:href="#path-9"></use>
                            <use fill-opacity="0.1" fill="#FFFFFF" xlink:href="#path-9"></use>
                        </g>
                    </g>
                </g>
            </g>
            <path d="M58.1929362,33 C59.8542695,33 61.2916028,32.7666667 62.5049362,32.3 C63.7182695,31.8333333 64.7169362,31.1566667 65.5009362,30.27 C66.2849362,29.3833333 66.8636028,28.2913333 67.2369362,26.994 C67.6102695,25.6966667 67.7969362,24.208 67.7969362,22.528 C67.7969362,19.3173333 66.9662695,16.928 65.3049362,15.36 C63.6436028,13.792 61.2729362,13.008 58.1929362,13.008 L51.3329362,13.008 L51.3329362,33 L58.1929362,33 Z M58.4169362,30.76 L53.9929362,30.76 L53.9929362,15.248 L58.4729362,15.248 C59.7049362,15.248 60.7409362,15.4206667 61.5809362,15.766 C62.4209362,16.1113333 63.1069362,16.6153333 63.6389362,17.278 C64.1709362,17.9406667 64.5536028,18.7433333 64.7869362,19.686 C65.0202695,20.6286667 65.1369362,21.6973333 65.1369362,22.892 C65.1369362,24.124 65.0109362,25.174 64.7589362,26.042 C64.5069362,26.91 64.1849362,27.6333333 63.7929362,28.212 C63.4009362,28.7906667 62.9576028,29.248 62.4629362,29.584 C61.9682695,29.92 61.4689362,30.1766667 60.9649362,30.354 C60.4609362,30.5313333 59.9849362,30.6433333 59.5369362,30.69 C59.0889362,30.7366667 58.7156028,30.76 58.4169362,30.76 Z M81.7689362,33.308 C82.4969362,33.308 83.0662695,33.1866667 83.4769362,32.944 L83.4769362,32.944 L83.4769362,31.096 C83.1969362,31.1893333 82.9542695,31.236 82.7489362,31.236 C82.3756028,31.236 82.1562695,31.1053333 82.0909362,30.844 C82.0256028,30.5826667 81.9929362,30.172 81.9929362,29.612 L81.9929362,29.612 L81.9929362,22.164 C81.9929362,21.324 81.8342695,20.6426667 81.5169362,20.12 C81.1996028,19.5973333 80.7796028,19.1913333 80.2569362,18.902 C79.7342695,18.6126667 79.1509362,18.4213333 78.5069362,18.328 C77.8629362,18.2346667 77.2142695,18.188 76.5609362,18.188 C75.7396028,18.188 74.9696028,18.272 74.2509362,18.44 C73.5322695,18.608 72.8929362,18.8833333 72.3329362,19.266 C71.7729362,19.6486667 71.3249362,20.148 70.9889362,20.764 C70.6529362,21.38 70.4662695,22.136 70.4289362,23.032 L70.4289362,23.032 L72.8089362,23.032 C72.8649362,21.968 73.2289362,21.2446667 73.9009362,20.862 C74.5729362,20.4793333 75.4129362,20.288 76.4209362,20.288 C76.7942695,20.288 77.1722695,20.316 77.5549362,20.372 C77.9376028,20.428 78.2829362,20.54 78.5909362,20.708 C78.8989362,20.876 79.1509362,21.1186667 79.3469362,21.436 C79.5429362,21.7533333 79.6409362,22.1733333 79.6409362,22.696 C79.6409362,23.144 79.5102695,23.4846667 79.2489362,23.718 C78.9876028,23.9513333 78.6329362,24.1286667 78.1849362,24.25 C77.7369362,24.3713333 77.2189362,24.4646667 76.6309362,24.53 C76.0429362,24.5953333 75.4222695,24.6933333 74.7689362,24.824 C74.1529362,24.936 73.5509362,25.076 72.9629362,25.244 C72.3749362,25.412 71.8522695,25.6593333 71.3949362,25.986 C70.9376028,26.3126667 70.5689362,26.7373333 70.2889362,27.26 C70.0089362,27.7826667 69.8689362,28.4546667 69.8689362,29.276 C69.8689362,30.004 69.9949362,30.6246667 70.2469362,31.138 C70.4989362,31.6513333 70.8396028,32.0666667 71.2689362,32.384 C71.6982695,32.7013333 72.2069362,32.9346667 72.7949362,33.084 C73.3829362,33.2333333 74.0036028,33.308 74.6569362,33.308 C75.6649362,33.308 76.6029362,33.1353333 77.4709362,32.79 C78.3389362,32.4446667 79.0996028,31.88 79.7529362,31.096 C79.7529362,31.88 79.9349362,32.4446667 80.2989362,32.79 C80.6629362,33.1353333 81.1529362,33.308 81.7689362,33.308 Z M75.1889362,31.236 C74.8156028,31.236 74.4609362,31.1986667 74.1249362,31.124 C73.7889362,31.0493333 73.4949362,30.928 73.2429362,30.76 C72.9909362,30.592 72.7856028,30.3726667 72.6269362,30.102 C72.4682695,29.8313333 72.3889362,29.5 72.3889362,29.108 C72.3889362,28.5106667 72.5242695,28.0393333 72.7949362,27.694 C73.0656028,27.3486667 73.4156028,27.0826667 73.8449362,26.896 C74.2742695,26.7093333 74.7596028,26.574 75.3009362,26.49 C75.8422695,26.406 76.3789362,26.3313333 76.9109362,26.266 C77.4429362,26.2006667 77.9516028,26.1166667 78.4369362,26.014 C78.9222695,25.9113333 79.3142695,25.748 79.6129362,25.524 L79.6129362,25.524 L79.6129362,27.96 C79.6129362,28.296 79.5289362,28.6553333 79.3609362,29.038 C79.1929362,29.4206667 78.9316028,29.7753333 78.5769362,30.102 C78.2222695,30.4286667 77.7649362,30.6993333 77.2049362,30.914 C76.6449362,31.1286667 75.9729362,31.236 75.1889362,31.236 Z M87.1729362,38.796 C87.6956028,38.796 88.1576028,38.726 88.5589362,38.586 C88.9602695,38.446 89.3242695,38.222 89.6509362,37.914 C89.9776028,37.606 90.2762695,37.2093333 90.5469362,36.724 C90.8176028,36.2386667 91.0929362,35.6413333 91.3729362,34.932 L91.3729362,34.932 L97.6729362,18.524 L95.1529362,18.524 L91.0929362,30.368 L91.0369362,30.368 L86.8089362,18.524 L84.1209362,18.524 L89.8609362,32.916 L88.8809362,35.352 C88.7129362,35.7813333 88.4656028,36.1126667 88.1389362,36.346 C87.8122695,36.5793333 87.4062695,36.696 86.9209362,36.696 C86.7342695,36.696 86.5056028,36.6633333 86.2349362,36.598 C85.9642695,36.5326667 85.7262695,36.4533333 85.5209362,36.36 L85.5209362,36.36 L85.5209362,38.544 C85.7822695,38.6373333 86.0529362,38.7026667 86.3329362,38.74 C86.6129362,38.7773333 86.8929362,38.796 87.1729362,38.796 Z M102.208936,33 L102.208936,13.008 L99.8289362,13.008 L99.8289362,33 L102.208936,33 Z M108.424936,15.92 L108.424936,13.008 L106.044936,13.008 L106.044936,15.92 L108.424936,15.92 Z M108.424936,33 L108.424936,18.524 L106.044936,18.524 L106.044936,33 L108.424936,33 Z M118.308936,33 L118.308936,30.9 L117.216936,30.9 C116.843603,30.9 116.54027,30.886 116.306936,30.858 C116.073603,30.83 115.891603,30.7693333 115.760936,30.676 C115.63027,30.5826667 115.541603,30.452 115.494936,30.284 C115.44827,30.116 115.424936,29.892 115.424936,29.612 L115.424936,20.624 L118.308936,20.624 L118.308936,18.524 L115.424936,18.524 L115.424936,14.184 L113.044936,14.184 L113.044936,18.524 L110.580936,18.524 L110.580936,20.624 L113.044936,20.624 L113.044936,29.836 C113.044936,30.508 113.11027,31.0493333 113.240936,31.46 C113.371603,31.8706667 113.57227,32.188 113.842936,32.412 C114.113603,32.636 114.46827,32.79 114.906936,32.874 C115.345603,32.958 115.872936,33 116.488936,33 L118.308936,33 Z M127.100936,33.308 C128.743603,33.308 130.10627,32.8973333 131.188936,32.076 C132.271603,31.2546667 132.971603,30.032 133.288936,28.408 L130.936936,28.408 C130.731603,29.36 130.306936,30.0693333 129.662936,30.536 C129.018936,31.0026667 128.192936,31.236 127.184936,31.236 C126.400936,31.236 125.719603,31.1053333 125.140936,30.844 C124.56227,30.5826667 124.08627,30.2326667 123.712936,29.794 C123.339603,29.3553333 123.068936,28.8513333 122.900936,28.282 C122.732936,27.7126667 122.65827,27.1106667 122.676936,26.476 L133.512936,26.476 C133.55027,25.5986667 133.470936,24.6746667 133.274936,23.704 C133.078936,22.7333333 132.72427,21.8373333 132.210936,21.016 C131.697603,20.1946667 131.01627,19.518 130.166936,18.986 C129.317603,18.454 128.248936,18.188 126.960936,18.188 C125.971603,18.188 125.061603,18.3746667 124.230936,18.748 C123.40027,19.1213333 122.681603,19.644 122.074936,20.316 C121.46827,20.988 120.996936,21.7813333 120.660936,22.696 C120.324936,23.6106667 120.156936,24.6186667 120.156936,25.72 C120.19427,26.8213333 120.357603,27.8386667 120.646936,28.772 C120.93627,29.7053333 121.37027,30.508 121.948936,31.18 C122.527603,31.852 123.241603,32.3746667 124.090936,32.748 C124.94027,33.1213333 125.943603,33.308 127.100936,33.308 Z M130.992936,24.376 L122.676936,24.376 C122.71427,23.816 122.835603,23.2886667 123.040936,22.794 C123.24627,22.2993333 123.52627,21.8653333 123.880936,21.492 C124.235603,21.1186667 124.66027,20.8246667 125.154936,20.61 C125.649603,20.3953333 126.204936,20.288 126.820936,20.288 C127.41827,20.288 127.96427,20.3953333 128.458936,20.61 C128.953603,20.8246667 129.382936,21.114 129.746936,21.478 C130.110936,21.842 130.40027,22.276 130.614936,22.78 C130.829603,23.284 130.955603,23.816 130.992936,24.376 Z" id="Daylite-(Helvetica-Neue-28)" fill-opacity="0.8" fill="#000000" fill-rule="nonzero"></path>
        </g>
    </g>
</svg>