<?xml version="1.0" encoding="UTF-8" standalone="no"?>
<svg
   class="h-10 w-auto -mt-1 -mr-1 inline-block"
   width="64"
   height="64"
   viewBox="0 0 68.189999 62.63"
   version="1.1"
   id="svg4"
   sodipodi:docname="keila-logo-black.svg"
   inkscape:version="1.4.3 (0d15f75, 2025-12-25)"
   inkscape:export-filename="/Users/philipp/Downloads/keila-logo.png"
   inkscape:export-xdpi="396"
   inkscape:export-ydpi="396"
   xmlns:inkscape="http://www.inkscape.org/namespaces/inkscape"
   xmlns:sodipodi="http://sodipodi.sourceforge.net/DTD/sodipodi-0.dtd"
   xmlns="http://www.w3.org/2000/svg"
   xmlns:svg="http://www.w3.org/2000/svg">
  <defs
     id="defs8" />
  <sodipodi:namedview
     id="namedview6"
     pagecolor="#ffffff"
     bordercolor="#666666"
     borderopacity="1.0"
     inkscape:pageshadow="2"
     inkscape:pageopacity="0.0"
     inkscape:pagecheckerboard="0"
     showgrid="false"
     fit-margin-top="0"
     fit-margin-left="0"
     fit-margin-right="0"
     fit-margin-bottom="0"
     inkscape:zoom="2"
     inkscape:cx="72.25"
     inkscape:cy="29"
     inkscape:window-width="1470"
     inkscape:window-height="833"
     inkscape:window-x="0"
     inkscape:window-y="32"
     inkscape:window-maximized="0"
     inkscape:current-layer="svg4"
     inkscape:showpageshadow="2"
     inkscape:deskcolor="#d1d1d1" />
  <path
     fill="#10b981"
     d="M 2.4299995,7.4995599e-7 A 2.42,2.42 0 0 0 0.0099995,2.4200007 V 38.179999 a 2.42,2.42 0 0 0 2.42,2.41 H 37.309999 a 41.54,41.54 0 0 0 12,9.37 v 8.96 H 32.21 v -7.02 h 4.54 v -3.72 h -5.83 a 2.42,2.42 0 0 0 -2.42,2.42 v 9.62 a 2.42,2.42 0 0 0 2.42,2.41 h 19.699999 a 2.42,2.42 0 0 0 2.4,-2.41 v -8.53 a 58.58,58.58 0 0 0 14.66,3.89 l 0.5,-3.68 c -6,-0.83 -11,-2.36 -15.149999,-4.26 V 2.4200007 A 2.42,2.42 0 0 0 50.609999,7.4995599e-7 Z M 6.5499995,3.7100008 H 46.5 L 26.519999,22.549999 Z m -2.82,2.45 13.0799995,12.3399982 -13.0999995,15.23 z m 45.5999995,0 V 45.719999 c -11.699999,-6.5 -15.089999,-16.1 -15.28,-16.65 0,0 -1.14,4.02 0.83,7.81 H 5.9099995 l 13.6099995,-15.83 5.35,5.04 a 2.4,2.4 0 0 0 3.31,0 z m -7.39,19.5999982 a 2.8,2.8 0 1 0 0,5.6 2.8,2.8 0 0 0 0,-5.6 z"
     id="path2"
     style="fill:#000000" />
</svg>
