<svg xmlns="http://www.w3.org/2000/svg" id="Layer_1" viewBox="0 0 770 180"><defs><style>.cls-2{fill:#6366f1}.cls-3{fill:#24272a}</style></defs><path d="M61.79 7.88c2.06.02 4.05.73 5.68 2.01l92.56 70.23c2.43 1.85 3.84 4.78 3.78 7.87v4.03c0 3.63-2 6.95-5.18 8.6a9.386 9.386 0 0 1-9.89-.77L60.7 34.96a9.389 9.389 0 0 0-5.58-1.85h-6.77a9.44 9.44 0 0 0-6.73 2.84 9.794 9.794 0 0 0-2.78 6.85v94.74c0 5.34 4.25 9.67 9.5 9.67h7.17a9.39 9.39 0 0 1 6.72 2.83 9.77 9.77 0 0 1 2.78 6.84v5.82c0 2.58-1 5.05-2.81 6.87a9.416 9.416 0 0 1-6.78 2.8H23.63c-5.25 0-9.5-4.33-9.5-9.67V17.68c-.01-2.57.99-5.04 2.77-6.86a9.432 9.432 0 0 1 6.73-2.85h38.15v-.1Z" style="fill:#4338ca"/><path d="M203.84 8.02c5.25 0 9.5 4.33 9.5 9.67v145.04c0 5.34-4.25 9.67-9.5 9.67h-38.15l.02.08a9.402 9.402 0 0 1-5.68-2.01l-92.56-70.21a9.759 9.759 0 0 1-3.82-7.89v-4.03c0-3.64 2-6.97 5.18-8.62a9.362 9.362 0 0 1 9.9.79l88.09 64.95a9.459 9.459 0 0 0 5.58 1.83h6.71a9.39 9.39 0 0 0 6.72-2.83 9.77 9.77 0 0 0 2.78-6.84v-94.8c0-2.57-.99-5.03-2.78-6.84a9.43 9.43 0 0 0-6.72-2.83h-7.09a9.39 9.39 0 0 1-6.72-2.83 9.77 9.77 0 0 1-2.78-6.84v-5.8c0-5.34 4.25-9.67 9.5-9.67h31.81Zm429.37 164.31v-58.58h29.52c6.6 0 10.47 3.51 10.47 9.5v39.57c0 5.89-3.9 9.47-10.37 9.49-9.42.03-18.83 0-28.25 0h-1.38Zm25.5-12.58v-33.46h-11.06v33.46h11.06ZM488.69 143.1c0 6.62.03 13.24-.01 19.86-.02 4.39-2.01 7.34-5.93 8.64-1.38.46-2.92.69-4.39.71-6.46.07-12.93.05-19.39.03-6.44-.03-10.38-3.65-10.38-9.51v-39.59c0-5.88 3.93-9.46 10.39-9.47 6.66 0 13.33-.03 19.99 0 4.76.02 8.26 2.47 9.42 6.62.29 1.04.28 2.17.28 3.26.02 6.48.01 12.97.01 19.45Zm-14.51 16.67V126.3h-11.03v33.47h11.03ZM303.5 132.49h-14.43v-6.17h-15.09v33.43h15.04v-7.09h9.33c.06.07 5.09.14 5.09.21-.01 4.88.32 6.84-.16 11.69-.49 4.87-4.22 7.66-9.54 7.75-6.91.11-17.75.13-24.66 0-5.88-.11-9.54-3.67-9.65-9.16-.08-3.97-.02-7.94-.02-11.91 0-9.31-.02-18.62 0-27.93.01-4.72 2.27-7.83 6.6-9.05 1.08-.31 2.25-.45 3.39-.46 6.71-.04 17.35-.04 24.06-.02 5.97.02 9.98 3.67 10.02 9.11.03 4.47 0 5 0 9.61Zm70 26.37h22.47v13.35h-37.7v-58.37h15.23v45.01Z" class="cls-2"/><path d="M756.68 29.55v12.77h-21.12a.89.89 0 0 0-.87.96V52c.05.45.43.79.87.79h15.06c1.85-.1 3.64.6 4.95 1.93a6.704 6.704 0 0 1 1.89 5.04v22.27c.1 1.87-.59 3.7-1.89 5.02a6.476 6.476 0 0 1-4.25 1.93h-31.66V76.13h21.89c.6 0 .95-.36.95-.79V66.7c0-.44-.36-.79-.95-.79h-15.06c-1.84.1-3.64-.6-4.94-1.93a6.61 6.61 0 0 1-1.89-4.34V36.5c-.1-1.88.58-3.71 1.89-5.04a6.43 6.43 0 0 1 4.25-1.93h30.89Zm-483.9 0 17.48 32.75V29.55h13.84v59.43h-14.27l-17.05-32.66v32.66h-13.85V29.55h13.85zm278.11 0 8.13 37.78 9.78-37.78h14.89l-17.4 59.43h-14.53l-16.97-59.43h16.1zm-67.66 40.6h.44c3.61-.06 6.52-3.03 6.57-6.71V36.23c0-3.69-2.94-6.69-6.57-6.69h-36.68v59.43h15.04V70.14h6.39l7.28 18.83h14.71l-7.19-18.83Zm-7.96-12.79c-.07.41-.39.73-.79.79h-12.45V42.3h12.45c.44.07.77.44.79.89v14.18Z" class="cls-3"/><path id="Path" d="M356.7 30.51h40.76v12.55h-24.78v10.22h21.46v12.47h-21.46V76.3h24.78v12.64H356.7V30.51z" class="cls-3"/><path id="Path-2" d="M632.87 30.51h40.76v12.55h-24.78v10.22h21.46v12.47h-21.46V76.3h24.78v12.64h-40.76V30.51z" class="cls-3" data-name="Path"/><path id="Path-3" d="M552.94 113.93v44.93c.03.42.36.75.77.77h10.7c.46.05.87-.3.93-.77v-44.93h14.67v51.76c.03 1.77-.63 3.47-1.84 4.73a6.293 6.293 0 0 1-4.58 1.95h-28.82c-3.58-.01-6.48-3-6.48-6.67v-51.76h14.65Z" class="cls-2" data-name="Path"/></svg>