<svg width="211" height="134" viewBox="0 0 211 134" fill="none" xmlns="http://www.w3.org/2000/svg">
<path d="M28.3578 24.7393L20.357 32.74C19.8671 33.23 19.5919 33.8944 19.5919 34.5873V99.6318L28.3578 108.398C30.0035 110.043 32.8171 108.878 32.8171 106.551V26.5864C32.8171 24.2591 30.0035 23.0937 28.3578 24.7393Z" fill="black"/>
<path d="M46.8685 34.3391V98.7978C46.8685 99.8111 47.4546 100.733 48.3721 101.163L69.5982 111.113C71.3305 111.925 73.3192 110.661 73.3192 108.748V24.3894C73.3192 22.4763 71.3305 21.2121 69.5982 22.0241L48.3721 31.9739C47.4546 32.4039 46.8685 33.3258 46.8685 34.3391Z" fill="black"/>
<path d="M84.0649 34.599V98.5379C84.0649 99.6804 84.8075 100.69 85.8981 101.031L120.35 111.797C122.032 112.323 123.741 111.066 123.741 109.304V23.8329C123.741 22.0707 122.032 20.814 120.35 21.3397L85.8981 32.1058C84.8075 32.4466 84.0649 33.4566 84.0649 34.599Z" fill="black"/>
<path d="M132.833 98.3467V34.7904C132.833 33.5586 133.693 32.4942 134.898 32.2361L187.534 20.957C189.16 20.6085 190.694 21.8482 190.694 23.5112V109.626C190.694 111.289 189.16 112.529 187.534 112.18L134.898 100.901C133.693 100.643 132.833 99.5784 132.833 98.3467Z" fill="black"/>
</svg>
