<svg height="803.027344" viewBox="0 0 600 803.027344" width="600" xmlns="http://www.w3.org/2000/svg"><g fill="none" fill-rule="evenodd"><g transform="translate(0 -.0332)"><path d="m543.278303 199.206345-31.190707-111.3408821-111.340882-31.1907069 41.746499 100.78509z" fill="#e3f3fb"/><path d="m501.531803 299.991434-59.03859-142.531588 100.78509 41.746499z" fill="#99c5d4"/><path d="m512.104856 87.8407825 31.190868 111.3408815 33.825865-14.01121c-14.870186-36.057263-37.375971-69.736658-65.000279-97.2711161z" fill="#4e7eac"/><path d="m577.121589 185.170454c14.998426 36.025163 22.910028 75.77384 22.849083 114.7963l-56.674948-100.78509z" fill="#16495e"/><path d="m543.295724 400.751844 56.674595-100.78509-56.674595-100.78509-41.746499 100.78509z" fill="#ace6ea"/><path d="m442.510635 442.498343 59.03859-142.531589 41.746499 100.78509z" fill="#b6d6e8"/><path d="m600 299.961592-56.674595 100.78509 33.825865 14.01121c14.98165-36.011128 22.882605-75.740126 22.819049-114.74339z" fill="#406484"/><path d="m577.15127 414.757892c-14.867927 36.07904-37.380327 69.779889-65.016572 97.329672l31.190707-111.340882z" fill="#5b84a6"/><path d="m400.793816 543.278432 111.340882-31.190868 31.190707-111.340882-100.785089 41.746499z" fill="#9bc4e4"/><path d="m300.008727 501.531771 142.531589-59.03859-41.7465 100.785251z" fill="#506882"/><path d="m512.159379 512.104985-111.340882 31.190707 14.01121 33.826026c36.057263-14.870186 69.736658-37.375971 97.271116-65.000441z" fill="#3c6a91"/><path d="m414.829707 577.121718c-36.025162 14.998426-75.773839 22.909866-114.7963 22.848922l100.78509-56.674948z" fill="#1d4268"/><path d="m199.248318 543.295853 100.785089 56.674595 100.78509-56.674595-100.78509-41.74666z" fill="#4d87b9"/><path d="m157.501818 442.510764 142.531589 59.038429-100.785089 41.74666z" fill="#6588a8"/><path d="m300.038569 600.000129-100.785089-56.674756-14.011211 33.826026c36.011129 14.98165 75.740126 22.882605 114.743391 22.818888z" fill="#156a90"/><path d="m185.242269 577.151399c-36.07904-14.868089-69.779889-37.380327-97.3296714-65.016733l111.3408824 31.190707z" fill="#316087"/><path d="m56.7218907 400.793945 31.1907069 111.340882 111.3408824 31.190707-41.7465-100.785089z" fill="#417bb1"/><path d="m98.4683901 300.008856 59.0385899 142.531589-100.7850893-41.7465z" fill="#87bdd7"/><path d="m87.8951761 512.159347-31.1907068-111.340882-33.8260256 14.01121c14.8701852 36.057424 37.3759709 69.736658 65.0004401 97.271277z" fill="#284963"/><path d="m22.8784437 414.829675c-14.99844251-36.025001-22.90993138-75.773678-22.84905094-114.796139l56.67507654 100.784929z" fill="#467baa"/><path d="m56.7044693 199.248447-56.67467537 100.785089 56.67467537 100.78509 41.7464993-100.78509z" fill="#7fadd0"/><path d="m157.489559 157.501947-59.0385904 142.531589-41.7464993-100.785089z" fill="#abcae7"/><path d="m0 300.038537 56.6746269-100.78509-33.8258642-14.011049c-14.98168243 36.011129-22.88257324 75.739965-22.81901717 114.743229z" fill="#94c0ce"/><path d="m22.8487627 185.242398c14.8679268-36.079039 37.3803263-69.78005 65.0167324-97.3296713l-31.1908682 111.3407203z" fill="#b3d6e2"/><path d="m199.206377 56.7218585-111.3408819 31.1908682-31.1908682 111.3407203 100.7850901-41.746499z" fill="#e7fafa"/><path d="m299.991467 98.4685191-142.53175 59.0384289 41.74666-100.7850895z" fill="#aed4f0"/><path d="m87.8408147 87.8953052 111.3407203-31.1908682-14.011049-33.8258642c-36.057424 14.8700238-69.736819 37.3759709-97.2712771 65.0002788z" fill="#c6dde5"/><path d="m185.170486 22.8785728c36.025002-14.99842643 75.773679-22.91002822 114.796139-22.84908399l-100.78509 56.67494819z" fill="#a9d5e9"/><path d="m400.751876 56.704437-100.78509-56.67459468-100.785089 56.67459468 100.785089 41.7466607z" fill="#f8ffff"/><path d="m442.498375 157.489527-142.531589-59.0384293 100.78509-41.7466607z" fill="#c2e8f8"/><path d="m299.961624 0 100.784929 56.674756 14.01121-33.8260255c-36.011129-14.98165023-75.740126-22.88244425-114.743229-22.81888818z" fill="#bedee6"/><path d="m414.757763 22.8487305c36.07904 14.8680881 69.779889 37.3804875 97.329672 65.0167324l-111.340882-31.1907069z" fill="#9fcff0"/></g><g fill-rule="nonzero"><g fill="#102433" transform="translate(353.6133 676.7578)"><path d="m83.0271691 22.9680358c-6.2444166 1.882194-12.5297081 3.9576087-18.715088 6.1830537.02725-2.8437519-.1725732-5.6784097-.6471473-8.4562372-1.1739508-6.8559158-4.5958916-13.68455403-10.3089658-17.82401656-6.469217-4.68730123-15.0955987-3.17790889-21.3309334 1.24115751-8.5923181 6.08985595-14.6096659 14.91434885-18.7627722 24.44807345-.1407823.3205192-.2724826.6455845-.4087261.9683767.1657597-2.043589.306544-4.0917261.4881991-6.1353151.422351-4.7259437 1.4418925-9.7269432 1.2602374-14.46198088-.2361529-6.17396183-9.51422275-7.90157962-11.08100414-1.50029837-1.16259631 4.74867755-1.14670297 9.98154235-1.52590858 14.85069745-.37466465 4.8236937-.70391554 9.6519313-.98775265 14.4824439-.57675614 9.8474249-.85605231 19.7107606-.96958673 29.5740963-.11126394 9.6973926.01362286 19.3584157.50863549 29.0444435.50182405 9.7974138 1.72800006 19.4129728 3.0563581 29.1240058.38828963 2.834658 4.70488512 1.982215 4.80933764-.652404.37920773-9.686027.9627753-19.340232 1.23298955-29.0308053.26567119-9.49508.51544692-18.994708.89919562-28.4852421.2724826-6.7195254.6698541-13.432232 1.1012871-20.1426656 1.01273-3.9212392 2.3910427-7.7606434 4.0214038-11.3772761 1.6371726-3.6279976 3.8488307-6.8627347 6.260312-10.00882 2.3002153-3.002874 4.5164165-6.0239337 7.6863112-8.1834565 3.0381922-2.0708688 6.1059048-3.3256641 9.6936074-4.0735424.4178079-.086381.8356159-.1704891 1.2556964-.2455052.1544072-.0272798.2338824-.0431905.2861076-.0545575.0295183-.0045459.0386002-.0045459.0749321-.0090918.5381559-.0636493 1.0445209-.0545553 1.5599699-.0500094-.3269804-.0136378-.1498663-.0454635.2429643 0 .097639 0 .1930096.002273.2929191 0-.1089935.002273-.1861982.002273-.2702143.002273.1271594.0159128.2702143.0363716.4291624.0727432.5358855.1204796 1.2057396.3796226 1.7393546.4228131.0113545 0 .0113545-.0022729.022709-.0022729.0386024.0250047.0522273.0386424.0976411.068193.4019125.261416.8356159.5046461 1.2511534.7456033.0726616.0409175.1021799.0545553.158946.0863789.0158955.0181858.0158955.0227317.0363319.0477364.426892.4750933.9309865.9160902 1.3805832 1.3729998.1021821.1045668.1634913.1636702.227071.2227735.0158955.0295506.0204364.0431884.0454159.0841059.2883781.4841874.6357949.9365511.9264434 1.4230114.3406033.5682953.6380654 1.1570494.9446094 1.7435306.1317003.2523241.2384212.5137401.3610397.7683371.0068114.0204588.0068114.0250047.0136228.0454635.8855706 2.7914674 1.7938503 5.4579092 2.2479901 8.3675832.0022704.0204588.0022704.0250047.004543.0500094.0363319.3568888.0749342.7137776.1067252 1.0706664.0703911.8137984.1158049 1.6298719.1430548 2.4459455.0249774.7456032.0249774 1.4912065.0113545 2.2368098-7.7067475 3.0733421-15.3817063 6.5058459-22.3572884 10.9567359-6.3125393 4.0303519-15.1341989 10.9317312-12.1709388 19.6471114 1.861973 5.476095 8.8693438 7.5537826 14.0874075 7.1127858 5.1090702-.4319049 9.9274898-2.8028343 14.0647007-5.7443319 10.3044249-7.3219195 16.3058793-19.4084272 17.5570326-31.8791035 2.879244-1.1479576 5.749404-2.3140989 8.637732-3.4438707 3.80796-1.4889336 7.6931225-2.8778463 11.294448-4.8214166 1.2693193-.677408.4064534-2.7460018-.9832138-2.3277367zm-30.7883921 16.9374812c-.3496873 1.7162509-.8038271 3.4097721-1.3669604 5.0691947-1.0013776 2.9505895-2.5363681 5.7920663-4.4551073 8.4266845-4.2484748 5.8284379-12.5842058 13.7391114-20.4249263 10.6248518-4.9728268-1.9753938-2.781605-7.269635-.2634029-10.3657088 2.1321852-2.6232513 4.7344056-4.6031932 7.5750472-6.4058272 6.0264318-3.8257663 12.6273492-6.67861 19.2963894-9.2700378-.0681207.4750934-.1657597.9661017-.3610397 1.9208365z"/><path d="m129.544661 22.8312368c-3.226205-1.555153-5.244571-5.6035623-7.024547-8.5294366-2.066044-3.394926-3.941375-7.28166889-6.62269-10.24397497-4.372747-4.83395331-10.763859 1.10659592-14.030932 4.29204214-5.5079348 5.36903643-8.5774847 12.34559463-11.3882113 19.40640013-.2361196.5920055-.4495354 1.1908411-.6788445 1.7851232.4472652-7.1245601 1.0670772-14.2377345 1.7867866-21.33952522.2179562-2.15171395-1.3871989-4.77019868-3.273883-5.72423926-1.6142378-.81514559-3.3215605-1.27736718-5.092454-.66714582-2.8538638.98364012-4.7518987 3.32889467-4.8517941 6.39138508-.2701761 8.26531112-.4563459 16.53745032-.3223939 24.80731492.0658408 4.0643464.2724441 8.119586.5721344 12.1725467.1589258 2.1539906.4132087 4.3034257.7242519 6.4414772.3178536 2.1881437.5176464 4.5333961 2.3498404 6.0020272 1.2963842 1.0382857 3.0559269 1.4321971 4.4794546.5828964 1.2759528-.250463 2.4474678-.9722544 3.0423059-2.1722045 6.2639711-12.6393217 9.8965727-26.378407 15.795013-39.1816677 1.348604-2.928151 2.020636-7.090405 5.146946-8.69337337.433642-.22086341 1.353144-.24818834 1.639212-.50548358-.006811.00683017.136224-.02049264.252012-.06147791.299691.42578764.588028.69674535.914962 1.16351826 2.406601 3.4222488 4.493078 7.0380361 7.03136 10.373761 1.916199 2.5205792 5.476149 7.4160104 9.201837 6.382276 1.139729-.3164943 1.518883-2.1198334.349641-2.6822393z"/><path d="m170.54484 36.1938246c1.592194-4.5292433 2.376948-9.2745985 1.87797-14.0427043-1.059193-10.118574-9.006557-20.2394227-19.630255-20.84908508-6.715791-.38444988-13.027865 3.4395878-16.715768 8.94929558-.052167-.0318471-.090725-.0727948-.142892-.1046418-2.853248-1.67429694-7.779525-.94406814-9.237902 2.4295488-1.998181 4.6247887-2.764792 9.5999057-3.411196 14.572748-.843728 6.5038221-1.000225 13.0144703.131548 19.4978186 1.08868 6.2353894 4.336576 12.5117265 10.299365 15.2802282 9.553164 4.4337001 20.104284-1.0532613 26.466255-8.4511032 3.195728-3.7148444 6.180525-8.0006781 8.419123-12.6140916 9.33316-2.6843337 18.29889-7.9301601 25.184788-14.5431755 1.297344-1.2466225-.458153-3.6852699-1.961891-2.5569392-6.359697 4.7703762-13.558591 9.5748783-21.279145 12.4321015zm-26.148729 14.977676c-.834654.2388603-1.567245.2729841-2.424579.3207557-.197323.0113753-.319799.0227507-.408254.0363985-.043093-.0136478-.079383-.0272978-.156499-.0477717-.435472-.1091932-.86414-.2434096-1.297344-.3617035-.147426-.0750694-.294852-.1501409-.43774-.2365856-.083919-.0523231-.165569-.1091933-.24722-.1637888-.222272-.2593342-.480833-.5163938-.732589-.7666294-.079384-.1137425-.167839-.241135-.258562-.4094751-.083919-.1546903-.392378-.7461534-.555679-1.0464353-.095261-.2206611-.199593-.4640729-.231345-.5550669-.185984-.5118423-.369698-1.0214121-.526195-1.5423551-.353823-1.1829263-.562485-2.3795026-.807439-3.5851774-.002268-.0068239-.002268-.0068239-.002268-.0136478-.027219-.2479589-.058971-.4959178-.081652-.7461513-.065774-.6983817-.115671-1.3967635-.149693-2.0974198-.065775-1.3330673-.077116-2.6706838-.049898-4.0037511.022681-1.0236868.092991-2.0450968.161036-3.0687836 1.934674 3.1529537 4.590599 5.8372874 7.772718 7.5525321 3.093664 1.6674708 6.708988 2.3249048 10.358333 2.4181735-.310726.4117498-.605578.8303235-.925378 1.2261487-2.34293 2.9186426-5.298242 6.0306486-8.999753 7.0907339zm6.604657-12.9257425c-13.35447-2.5660399-18.348789-25.0894197-3.125418-29.02947455 3.352226-.86672193 6.867755.14786419 9.530483 2.31580635 3.041499 2.4750458 4.316162 5.8259142 4.567921 9.6749751.412791 6.3241087-1.639823 12.2728641-4.862771 17.586936-2.018594.0068218-4.055333-.1546945-6.110215-.5482429z"/></g><g fill="#284963" transform="translate(59.4727 648.6328)"><path d="m61.4186537 48.7243402c-1.6537296-3.8653889-3.9576751-7.299168-6.8457082-10.1934681-2.8718304-2.8767829-6.3007441-5.179052-10.1896564-6.8446411-3.8821942-1.6588719-8.0800117-2.503125-12.4788482-2.503125-4.4055547 0-8.5979713.837536-12.4518437 2.5085251-3.8592732 1.6547889-7.265266 3.9570581-10.1316955 6.8459581-2.86511224 2.887583-5.15693858 6.3159621-6.81738638 10.186751-1.65913052 3.8694717-2.50351532 8.067952-2.50351532 12.47822 0 4.3981507.8389839 8.5845138 2.50351532 12.4553026 1.6604478 3.8532716 3.95227414 7.2695336 6.81738638 10.1571165 2.8772313 2.8943001 6.2832241 5.1978864 10.1316955 6.839241 3.8592733 1.665589 8.046289 2.5098422 12.4518437 2.5098422 4.3988365 0 8.596654-.8388531 12.4788482-2.5031251 3.8659914-1.6547889 7.2949051-3.951658 10.1896564-6.8459581 2.8826322-2.8767828 5.1852604-6.2984448 6.8511091-10.1571165 1.6604478-3.8761889 2.5035153-8.0625519 2.5035153-12.4553026-.0054009-4.4048679-.8497857-8.6020311-2.5089162-12.47822zm-8.1379726 21.3956935c-1.2289027 2.7728646-2.9070022 5.2422723-4.9856905 7.3381538-2.0678865 2.0850815-4.5430801 3.7560706-7.3569496 4.9672643-2.8030677 1.2003937-5.8070227 1.8032247-8.9257138 1.8032247-3.1699338 0-6.1846906-.602831-8.9525866-1.8032247-2.7801468-1.2003936-5.2499394-2.8713827-7.3286278-4.9726643-2.0786883-2.0958816-3.7567878-4.5652892-4.9856905-7.3327538-1.2113826-2.7567961-1.83182759-5.7602828-1.83182759-8.9176052 0-3.1640397.61504409-6.1797753 1.83169589-8.9756889 1.2181008-2.7972307 2.8947513-5.2774385 4.9801579-7.36792 2.0665692-2.0675641 4.5309609-3.7385532 7.3340287-4.9726643 2.7786978-1.2111938 5.7949035-1.8261421 8.9473174-1.8261421 3.1186911 0 6.1173769.6149483 8.9189956 1.8261421 2.8205877 1.2408282 5.2957812 2.9118173 7.3636678 4.9726643 2.0840892 2.0904815 3.7553388 4.5706893 4.9788405 7.36792 1.2181008 2.7959136 1.8386845 5.8224493 1.8386845 8.9756889.0106631 3.1519224-.6096501 6.1432918-1.8263019 8.9176052z"/><path d="m130.210196 48.7243402c-1.516204-3.8532716-3.629932-7.2695336-6.283224-10.1584336-2.653291-2.8875829-5.805705-5.1965693-9.372276-6.8675584-3.573289-1.6709891-7.460884-2.5152422-11.550815-2.5152422-2.865113 0-5.5480432.3789261-7.9773949 1.13691-2.4118317.757984-4.5997236 1.8086248-6.494913 3.1465224-1.6200069 1.13151-3.0957703 2.4518903-4.3826338 3.9166235l-2.0153265 2.2914691v-39.674631h-9.2925799v92.1417391h9.2925799v-7.5675905l1.9302294 1.7965076c.8039439.7525838 1.7224923 1.4822504 2.750376 2.1889996 1.8318276 1.2624285 4.088614 2.3481039 6.7135837 3.2327916 2.6478906.8779707 5.8353445 1.3203804 9.4706781 1.3203804 4.089931 0 7.972125-.8442532 11.556216-2.5260424 3.548919-1.6547889 6.701333-3.951658 9.366743-6.8230408 2.647891-2.8538655 4.76702-6.2580102 6.294026-10.1287991 1.510804-3.8586716 2.274307-8.0571519 2.274307-12.48362-.005401-4.3927507-.768772-8.5737138-2.279576-12.4269853zm-8.654746 21.4079424c-1.085845 2.7851136-2.596648 5.2532041-4.48512 7.3328855-1.872268 2.060847-4.095332 3.7156359-6.605697 4.9145808-2.480594 1.1827447-5.151406 1.7922929-7.947756 1.7922929-2.7976663 0-5.4738788-.602831-7.9490723-1.7924246-2.5103652-1.1935448-4.7494998-2.8537338-6.6514075-4.9199809-1.9005903-2.0675642-3.4275963-4.5369718-4.5417627-7.3342025-1.1033646-2.7851135-1.6712496-5.7940002-1.6712496-8.9230053 0-3.1290052.5624841-6.1324918 1.6712496-8.9297225 1.1141664-2.7905136 2.6411724-5.2599212 4.5417627-7.3207683 1.9019077-2.0729642 4.1356414-3.7331532 6.6460066-4.926698 2.4805944-1.1841935 5.151406-1.7924246 7.9477552-1.7924246 2.792266 0 5.468479.6028311 7.943672 1.7924246 2.515766 1.1989449 4.744099 2.8591339 6.609649 4.9199809 1.889789 2.0729642 3.395191 4.5369718 4.486437 7.3274854 1.084527 2.7851135 1.64161 5.7940002 1.64161 8.9297225 0 3.1357222-.544832 6.1380235-1.636077 8.9298541z"/><path d="m189.992509 29.33141-.063362 9.7335411-1.976203-2.1471163c-1.251824-1.366215-2.709935-2.589526-4.324541-3.6293667-2.009926-1.297463-4.295034-2.3143864-6.787879-3.0319357-2.487445-.7175494-5.135335-1.0735581-7.885711-1.0735581-4.29622 0-8.328058.8442531-11.991714 2.5152422-3.664972 1.664272-6.880748 3.9907756-9.562361 6.8958758-2.676213 2.9051002-4.80206 6.3401965-6.318264 10.2163854-1.516204 3.881589-2.279707 8.067952-2.279707 12.4538539 0 4.3994678.775622 8.5737137 2.314747 12.4161852 1.533724 3.8640717 3.663655 7.2695335 6.346586 10.128799 2.687014 2.8767829 5.904107 5.1803691 9.562361 6.839241 3.663655 1.665589 7.677974 2.5152423 11.933753 2.5152423 2.711252 0 5.306583-.3384915 7.725133-1.0048062 2.429351-.6717147 4.675336-1.6482035 6.66761-2.911949 1.584967-1.0048062 3.233295-2.3764213 4.405554-3.6914016l2.004525-2.2402343v3.0034866c0 1.5334852 0 5.4892262 9.107764 5.7994003v-52.7839994c-.005401-5.1384857-3.887332-9.4054545-8.878291-10.0028855zm-1.849612 40.9610305c-1.022482 2.7553473-2.469924 5.1910375-4.301752 7.2410844-1.821025 2.0271296-4.026437 3.6455669-6.565124 4.8176432-2.521167 1.1652274-5.324235 1.7626584-8.321472 1.7626584-3.027007 0-5.858397-.602831-8.414604-1.7924246-2.549489-1.1935448-4.790072-2.8362165-6.655623-4.8862634-1.866867-2.055447-3.342631-4.4965372-4.388034-7.2640018-1.050805-2.7674645-1.584967-5.7709512-1.584967-8.9120735s.534162-6.150009 1.590367-8.9459226c1.050805-2.7918307 2.515767-5.2599212 4.365114-7.3274854 1.843947-2.0621641 4.07228-3.7264361 6.62717-4.938947 2.550806-1.2057937 5.399715-1.8140248 8.465846-1.8140248 3.027008 0 5.840877.6082311 8.368763 1.8086248 2.526568 1.2179109 4.73738 2.8889 6.563807 4.9726644 1.826427 2.0958815 3.268468 4.5706892 4.278831 7.3558027 1.017082 2.7851135 1.533724 5.8008491 1.533724 8.9581716-.0054 3.1815569-.528761 6.1955803-1.562046 8.9644936z"/><path d="m260.897779 45.0559877c-1.251823-3.1586396-3.02569-5.9491532-5.271674-8.3039742-2.240584-2.3373037-4.927598-4.2200805-7.995047-5.5862955-3.07825-1.3675321-6.438401-2.0621641-9.992721-2.0621641-2.136649 0-4.238258.2751396-6.242783.8321359-1.981604.5407962-3.876793 1.3149803-5.634457 2.3035863-1.544526.8779706-2.986567 1.9286115-4.284232 3.118205l-1.924829 1.7681902v-7.8777646h-8.987758v62.8843493h8.987758v-37.6124668c.03504-2.3197865.505841-4.4277852 1.43664-6.4495148.918548-2.0096123 2.170372-3.7724024 3.727017-5.2533357 1.551244-1.4822505 3.376354-2.6597268 5.433438-3.50398 2.043649-.8442532 4.24366-1.2745457 6.523367-1.2745457 2.573727 0 4.905994.4478098 6.938841 1.3203804 2.032846.8740193 3.801312 2.0904815 5.260873 3.6239666 1.464961 1.5442853 2.635771 3.3704273 3.474755 5.4271913.837667 2.055447 1.361027 4.3239988 1.516204 6.6208679v36.9692012l8.929798-.0525518v-36.727779c-.005401-3.5889322-.636648-7.0117795-1.89519-10.1637019z"/></g></g></g></svg>