<?xml version="1.0" encoding="UTF-8" standalone="no"?>
<!-- Created with Inkscape (http://www.inkscape.org/) -->

<svg
   xmlns:dc="http://purl.org/dc/elements/1.1/"
   xmlns:cc="http://creativecommons.org/ns#"
   xmlns:rdf="http://www.w3.org/1999/02/22-rdf-syntax-ns#"
   xmlns:svg="http://www.w3.org/2000/svg"
   xmlns="http://www.w3.org/2000/svg"
   xmlns:sodipodi="http://sodipodi.sourceforge.net/DTD/sodipodi-0.dtd"
   xmlns:inkscape="http://www.inkscape.org/namespaces/inkscape"
   version="1.1"
   id="svg2"
   xml:space="preserve"
   viewBox="0 0 493.5574 197.51219"
   sodipodi:docname="OSADL-Logo-neu_mit-Text_ohne-Rand.svg"
   inkscape:version="0.92.4 (unknown)"><metadata
     id="metadata8"><rdf:RDF><cc:Work
         rdf:about=""><dc:format>image/svg+xml</dc:format><dc:type
           rdf:resource="http://purl.org/dc/dcmitype/StillImage" /><dc:title></dc:title></cc:Work></rdf:RDF></metadata><defs
     id="defs6"><clipPath
       clipPathUnits="userSpaceOnUse"
       id="clipPath18"><path
         d="M 0,841.89 H 595.276 V 0 H 0 Z"
         id="path16"
         inkscape:connector-curvature="0" /></clipPath></defs><sodipodi:namedview
     pagecolor="#ffffff"
     bordercolor="#666666"
     borderopacity="1"
     objecttolerance="10"
     gridtolerance="10"
     guidetolerance="10"
     inkscape:pageopacity="0"
     inkscape:pageshadow="2"
     inkscape:window-width="1687"
     inkscape:window-height="639"
     id="namedview4"
     showgrid="false"
     fit-margin-top="0"
     fit-margin-left="0"
     fit-margin-right="0"
     fit-margin-bottom="0"
     inkscape:zoom="0.45014485"
     inkscape:cx="261.02622"
     inkscape:cy="255.95226"
     inkscape:window-x="38"
     inkscape:window-y="157"
     inkscape:window-maximized="0"
     inkscape:current-layer="g10" /><g
     id="g10"
     inkscape:groupmode="layer"
     inkscape:label="osadl-logo-2020-2"
     transform="matrix(1.3333333,0,0,-1.3333333,-135.82446,502.81992)"><g
       id="g1623"><path
         d="m 171.5098,351.1241 c -15.141,-0.022 -29.919,-8.585 -37.21,-21.897 -10.016,-17.386 -7.092,-41.359 7.558,-55.282 14.84,-14.735 40.461,-16.092 57.023,-3.488 12.603,9.297 19.062,25.643 17.288,41.075 -3.127,23.515 -21.556,39.164 -44.659,39.592 m 0.15,-17.751 c 9.864,0.531 19.802,-5.132 23.799,-14.268 5.708,-12.074 2.474,-28.679 -9.372,-35.836 -10.39,-6.262 -25.479,-4.52 -33.259,5.138 -12.82,18.139 -3.621,43.329 18.832,44.966"
         style="fill:#333e4a;fill-opacity:1;fill-rule:nonzero;stroke:none"
         id="path22"
         inkscape:connector-curvature="0" /><path
         d="m 237.9937,327.7755 c 0,3.7 2.035,6.762 6.622,6.762 h 24.092 c 0.783,0 1.417,0.634 1.417,1.417 v 13.749 c 0,0.783 -0.634,1.418 -1.417,1.418 h -28.42 c -10.072,0 -22.189,-7.151 -22.189,-23.725 0,-22.437 35.442,-31.882 35.442,-41.314 0,-3.83 -2.543,-6.372 -5.863,-6.372 h -27.902 c -0.782,0 -1.417,-0.635 -1.417,-1.418 v -15.016 c 0,-0.783 0.635,-1.418 1.417,-1.418 h 28.42 c 19.635,0 25.25,14.53 25.25,27.025 0,18.628 -35.452,30.865 -35.452,38.892"
         style="fill:#333e4a;fill-opacity:1;fill-rule:nonzero;stroke:none"
         id="path26"
         inkscape:connector-curvature="0" /><path
         d="m 320.8525,310.4943 h -21.109 c -0.783,0 -1.417,0.634 -1.417,1.417 v 10.37 c 0,6.522 2.881,11.787 11.907,11.787 9.024,0 12.036,-5.265 12.036,-11.787 v -10.37 c 0,-0.783 -0.635,-1.417 -1.417,-1.417 m -10.619,40.627 c -22.817,0 -31.473,-16.804 -31.473,-32.101 v -55.744 c 0,-0.783 0.634,-1.417 1.418,-1.417 h 16.73 c 0.783,0 1.418,0.634 1.418,1.417 v 28.758 c 0,0.783 0.634,1.417 1.417,1.417 h 21.109 c 0.782,0 1.417,-0.634 1.417,-1.417 v -28.758 c 0,-0.783 0.635,-1.417 1.417,-1.417 h 16.731 c 0.783,0 1.417,0.634 1.417,1.417 v 55.744 c 0,15.297 -8.775,32.101 -31.601,32.101"
         style="fill:#333e4a;fill-opacity:1;fill-rule:nonzero;stroke:none"
         id="path30"
         inkscape:connector-curvature="0" /><path
         d="m 379.3701,279.7091 h -9.303 c -0.782,0 -1.417,0.635 -1.417,1.418 v 50.716 c 0,0.783 0.635,1.417 1.417,1.417 h 6.491 c 14.919,0 27.543,-9.693 27.543,-27.413 0,-12.884 -11.218,-26.138 -24.731,-26.138 m 2.294,71.412 h -30.464 c -0.782,0 -1.417,-0.635 -1.417,-1.418 v -86.427 c 0,-0.783 0.635,-1.417 1.417,-1.417 h 16.912 0.538 10.72 c 23.715,0 43.609,17.591 43.609,43.858 0,29.079 -23.983,45.404 -41.315,45.404"
         style="fill:#333e4a;fill-opacity:1;fill-rule:nonzero;stroke:none"
         id="path34"
         inkscape:connector-curvature="0" /><path
         d="m 457.7227,280.7267 c -6.382,0 -9.703,2.294 -9.703,10.461 v 58.516 c 0,0.783 -0.635,1.418 -1.417,1.418 h -16.033 c -0.783,0 -1.417,-0.635 -1.417,-1.418 v -61.069 c 0,-19.636 9.693,-26.776 23.973,-26.776 h 17.33 c 0.784,0 1.418,0.635 1.418,1.418 v 16.033 c 0,0.782 -0.634,1.417 -1.418,1.417 z"
         style="fill:#333e4a;fill-opacity:1;fill-rule:nonzero;stroke:none"
         id="path38"
         inkscape:connector-curvature="0" /><path
         d="m 208.9629,366.047 -6.254,-5.237 c -0.437,-0.367 -1.051,-0.434 -1.558,-0.173 -2.12,1.089 -4.255,2.144 -6.468,3.029 -0.542,0.216 -0.902,0.728 -0.901,1.312 0.005,1.871 0.015,5.988 0.019,7.964 0.002,0.649 -0.438,1.212 -1.067,1.373 l -4.664,1.189 c -0.607,0.155 -1.245,-0.108 -1.566,-0.646 l -4.109,-6.881 c -0.286,-0.481 -0.829,-0.746 -1.385,-0.68 -2.371,0.285 -4.743,0.54 -7.129,0.623 -0.576,0.021 -1.084,0.377 -1.283,0.917 l -2.717,7.352 c -0.22,0.597 -0.814,0.974 -1.45,0.921 l -4.905,-0.421 c -0.637,-0.055 -1.158,-0.529 -1.273,-1.159 l -1.413,-7.754 c -0.102,-0.558 -0.525,-1 -1.077,-1.126 -2.323,-0.535 -4.637,-1.099 -6.905,-1.834 -0.547,-0.177 -1.144,-0.016 -1.517,0.421 l -5.042,5.932 c -0.413,0.486 -1.101,0.636 -1.679,0.366 l -4.463,-2.084 c -0.578,-0.27 -0.904,-0.892 -0.797,-1.521 l 1.311,-7.72 c 0.095,-0.559 -0.153,-1.12 -0.63,-1.428 -2.003,-1.292 -3.985,-2.612 -5.857,-4.089 -0.454,-0.358 -1.071,-0.417 -1.574,-0.131 -1.601,0.908 -5.109,2.897 -6.794,3.852 -0.557,0.316 -1.252,0.217 -1.703,-0.237 l -3.418,-3.451 c -0.445,-0.45 -0.538,-1.141 -0.228,-1.693 l 3.842,-6.83 c 0.275,-0.49 0.234,-1.095 -0.104,-1.546 -1.436,-1.908 -2.848,-3.834 -4.122,-5.855 -0.305,-0.484 -0.864,-0.742 -1.428,-0.648 l -7.699,1.293 c -0.63,0.107 -1.252,-0.221 -1.521,-0.801 l -2.028,-4.375 c -0.265,-0.574 -0.12,-1.252 0.356,-1.666 l 5.954,-5.173 c 0.422,-0.367 0.588,-0.948 0.425,-1.484 -0.697,-2.282 -1.361,-4.573 -1.856,-6.909 -0.12,-0.564 -0.56,-1.003 -1.128,-1.105 l -7.701,-1.383 c -0.63,-0.113 -1.105,-0.635 -1.161,-1.272 l -0.422,-4.833 c -0.056,-0.632 0.316,-1.224 0.909,-1.449 l 7.4,-2.802 c 0.527,-0.199 0.884,-0.692 0.912,-1.254 0.118,-2.386 0.269,-4.768 0.608,-7.133 0.081,-0.573 -0.178,-1.134 -0.678,-1.425 -1.608,-0.934 -5.156,-2.995 -6.836,-3.972 -0.545,-0.316 -0.811,-0.953 -0.659,-1.565 l 1.187,-4.765 c 0.157,-0.63 0.723,-1.073 1.373,-1.074 l 8.022,-0.011 c 0.568,-10e-4 1.08,-0.342 1.302,-0.864 0.929,-2.193 1.888,-4.373 3.004,-6.478 0.273,-0.513 0.213,-1.137 -0.164,-1.581 l -5.171,-6.075 c -0.413,-0.485 -0.452,-1.187 -0.094,-1.715 l 2.779,-4.095 c 0.365,-0.538 1.049,-0.759 1.659,-0.537 l 17.274,6.312 c 0.95,0.347 1.242,1.551 0.551,2.289 -10.22,10.9 -15.262,26.472 -13.134,41.287 2.34,19.408 17.083,36.494 35.883,41.78 16.755,5.086 35.837,0.472 48.609,-11.422 0.74,-0.689 1.942,-0.392 2.286,0.558 l 6.248,17.266 c 0.218,0.602 0.005,1.276 -0.52,1.643 l -3.938,2.757 c -0.525,0.367 -1.231,0.337 -1.723,-0.074"
         style="fill:#005d67;fill-opacity:1;fill-rule:nonzero;stroke:none"
         id="path42"
         inkscape:connector-curvature="0" /><path
         d="m 185.1899,306.505 c 0.08,-5.312 -3.553,-10.401 -8.597,-12.062 -5.38,-1.951 -11.911,0.281 -14.914,5.182 -3.358,5.029 -2.388,12.352 2.169,16.327 4.394,4.157 11.779,4.422 16.461,0.594 3.053,-2.372 4.909,-6.171 4.881,-10.041"
         style="fill:#005d67;fill-opacity:1;fill-rule:nonzero;stroke:none"
         id="path46"
         inkscape:connector-curvature="0" /><path
         d="m 121.6182,236.7931 v 4.408 c 0,2.14 -1.395,3.479 -3.292,3.479 -1.842,0 -3.292,-1.283 -3.292,-3.46 v -4.427 c 0,-2.139 1.376,-3.46 3.292,-3.46 1.823,0 3.292,1.265 3.292,3.46 m -7.682,0.037 v 4.334 c 0,2.697 1.786,4.576 4.39,4.576 2.566,0 4.39,-1.879 4.39,-4.576 v -4.334 c 0,-2.697 -1.824,-4.557 -4.39,-4.557 -2.604,0 -4.39,1.86 -4.39,4.557"
         style="fill:#005d67;fill-opacity:1;fill-rule:nonzero;stroke:none"
         id="path190"
         inkscape:connector-curvature="0" /><path
         d="m 131.8853,236.5138 v 2.214 c 0,2.12 -1.042,3.366 -2.92,3.366 -1.786,0 -2.902,-1.19 -2.902,-3.236 v -2.344 c 0,-2.064 1.079,-3.311 2.902,-3.311 1.878,0 2.92,1.247 2.92,3.311 m -6.864,6.361 h 1.005 v -1.785 c 0.446,1.041 1.562,1.916 3.218,1.916 2.381,0 3.701,-1.599 3.701,-4.446 v -2.157 c 0,-2.567 -1.376,-4.111 -3.701,-4.111 -1.656,0 -2.753,0.874 -3.181,1.897 v -5.208 h -1.042 z"
         style="fill:#005d67;fill-opacity:1;fill-rule:nonzero;stroke:none"
         id="path194"
         inkscape:connector-curvature="0" /><path
         d="m 141.8174,238.2257 v 0.8 c 0,2.046 -1.079,3.087 -2.883,3.087 -1.823,0 -2.92,-1.134 -2.92,-3.069 v -0.818 z m -6.845,-1.86 v 2.51 c 0,2.623 1.451,4.167 3.962,4.167 2.474,0 3.944,-1.506 3.944,-4.074 v -1.561 h -6.864 v -1.229 c 0,-1.896 1.153,-3.031 2.92,-3.031 1.786,0 2.883,1.135 2.883,2.585 v 0.112 h 1.061 v -0.075 c 0,-1.915 -1.47,-3.533 -3.944,-3.533 -2.511,0 -3.962,1.506 -3.962,4.129"
         style="fill:#005d67;fill-opacity:1;fill-rule:nonzero;stroke:none"
         id="path198"
         inkscape:connector-curvature="0" /><path
         d="m 144.9976,242.8751 h 1.004 v -1.748 c 0.447,1.023 1.563,1.897 3.219,1.897 2.324,0 3.701,-1.544 3.701,-4.092 v -6.51 h -1.06 v 6.398 c 0,2.028 -0.93,3.292 -2.921,3.292 -1.915,0 -2.901,-1.152 -2.901,-3.255 v -6.435 h -1.042 z"
         style="fill:#005d67;fill-opacity:1;fill-rule:nonzero;stroke:none"
         id="path202"
         inkscape:connector-curvature="0" /><path
         d="m 159.1333,236.6632 h 1.079 c 0,-2.437 1.451,-3.386 3.274,-3.386 1.804,0 3.236,0.856 3.236,2.623 0,1.823 -1.599,2.176 -3.311,2.604 -1.953,0.484 -4.073,1.005 -4.073,3.702 0,2.362 1.785,3.553 4.185,3.553 2.306,0 4.166,-1.247 4.166,-4.204 h -1.097 c 0,2.251 -1.395,3.143 -3.106,3.143 -1.711,0 -3.069,-0.781 -3.069,-2.492 0,-1.935 1.674,-2.307 3.441,-2.753 1.934,-0.465 3.962,-0.968 3.962,-3.534 0,-2.437 -1.897,-3.683 -4.334,-3.683 -2.418,0 -4.353,1.358 -4.353,4.427"
         style="fill:#005d67;fill-opacity:1;fill-rule:nonzero;stroke:none"
         id="path206"
         inkscape:connector-curvature="0" /><path
         d="m 176.6919,236.3097 v 2.659 c 0,1.898 -1.116,3.032 -2.883,3.032 -1.823,0 -2.92,-1.134 -2.92,-3.032 v -2.659 c 0,-1.953 1.097,-3.088 2.92,-3.088 1.767,0 2.883,1.135 2.883,3.088 m -6.845,0.111 v 2.437 c 0,2.512 1.432,4.13 3.962,4.13 2.455,0 3.944,-1.618 3.944,-4.13 v -2.437 c 0,-2.566 -1.489,-4.184 -3.944,-4.184 -2.53,0 -3.962,1.618 -3.962,4.184"
         style="fill:#005d67;fill-opacity:1;fill-rule:nonzero;stroke:none"
         id="path210"
         inkscape:connector-curvature="0" /><path
         d="m 179.7793,236.0861 v 6.789 h 1.042 v -6.956 c 0,-1.692 1.265,-2.753 2.92,-2.753 1.674,0 2.902,1.098 2.902,2.753 v 6.956 h 1.06 v -6.789 c 0,-2.307 -1.6,-3.85 -3.962,-3.85 -2.4,0 -3.962,1.543 -3.962,3.85"
         style="fill:#005d67;fill-opacity:1;fill-rule:nonzero;stroke:none"
         id="path214"
         inkscape:connector-curvature="0" /><path
         d="m 190.0093,242.8751 h 1.004 v -1.953 c 0.484,1.303 1.712,2.195 3.311,2.102 v -1.06 c -1.953,0.093 -3.273,-1.135 -3.273,-3.199 v -6.343 h -1.042 z"
         style="fill:#005d67;fill-opacity:1;fill-rule:nonzero;stroke:none"
         id="path218"
         inkscape:connector-curvature="0" /><path
         d="m 195.1245,236.3654 v 2.455 c 0,2.567 1.451,4.186 3.962,4.186 2.492,0 3.943,-1.507 3.943,-4.112 v -0.037 h -1.06 v 0.037 c 0,2.009 -1.023,3.162 -2.883,3.162 -1.916,0 -2.92,-1.134 -2.92,-3.292 v -2.473 c 0,-1.916 1.022,-3.125 2.92,-3.125 1.841,0 2.883,1.153 2.883,3.143 v 0.037 h 1.06 v -0.037 c 0,-2.548 -1.451,-4.073 -3.943,-4.073 -2.511,0 -3.962,1.6 -3.962,4.129"
         style="fill:#005d67;fill-opacity:1;fill-rule:nonzero;stroke:none"
         id="path222"
         inkscape:connector-curvature="0" /><path
         d="m 211.8086,238.2257 v 0.8 c 0,2.046 -1.079,3.087 -2.883,3.087 -1.823,0 -2.92,-1.134 -2.92,-3.069 v -0.818 z m -6.845,-1.86 v 2.51 c 0,2.623 1.451,4.167 3.962,4.167 2.474,0 3.944,-1.506 3.944,-4.074 v -1.561 h -6.864 v -1.229 c 0,-1.896 1.153,-3.031 2.92,-3.031 1.786,0 2.883,1.135 2.883,2.585 v 0.112 h 1.061 v -0.075 c 0,-1.915 -1.47,-3.533 -3.944,-3.533 -2.511,0 -3.962,1.506 -3.962,4.129"
         style="fill:#005d67;fill-opacity:1;fill-rule:nonzero;stroke:none"
         id="path226"
         inkscape:connector-curvature="0" /><path
         d="m 226.0371,236.7003 -2.604,7.607 -2.678,-7.607 z m -3.236,8.835 h 1.246 l 4.575,-13.113 h -1.152 l -1.135,3.329 h -5.878 l -1.172,-3.329 h -1.134 z"
         style="fill:#005d67;fill-opacity:1;fill-rule:nonzero;stroke:none"
         id="path230"
         inkscape:connector-curvature="0" /><path
         d="m 229.9985,236.0861 v 6.789 h 1.042 v -6.956 c 0,-1.692 1.265,-2.753 2.92,-2.753 1.674,0 2.902,1.098 2.902,2.753 v 6.956 h 1.06 v -6.789 c 0,-2.307 -1.6,-3.85 -3.962,-3.85 -2.4,0 -3.962,1.543 -3.962,3.85"
         style="fill:#005d67;fill-opacity:1;fill-rule:nonzero;stroke:none"
         id="path234"
         inkscape:connector-curvature="0" /><path
         d="m 240.3032,236.3283 v 5.617 h -1.19 v 0.744 c 1.376,0 1.524,0.428 1.524,2.213 h 0.726 v -2.027 h 2.939 v -0.93 h -2.939 v -5.506 c 0,-2.827 0.428,-3.31 2.995,-3.143 v -0.967 c -3.237,-0.354 -4.055,0.855 -4.055,3.999"
         style="fill:#005d67;fill-opacity:1;fill-rule:nonzero;stroke:none"
         id="path238"
         inkscape:connector-curvature="0" /><path
         d="m 252.1328,236.3097 v 2.659 c 0,1.898 -1.116,3.032 -2.883,3.032 -1.823,0 -2.92,-1.134 -2.92,-3.032 v -2.659 c 0,-1.953 1.097,-3.088 2.92,-3.088 1.767,0 2.883,1.135 2.883,3.088 m -6.845,0.111 v 2.437 c 0,2.512 1.432,4.13 3.962,4.13 2.455,0 3.944,-1.618 3.944,-4.13 v -2.437 c 0,-2.566 -1.489,-4.184 -3.944,-4.184 -2.53,0 -3.962,1.618 -3.962,4.184"
         style="fill:#005d67;fill-opacity:1;fill-rule:nonzero;stroke:none"
         id="path242"
         inkscape:connector-curvature="0" /><path
         d="m 255.4062,242.8751 h 1.004 v -1.395 c 0.372,0.819 1.228,1.544 2.586,1.544 1.321,0 2.325,-0.688 2.79,-1.916 0.372,1.098 1.414,1.916 2.883,1.916 1.916,0 2.976,-1.377 2.976,-3.608 v -6.994 h -1.06 v 7.142 c 0,1.6 -0.781,2.586 -2.251,2.586 -1.432,0 -2.269,-0.949 -2.269,-2.474 v -7.254 h -1.06 v 7.142 c 0,1.637 -0.837,2.586 -2.269,2.586 -1.414,0 -2.288,-0.93 -2.288,-2.474 v -7.254 h -1.042 z"
         style="fill:#005d67;fill-opacity:1;fill-rule:nonzero;stroke:none"
         id="path246"
         inkscape:connector-curvature="0" /><path
         d="m 276.5171,236.5138 v 2.418 c 0,2.009 -1.097,3.181 -2.883,3.181 -1.879,0 -2.902,-1.228 -2.902,-3.292 v -2.307 c 0,-2.139 1.023,-3.366 2.902,-3.366 1.841,0 2.883,1.246 2.883,3.366 m -6.845,-0.13 v 2.548 c 0,2.586 1.414,4.093 3.683,4.093 1.674,0 2.771,-0.874 3.218,-1.879 v 1.729 h 1.005 v -10.453 h -1.005 v 1.711 c -0.447,-1.022 -1.544,-1.896 -3.218,-1.896 -2.306,0 -3.683,1.543 -3.683,4.147"
         style="fill:#005d67;fill-opacity:1;fill-rule:nonzero;stroke:none"
         id="path250"
         inkscape:connector-curvature="0" /><path
         d="m 280.144,236.3283 v 5.617 h -1.19 v 0.744 c 1.376,0 1.524,0.428 1.524,2.213 h 0.726 v -2.027 h 2.939 v -0.93 h -2.939 v -5.506 c 0,-2.827 0.428,-3.31 2.995,-3.143 v -0.967 c -3.237,-0.354 -4.055,0.855 -4.055,3.999"
         style="fill:#005d67;fill-opacity:1;fill-rule:nonzero;stroke:none"
         id="path254"
         inkscape:connector-curvature="0" /><path
         inkscape:connector-curvature="0"
         id="path256"
         style="fill:#005d67;fill-opacity:1;fill-rule:nonzero;stroke:none"
         d="m 285.947,242.875 h 1.06 v -10.453 h -1.06 z m -0.186,2.493 c 0,0.409 0.316,0.725 0.726,0.725 0.409,0 0.725,-0.316 0.725,-0.725 0,-0.39 -0.316,-0.725 -0.725,-0.725 -0.41,0 -0.726,0.335 -0.726,0.725" /><path
         d="m 295.9912,236.3097 v 2.659 c 0,1.898 -1.116,3.032 -2.883,3.032 -1.823,0 -2.92,-1.134 -2.92,-3.032 v -2.659 c 0,-1.953 1.097,-3.088 2.92,-3.088 1.767,0 2.883,1.135 2.883,3.088 m -6.845,0.111 v 2.437 c 0,2.512 1.432,4.13 3.962,4.13 2.455,0 3.944,-1.618 3.944,-4.13 v -2.437 c 0,-2.566 -1.489,-4.184 -3.944,-4.184 -2.53,0 -3.962,1.618 -3.962,4.184"
         style="fill:#005d67;fill-opacity:1;fill-rule:nonzero;stroke:none"
         id="path260"
         inkscape:connector-curvature="0" /><path
         d="m 299.2646,242.8751 h 1.005 v -1.748 c 0.446,1.023 1.562,1.897 3.218,1.897 2.325,0 3.701,-1.544 3.701,-4.092 v -6.51 h -1.061 v 6.398 c 0,2.028 -0.929,3.292 -2.92,3.292 -1.916,0 -2.901,-1.152 -2.901,-3.255 v -6.435 h -1.042 z"
         style="fill:#005d67;fill-opacity:1;fill-rule:nonzero;stroke:none"
         id="path264"
         inkscape:connector-curvature="0" /><path
         d="m 317.79,233.4826 c 1.99,0 3.403,1.19 3.403,4.036 v 2.994 c 0,2.828 -1.413,3.944 -3.403,3.944 h -2.921 v -10.974 z m -4.018,12.053 h 4.129 c 2.586,0 4.39,-1.618 4.39,-4.818 v -3.422 c 0,-3.181 -1.804,-4.874 -4.39,-4.874 h -4.129 z"
         style="fill:#005d67;fill-opacity:1;fill-rule:nonzero;stroke:none"
         id="path268"
         inkscape:connector-curvature="0" /><path
         d="m 331.1631,238.2257 v 0.8 c 0,2.046 -1.079,3.087 -2.884,3.087 -1.822,0 -2.92,-1.134 -2.92,-3.069 v -0.818 z m -6.846,-1.86 v 2.51 c 0,2.623 1.451,4.167 3.962,4.167 2.475,0 3.944,-1.506 3.944,-4.074 v -1.561 h -6.864 v -1.229 c 0,-1.896 1.154,-3.031 2.92,-3.031 1.786,0 2.884,1.135 2.884,2.585 v 0.112 h 1.06 v -0.075 c 0,-1.915 -1.469,-3.533 -3.944,-3.533 -2.511,0 -3.962,1.506 -3.962,4.129"
         style="fill:#005d67;fill-opacity:1;fill-rule:nonzero;stroke:none"
         id="path272"
         inkscape:connector-curvature="0" /><path
         d="m 333.1338,242.8751 h 1.172 l 3.273,-9.188 3.255,9.188 h 1.154 l -3.887,-10.453 h -1.042 z"
         style="fill:#005d67;fill-opacity:1;fill-rule:nonzero;stroke:none"
         id="path276"
         inkscape:connector-curvature="0" /><path
         d="m 349.8369,238.2257 v 0.8 c 0,2.046 -1.079,3.087 -2.884,3.087 -1.822,0 -2.92,-1.134 -2.92,-3.069 v -0.818 z m -6.846,-1.86 v 2.51 c 0,2.623 1.451,4.167 3.962,4.167 2.475,0 3.944,-1.506 3.944,-4.074 v -1.561 h -6.864 v -1.229 c 0,-1.896 1.154,-3.031 2.92,-3.031 1.786,0 2.884,1.135 2.884,2.585 v 0.112 h 1.06 v -0.075 c 0,-1.915 -1.469,-3.533 -3.944,-3.533 -2.511,0 -3.962,1.506 -3.962,4.129"
         style="fill:#005d67;fill-opacity:1;fill-rule:nonzero;stroke:none"
         id="path280"
         inkscape:connector-curvature="0" /><path
         inkscape:connector-curvature="0"
         id="path282"
         style="fill:#005d67;fill-opacity:1;fill-rule:nonzero;stroke:none"
         d="m 353.017,246.354 h 1.061 v -13.932 h -1.061 z" /><path
         d="m 363.1357,236.3097 v 2.659 c 0,1.898 -1.116,3.032 -2.884,3.032 -1.822,0 -2.92,-1.134 -2.92,-3.032 v -2.659 c 0,-1.953 1.098,-3.088 2.92,-3.088 1.768,0 2.884,1.135 2.884,3.088 m -6.846,0.111 v 2.437 c 0,2.512 1.433,4.13 3.962,4.13 2.456,0 3.944,-1.618 3.944,-4.13 v -2.437 c 0,-2.566 -1.488,-4.184 -3.944,-4.184 -2.529,0 -3.962,1.618 -3.962,4.184"
         style="fill:#005d67;fill-opacity:1;fill-rule:nonzero;stroke:none"
         id="path286"
         inkscape:connector-curvature="0" /><path
         d="m 373.2715,236.5138 v 2.214 c 0,2.12 -1.041,3.366 -2.92,3.366 -1.785,0 -2.901,-1.19 -2.901,-3.236 v -2.344 c 0,-2.064 1.078,-3.311 2.901,-3.311 1.879,0 2.92,1.247 2.92,3.311 m -6.863,6.361 h 1.005 v -1.785 c 0.446,1.041 1.562,1.916 3.217,1.916 2.381,0 3.702,-1.599 3.702,-4.446 v -2.157 c 0,-2.567 -1.376,-4.111 -3.702,-4.111 -1.655,0 -2.753,0.874 -3.18,1.897 v -5.208 h -1.042 z"
         style="fill:#005d67;fill-opacity:1;fill-rule:nonzero;stroke:none"
         id="path290"
         inkscape:connector-curvature="0" /><path
         d="m 376.6377,242.8751 h 1.005 v -1.395 c 0.372,0.819 1.227,1.544 2.585,1.544 1.321,0 2.325,-0.688 2.79,-1.916 0.372,1.098 1.414,1.916 2.883,1.916 1.916,0 2.976,-1.377 2.976,-3.608 v -6.994 h -1.06 v 7.142 c 0,1.6 -0.782,2.586 -2.25,2.586 -1.433,0 -2.27,-0.949 -2.27,-2.474 v -7.254 h -1.06 v 7.142 c 0,1.637 -0.837,2.586 -2.269,2.586 -1.414,0 -2.288,-0.93 -2.288,-2.474 v -7.254 h -1.042 z"
         style="fill:#005d67;fill-opacity:1;fill-rule:nonzero;stroke:none"
         id="path294"
         inkscape:connector-curvature="0" /><path
         d="m 397.749,238.2257 v 0.8 c 0,2.046 -1.079,3.087 -2.884,3.087 -1.822,0 -2.92,-1.134 -2.92,-3.069 v -0.818 z m -6.846,-1.86 v 2.51 c 0,2.623 1.451,4.167 3.962,4.167 2.475,0 3.944,-1.506 3.944,-4.074 v -1.561 h -6.864 v -1.229 c 0,-1.896 1.154,-3.031 2.92,-3.031 1.786,0 2.884,1.135 2.884,2.585 v 0.112 h 1.06 v -0.075 c 0,-1.915 -1.469,-3.533 -3.944,-3.533 -2.511,0 -3.962,1.506 -3.962,4.129"
         style="fill:#005d67;fill-opacity:1;fill-rule:nonzero;stroke:none"
         id="path298"
         inkscape:connector-curvature="0" /><path
         d="m 400.9287,242.8751 h 1.005 v -1.748 c 0.446,1.023 1.562,1.897 3.218,1.897 2.325,0 3.701,-1.544 3.701,-4.092 v -6.51 h -1.061 v 6.398 c 0,2.028 -0.929,3.292 -2.92,3.292 -1.916,0 -2.901,-1.152 -2.901,-3.255 v -6.435 h -1.042 z"
         style="fill:#005d67;fill-opacity:1;fill-rule:nonzero;stroke:none"
         id="path302"
         inkscape:connector-curvature="0" /><path
         d="m 411.2324,236.3283 v 5.617 h -1.19 v 0.744 c 1.377,0 1.525,0.428 1.525,2.213 h 0.726 v -2.027 h 2.938 v -0.93 h -2.938 v -5.506 c 0,-2.827 0.427,-3.31 2.995,-3.143 v -0.967 c -3.238,-0.354 -4.056,0.855 -4.056,3.999"
         style="fill:#005d67;fill-opacity:1;fill-rule:nonzero;stroke:none"
         id="path306"
         inkscape:connector-curvature="0" /><path
         d="m 421.4072,245.5353 h 1.097 v -12.053 h 5.766 v -1.06 h -6.863 z"
         style="fill:#005d67;fill-opacity:1;fill-rule:nonzero;stroke:none"
         id="path310"
         inkscape:connector-curvature="0" /><path
         d="m 435.9346,236.5138 v 2.418 c 0,2.009 -1.098,3.181 -2.884,3.181 -1.878,0 -2.901,-1.228 -2.901,-3.292 v -2.307 c 0,-2.139 1.023,-3.366 2.901,-3.366 1.842,0 2.884,1.246 2.884,3.366 m -6.846,-0.13 v 2.548 c 0,2.586 1.414,4.093 3.684,4.093 1.674,0 2.771,-0.874 3.218,-1.879 v 1.729 h 1.004 v -10.453 h -1.004 v 1.711 c -0.447,-1.022 -1.544,-1.896 -3.218,-1.896 -2.307,0 -3.684,1.543 -3.684,4.147"
         style="fill:#005d67;fill-opacity:1;fill-rule:nonzero;stroke:none"
         id="path314"
         inkscape:connector-curvature="0" /><path
         d="m 446.3496,236.4953 v 2.307 c 0,2.046 -1.022,3.31 -2.92,3.31 -1.785,0 -2.901,-1.172 -2.901,-3.18 v -2.437 c 0,-2.12 1.078,-3.348 2.901,-3.348 1.879,0 2.92,1.246 2.92,3.348 m -5.858,-2.362 v -1.711 h -1.005 v 13.931 h 1.042 v -5.226 c 0.446,1.023 1.525,1.897 3.18,1.897 2.326,0 3.702,-1.544 3.702,-4.092 v -2.548 c 0,-2.623 -1.376,-4.148 -3.702,-4.148 -1.655,0 -2.771,0.856 -3.217,1.897"
         style="fill:#005d67;fill-opacity:1;fill-rule:nonzero;stroke:none"
         id="path318"
         inkscape:connector-curvature="0" /><path
         d="m 460.2812,238.2257 v 0.8 c 0,2.046 -1.079,3.087 -2.884,3.087 -1.822,0 -2.92,-1.134 -2.92,-3.069 v -0.818 z m -6.846,-1.86 v 2.51 c 0,2.623 1.451,4.167 3.962,4.167 2.475,0 3.944,-1.506 3.944,-4.074 v -1.561 h -6.864 v -1.229 c 0,-1.896 1.154,-3.031 2.92,-3.031 1.786,0 2.884,1.135 2.884,2.585 v 0.112 h 1.06 v -0.075 c 0,-1.915 -1.469,-3.533 -3.944,-3.533 -2.511,0 -3.962,1.506 -3.962,4.129"
         style="fill:#005d67;fill-opacity:1;fill-rule:nonzero;stroke:none"
         id="path322"
         inkscape:connector-curvature="0" /><path
         d="m 463.2754,236.7931 v 4.408 c 0,2.679 1.785,4.558 4.371,4.558 2.548,0 4.334,-1.842 4.39,-4.446 h -1.098 c -0.037,2.084 -1.414,3.385 -3.292,3.385 -1.99,0 -3.274,-1.357 -3.274,-3.776 v -4.148 c 0,-2.138 1.395,-3.46 3.274,-3.46 1.897,0 3.292,1.322 3.292,3.46 v 0.745 h -3.273 v 0.985 h 4.371 v -1.711 c 0,-2.679 -1.805,-4.557 -4.39,-4.557 -2.586,0 -4.371,1.878 -4.371,4.557"
         style="fill:#005d67;fill-opacity:1;fill-rule:nonzero;stroke:none"
         id="path326"
         inkscape:connector-curvature="0" /></g></g></svg>
