<svg width="600" height="200" viewBox="0 0 600 200" fill="none" xmlns="http://www.w3.org/2000/svg">
<path d="M40.3147 109C31.9737 109 24.7912 107.482 18.7672 104.446C12.7431 101.333 8.10927 97.0907 4.86556 91.7198C1.62185 86.3489 0 80.1218 0 73.0385C0 65.8773 1.2357 59.3388 3.70709 53.4231C6.17849 47.4295 9.65389 42.2532 14.1333 37.8942C18.6127 33.4574 23.9417 30.0325 30.1201 27.6195C36.3759 25.2065 43.2108 24 50.625 24C58.966 24 66.1485 25.5568 72.1725 28.6703C78.1965 31.706 82.8304 35.9093 86.0741 41.2802C89.3178 46.6511 90.9397 52.8782 90.9397 59.9615C90.9397 67.1227 89.704 73.7001 87.2326 79.6937C84.7612 85.6094 81.2858 90.7857 76.8064 95.2225C72.327 99.5815 66.9594 102.967 60.7037 105.38C54.5252 107.794 47.7288 109 40.3147 109ZM42.2841 89.8516C46.3001 89.8516 49.8527 89.1122 52.9419 87.6332C56.1084 86.1543 58.7729 84.0916 60.9354 81.4451C63.1751 78.7207 64.8742 75.6461 66.0326 72.2211C67.1911 68.7962 67.7703 65.1767 67.7703 61.3626C67.7703 57.7042 66.998 54.5128 65.4534 51.7885C63.986 49.0641 61.8235 46.9625 58.966 45.4835C56.1857 43.9267 52.7489 43.1484 48.6556 43.1484C44.7168 43.1484 41.1642 43.8878 37.9977 45.3668C34.8312 46.8457 32.1282 48.9473 29.8885 51.6717C27.726 54.3182 26.0655 57.3539 24.907 60.7788C23.7486 64.2038 23.1693 67.8233 23.1693 71.6374C23.1693 75.2179 23.903 78.4093 25.3704 81.2115C26.9151 83.9359 29.0775 86.0765 31.8578 87.6332C34.7154 89.1122 38.1908 89.8516 42.2841 89.8516Z" fill="#231F20"/>
<path d="M88.7042 107.365L104.923 25.6346H139.561C149.987 25.6346 158.019 27.9309 163.657 32.5234C169.372 37.1158 172.23 43.4986 172.23 51.6717C172.23 58.5215 170.569 64.5151 167.248 69.6525C164.005 74.712 159.371 78.6429 153.347 81.4451C147.323 84.2473 140.217 85.6484 132.031 85.6484H105.734L117.898 75.7239L111.642 107.365H88.7042ZM139.561 107.365L122.995 77.592H146.743L163.541 107.365H139.561ZM117.318 78.4093L109.325 67.7843H133.073C138.171 67.7843 142.11 66.5778 144.89 64.1648C147.67 61.7518 149.06 58.3269 149.06 53.8901C149.06 50.4652 147.94 47.9354 145.701 46.3008C143.461 44.6662 140.333 43.8489 136.317 43.8489H114.19L126.47 32.8736L117.318 78.4093Z" fill="#231F20"/>
<path d="M168.666 107.365L184.884 25.6346H207.822L195.31 89.0343H234.003L230.296 107.365H168.666Z" fill="#231F20"/>
<path d="M230.8 107.365L282.815 25.6346H305.405L324.984 107.365H302.162L287.681 36.6099H296.717L255.012 107.365H230.8ZM253.506 91.4863L262.774 74.4396H302.393L304.942 91.4863H253.506Z" fill="#231F20"/>
<path d="M325.81 107.365L342.028 25.6346H360.911L393.696 80.2775L385.818 80.044L396.592 25.6346H419.066L402.848 107.365H383.965L351.296 52.7225L359.058 52.956L348.284 107.365H325.81Z" fill="#231F20"/>
<path d="M413.351 107.365L429.57 25.6346H464.787C473.282 25.6346 480.542 27.0357 486.566 29.8379C492.667 32.6401 497.34 36.6099 500.584 41.7473C503.827 46.8068 505.449 52.8782 505.449 59.9615C505.449 67.2005 504.213 73.739 501.742 79.5769C499.271 85.337 495.795 90.3187 491.316 94.522C486.836 98.6474 481.508 101.839 475.329 104.096C469.151 106.276 462.316 107.365 454.824 107.365H413.351ZM439.996 88.9176H455.519C461.312 88.9176 466.177 87.7111 470.116 85.2981C474.055 82.8851 477.067 79.6158 479.152 75.4904C481.237 71.2871 482.28 66.5778 482.28 61.3626C482.28 57.7042 481.508 54.5907 479.963 52.022C478.496 49.4533 476.256 47.5073 473.244 46.1841C470.309 44.783 466.641 44.0824 462.238 44.0824H448.8L439.996 88.9176Z" fill="#231F20"/>
<path d="M549.375 109C541.034 109 533.851 107.482 527.827 104.446C521.803 101.333 517.17 97.0907 513.926 91.7198C510.682 86.3489 509.06 80.1218 509.06 73.0385C509.06 65.8773 510.296 59.3388 512.767 53.4231C515.239 47.4295 518.714 42.2532 523.194 37.8942C527.673 33.4574 533.002 30.0325 539.18 27.6195C545.436 25.2065 552.271 24 559.685 24C568.026 24 575.209 25.5568 581.233 28.6703C587.257 31.706 591.891 35.9093 595.134 41.2802C598.378 46.6511 600 52.8782 600 59.9615C600 67.1227 598.764 73.7001 596.293 79.6937C593.821 85.6094 590.346 90.7857 585.867 95.2225C581.387 99.5815 576.02 102.967 569.764 105.38C563.585 107.794 556.789 109 549.375 109ZM551.344 89.8516C555.36 89.8516 558.913 89.1122 562.002 87.6332C565.169 86.1543 567.833 84.0916 569.996 81.4451C572.235 78.7207 573.934 75.6461 575.093 72.2211C576.251 68.7962 576.831 65.1767 576.831 61.3626C576.831 57.7042 576.058 54.5128 574.514 51.7885C573.046 49.0641 570.884 46.9625 568.026 45.4835C565.246 43.9267 561.809 43.1484 557.716 43.1484C553.777 43.1484 550.225 43.8878 547.058 45.3668C543.892 46.8457 541.188 48.9473 538.949 51.6717C536.786 54.3182 535.126 57.3539 533.967 60.7788C532.809 64.2038 532.23 67.8233 532.23 71.6374C532.23 75.2179 532.963 78.4093 534.431 81.2115C535.975 83.9359 538.138 86.0765 540.918 87.6332C543.776 89.1122 547.251 89.8516 551.344 89.8516Z" fill="#231F20"/>
<mask id="path-2-outside-1_984_9" maskUnits="userSpaceOnUse" x="0.220215" y="131.156" width="599" height="36" fill="black">
<rect fill="white" x="0.220215" y="131.156" width="599" height="36"/>
<path d="M1.22021 165V132.8H15.9402C18.8842 132.8 21.4142 133.275 23.5302 134.226C25.6769 135.177 27.3329 136.557 28.4982 138.366C29.6635 140.145 30.2462 142.261 30.2462 144.714C30.2462 147.137 29.6635 149.237 28.4982 151.016C27.3329 152.764 25.6769 154.113 23.5302 155.064C21.4142 155.984 18.8842 156.444 15.9402 156.444H6.28022L10.3282 152.626V165H1.22021ZM21.1382 165L13.1342 153.27H22.8402L30.8902 165H21.1382ZM10.3282 153.592L6.28022 149.406H15.3882C17.2895 149.406 18.7002 148.992 19.6202 148.164C20.5709 147.336 21.0462 146.186 21.0462 144.714C21.0462 143.211 20.5709 142.046 19.6202 141.218C18.7002 140.39 17.2895 139.976 15.3882 139.976H6.28022L10.3282 135.79V153.592Z"/>
<path d="M51.509 165.644C48.933 165.644 46.5563 165.23 44.379 164.402C42.2017 163.574 40.3003 162.409 38.675 160.906C37.0803 159.373 35.8383 157.594 34.949 155.57C34.0597 153.546 33.615 151.323 33.615 148.9C33.615 146.477 34.0597 144.254 34.949 142.23C35.8383 140.206 37.0803 138.443 38.675 136.94C40.3003 135.407 42.2017 134.226 44.379 133.398C46.5563 132.57 48.933 132.156 51.509 132.156C54.1157 132.156 56.4923 132.57 58.639 133.398C60.8163 134.226 62.7023 135.407 64.297 136.94C65.8917 138.443 67.1337 140.206 68.023 142.23C68.943 144.254 69.403 146.477 69.403 148.9C69.403 151.323 68.943 153.561 68.023 155.616C67.1337 157.64 65.8917 159.403 64.297 160.906C62.7023 162.409 60.8163 163.574 58.639 164.402C56.4923 165.23 54.1157 165.644 51.509 165.644ZM51.509 158.1C52.7357 158.1 53.8703 157.885 54.913 157.456C55.9863 157.027 56.9063 156.413 57.673 155.616C58.4703 154.788 59.0837 153.807 59.513 152.672C59.973 151.537 60.203 150.28 60.203 148.9C60.203 147.489 59.973 146.232 59.513 145.128C59.0837 143.993 58.4703 143.027 57.673 142.23C56.9063 141.402 55.9863 140.773 54.913 140.344C53.8703 139.915 52.7357 139.7 51.509 139.7C50.2823 139.7 49.1323 139.915 48.059 140.344C47.0163 140.773 46.0963 141.402 45.299 142.23C44.5323 143.027 43.919 143.993 43.459 145.128C43.0297 146.232 42.815 147.489 42.815 148.9C42.815 150.28 43.0297 151.537 43.459 152.672C43.919 153.807 44.5323 154.788 45.299 155.616C46.0963 156.413 47.0163 157.027 48.059 157.456C49.1323 157.885 50.2823 158.1 51.509 158.1Z"/>
<path d="M74.1733 165V132.8H90.6413C94.8733 132.8 98.032 133.582 100.117 135.146C102.203 136.679 103.245 138.703 103.245 141.218C103.245 142.874 102.801 144.331 101.911 145.588C101.053 146.815 99.826 147.796 98.2313 148.532C96.6673 149.237 94.7967 149.59 92.6193 149.59L93.5393 147.382C95.8087 147.382 97.7867 147.735 99.4733 148.44C101.16 149.115 102.463 150.111 103.383 151.43C104.334 152.718 104.809 154.297 104.809 156.168C104.809 158.959 103.675 161.136 101.405 162.7C99.1667 164.233 95.8853 165 91.5613 165H74.1733ZM83.1893 158.422H90.8253C92.3893 158.422 93.57 158.161 94.3673 157.64C95.1953 157.088 95.6093 156.26 95.6093 155.156C95.6093 154.052 95.1953 153.239 94.3673 152.718C93.57 152.166 92.3893 151.89 90.8253 151.89H82.5453V145.588H89.4453C90.9787 145.588 92.1287 145.327 92.8953 144.806C93.662 144.285 94.0453 143.503 94.0453 142.46C94.0453 141.417 93.662 140.651 92.8953 140.16C92.1287 139.639 90.9787 139.378 89.4453 139.378H83.1893V158.422Z"/>
<path d="M125.765 165.644C123.189 165.644 120.812 165.23 118.635 164.402C116.458 163.574 114.556 162.409 112.931 160.906C111.336 159.373 110.094 157.594 109.205 155.57C108.316 153.546 107.871 151.323 107.871 148.9C107.871 146.477 108.316 144.254 109.205 142.23C110.094 140.206 111.336 138.443 112.931 136.94C114.556 135.407 116.458 134.226 118.635 133.398C120.812 132.57 123.189 132.156 125.765 132.156C128.372 132.156 130.748 132.57 132.895 133.398C135.072 134.226 136.958 135.407 138.553 136.94C140.148 138.443 141.39 140.206 142.279 142.23C143.199 144.254 143.659 146.477 143.659 148.9C143.659 151.323 143.199 153.561 142.279 155.616C141.39 157.64 140.148 159.403 138.553 160.906C136.958 162.409 135.072 163.574 132.895 164.402C130.748 165.23 128.372 165.644 125.765 165.644ZM125.765 158.1C126.992 158.1 128.126 157.885 129.169 157.456C130.242 157.027 131.162 156.413 131.929 155.616C132.726 154.788 133.34 153.807 133.769 152.672C134.229 151.537 134.459 150.28 134.459 148.9C134.459 147.489 134.229 146.232 133.769 145.128C133.34 143.993 132.726 143.027 131.929 142.23C131.162 141.402 130.242 140.773 129.169 140.344C128.126 139.915 126.992 139.7 125.765 139.7C124.538 139.7 123.388 139.915 122.315 140.344C121.272 140.773 120.352 141.402 119.555 142.23C118.788 143.027 118.175 143.993 117.715 145.128C117.286 146.232 117.071 147.489 117.071 148.9C117.071 150.28 117.286 151.537 117.715 152.672C118.175 153.807 118.788 154.788 119.555 155.616C120.352 156.413 121.272 157.027 122.315 157.456C123.388 157.885 124.538 158.1 125.765 158.1Z"/>
<path d="M154.834 165V140.022H144.944V132.8H173.786V140.022H163.942V165H154.834Z"/>
<path d="M177.179 165V132.8H186.287V165H177.179Z"/>
<path d="M208.821 165.644C206.276 165.644 203.914 165.245 201.737 164.448C199.59 163.62 197.72 162.455 196.125 160.952C194.561 159.449 193.334 157.686 192.445 155.662C191.556 153.607 191.111 151.353 191.111 148.9C191.111 146.447 191.556 144.208 192.445 142.184C193.334 140.129 194.561 138.351 196.125 136.848C197.72 135.345 199.59 134.195 201.737 133.398C203.914 132.57 206.276 132.156 208.821 132.156C211.796 132.156 214.448 132.677 216.779 133.72C219.14 134.763 221.103 136.265 222.667 138.228L216.871 143.472C215.828 142.245 214.678 141.31 213.421 140.666C212.194 140.022 210.814 139.7 209.281 139.7C207.962 139.7 206.751 139.915 205.647 140.344C204.543 140.773 203.592 141.402 202.795 142.23C202.028 143.027 201.415 143.993 200.955 145.128C200.526 146.263 200.311 147.52 200.311 148.9C200.311 150.28 200.526 151.537 200.955 152.672C201.415 153.807 202.028 154.788 202.795 155.616C203.592 156.413 204.543 157.027 205.647 157.456C206.751 157.885 207.962 158.1 209.281 158.1C210.814 158.1 212.194 157.778 213.421 157.134C214.678 156.49 215.828 155.555 216.871 154.328L222.667 159.572C221.103 161.504 219.14 163.007 216.779 164.08C214.448 165.123 211.796 165.644 208.821 165.644Z"/>
<path d="M237.73 165.644C235.092 165.644 232.547 165.322 230.094 164.678C227.671 164.003 225.693 163.145 224.16 162.102L227.15 155.386C228.591 156.306 230.247 157.073 232.118 157.686C234.019 158.269 235.905 158.56 237.776 158.56C239.033 158.56 240.045 158.453 240.812 158.238C241.578 157.993 242.13 157.686 242.468 157.318C242.836 156.919 243.02 156.459 243.02 155.938C243.02 155.202 242.682 154.619 242.008 154.19C241.333 153.761 240.459 153.408 239.386 153.132C238.312 152.856 237.116 152.58 235.798 152.304C234.51 152.028 233.206 151.675 231.888 151.246C230.6 150.817 229.419 150.265 228.346 149.59C227.272 148.885 226.398 147.98 225.724 146.876C225.049 145.741 224.712 144.315 224.712 142.598C224.712 140.666 225.233 138.918 226.276 137.354C227.349 135.79 228.944 134.533 231.06 133.582C233.176 132.631 235.813 132.156 238.972 132.156C241.088 132.156 243.158 132.401 245.182 132.892C247.236 133.352 249.061 134.042 250.656 134.962L247.85 141.724C246.316 140.896 244.798 140.283 243.296 139.884C241.793 139.455 240.336 139.24 238.926 139.24C237.668 139.24 236.656 139.378 235.89 139.654C235.123 139.899 234.571 140.237 234.234 140.666C233.896 141.095 233.728 141.586 233.728 142.138C233.728 142.843 234.05 143.411 234.694 143.84C235.368 144.239 236.242 144.576 237.316 144.852C238.42 145.097 239.616 145.358 240.904 145.634C242.222 145.91 243.526 146.263 244.814 146.692C246.132 147.091 247.328 147.643 248.402 148.348C249.475 149.023 250.334 149.927 250.978 151.062C251.652 152.166 251.99 153.561 251.99 155.248C251.99 157.119 251.453 158.851 250.38 160.446C249.337 162.01 247.758 163.267 245.642 164.218C243.556 165.169 240.919 165.644 237.73 165.644Z"/>
<path d="M278.047 146.922H292.905V153.96H278.047V146.922ZM278.691 165H269.583V132.8H294.837V139.838H278.691V165Z"/>
<path d="M315.066 165.644C312.49 165.644 310.113 165.23 307.936 164.402C305.758 163.574 303.857 162.409 302.232 160.906C300.637 159.373 299.395 157.594 298.506 155.57C297.616 153.546 297.172 151.323 297.172 148.9C297.172 146.477 297.616 144.254 298.506 142.23C299.395 140.206 300.637 138.443 302.232 136.94C303.857 135.407 305.758 134.226 307.936 133.398C310.113 132.57 312.49 132.156 315.066 132.156C317.672 132.156 320.049 132.57 322.196 133.398C324.373 134.226 326.259 135.407 327.854 136.94C329.448 138.443 330.69 140.206 331.58 142.23C332.5 144.254 332.96 146.477 332.96 148.9C332.96 151.323 332.5 153.561 331.58 155.616C330.69 157.64 329.448 159.403 327.854 160.906C326.259 162.409 324.373 163.574 322.196 164.402C320.049 165.23 317.672 165.644 315.066 165.644ZM315.066 158.1C316.292 158.1 317.427 157.885 318.47 157.456C319.543 157.027 320.463 156.413 321.23 155.616C322.027 154.788 322.64 153.807 323.07 152.672C323.53 151.537 323.76 150.28 323.76 148.9C323.76 147.489 323.53 146.232 323.07 145.128C322.64 143.993 322.027 143.027 321.23 142.23C320.463 141.402 319.543 140.773 318.47 140.344C317.427 139.915 316.292 139.7 315.066 139.7C313.839 139.7 312.689 139.915 311.616 140.344C310.573 140.773 309.653 141.402 308.856 142.23C308.089 143.027 307.476 143.993 307.016 145.128C306.586 146.232 306.372 147.489 306.372 148.9C306.372 150.28 306.586 151.537 307.016 152.672C307.476 153.807 308.089 154.788 308.856 155.616C309.653 156.413 310.573 157.027 311.616 157.456C312.689 157.885 313.839 158.1 315.066 158.1Z"/>
<path d="M352.588 165.644C347.835 165.644 344.124 164.341 341.456 161.734C338.788 159.127 337.454 155.432 337.454 150.648V132.8H346.562V150.372C346.562 153.132 347.099 155.11 348.172 156.306C349.276 157.502 350.779 158.1 352.68 158.1C354.581 158.1 356.069 157.502 357.142 156.306C358.215 155.11 358.752 153.132 358.752 150.372V132.8H367.722V150.648C367.722 155.432 366.388 159.127 363.72 161.734C361.052 164.341 357.341 165.644 352.588 165.644Z"/>
<path d="M373.892 165V132.8H381.39L399.146 154.236H395.604V132.8H404.528V165H397.03L379.274 143.564H382.816V165H373.892Z"/>
<path d="M410.953 165V132.8H426.179C429.736 132.8 432.864 133.459 435.563 134.778C438.261 136.097 440.362 137.952 441.865 140.344C443.398 142.736 444.165 145.588 444.165 148.9C444.165 152.181 443.398 155.033 441.865 157.456C440.362 159.848 438.261 161.703 435.563 163.022C432.864 164.341 429.736 165 426.179 165H410.953ZM420.061 157.732H425.811C427.651 157.732 429.245 157.395 430.595 156.72C431.975 156.015 433.048 155.003 433.815 153.684C434.581 152.335 434.965 150.74 434.965 148.9C434.965 147.029 434.581 145.435 433.815 144.116C433.048 142.797 431.975 141.801 430.595 141.126C429.245 140.421 427.651 140.068 425.811 140.068H420.061V157.732Z"/>
<path d="M444.643 165L458.857 132.8H467.827L482.087 165H472.611L461.479 137.262H465.067L453.935 165H444.643ZM452.417 158.744L454.763 152.028H470.495L472.841 158.744H452.417Z"/>
<path d="M489.906 165V140.022H480.016V132.8H508.858V140.022H499.014V165H489.906Z"/>
<path d="M512.251 165V132.8H521.359V165H512.251Z"/>
<path d="M544.077 165.644C541.501 165.644 539.125 165.23 536.947 164.402C534.77 163.574 532.869 162.409 531.243 160.906C529.649 159.373 528.407 157.594 527.517 155.57C526.628 153.546 526.183 151.323 526.183 148.9C526.183 146.477 526.628 144.254 527.517 142.23C528.407 140.206 529.649 138.443 531.243 136.94C532.869 135.407 534.77 134.226 536.947 133.398C539.125 132.57 541.501 132.156 544.077 132.156C546.684 132.156 549.061 132.57 551.207 133.398C553.385 134.226 555.271 135.407 556.865 136.94C558.46 138.443 559.702 140.206 560.591 142.23C561.511 144.254 561.971 146.477 561.971 148.9C561.971 151.323 561.511 153.561 560.591 155.616C559.702 157.64 558.46 159.403 556.865 160.906C555.271 162.409 553.385 163.574 551.207 164.402C549.061 165.23 546.684 165.644 544.077 165.644ZM544.077 158.1C545.304 158.1 546.439 157.885 547.481 157.456C548.555 157.027 549.475 156.413 550.241 155.616C551.039 154.788 551.652 153.807 552.081 152.672C552.541 151.537 552.771 150.28 552.771 148.9C552.771 147.489 552.541 146.232 552.081 145.128C551.652 143.993 551.039 143.027 550.241 142.23C549.475 141.402 548.555 140.773 547.481 140.344C546.439 139.915 545.304 139.7 544.077 139.7C542.851 139.7 541.701 139.915 540.627 140.344C539.585 140.773 538.665 141.402 537.867 142.23C537.101 143.027 536.487 143.993 536.027 145.128C535.598 146.232 535.383 147.489 535.383 148.9C535.383 150.28 535.598 151.537 536.027 152.672C536.487 153.807 537.101 154.788 537.867 155.616C538.665 156.413 539.585 157.027 540.627 157.456C541.701 157.885 542.851 158.1 544.077 158.1Z"/>
<path d="M566.742 165V132.8H574.24L591.996 154.236H588.454V132.8H597.378V165H589.88L572.124 143.564H575.666V165H566.742Z"/>
</mask>
<path d="M1.22021 165V132.8H15.9402C18.8842 132.8 21.4142 133.275 23.5302 134.226C25.6769 135.177 27.3329 136.557 28.4982 138.366C29.6635 140.145 30.2462 142.261 30.2462 144.714C30.2462 147.137 29.6635 149.237 28.4982 151.016C27.3329 152.764 25.6769 154.113 23.5302 155.064C21.4142 155.984 18.8842 156.444 15.9402 156.444H6.28022L10.3282 152.626V165H1.22021ZM21.1382 165L13.1342 153.27H22.8402L30.8902 165H21.1382ZM10.3282 153.592L6.28022 149.406H15.3882C17.2895 149.406 18.7002 148.992 19.6202 148.164C20.5709 147.336 21.0462 146.186 21.0462 144.714C21.0462 143.211 20.5709 142.046 19.6202 141.218C18.7002 140.39 17.2895 139.976 15.3882 139.976H6.28022L10.3282 135.79V153.592Z" fill="#F57E25"/>
<path d="M51.509 165.644C48.933 165.644 46.5563 165.23 44.379 164.402C42.2017 163.574 40.3003 162.409 38.675 160.906C37.0803 159.373 35.8383 157.594 34.949 155.57C34.0597 153.546 33.615 151.323 33.615 148.9C33.615 146.477 34.0597 144.254 34.949 142.23C35.8383 140.206 37.0803 138.443 38.675 136.94C40.3003 135.407 42.2017 134.226 44.379 133.398C46.5563 132.57 48.933 132.156 51.509 132.156C54.1157 132.156 56.4923 132.57 58.639 133.398C60.8163 134.226 62.7023 135.407 64.297 136.94C65.8917 138.443 67.1337 140.206 68.023 142.23C68.943 144.254 69.403 146.477 69.403 148.9C69.403 151.323 68.943 153.561 68.023 155.616C67.1337 157.64 65.8917 159.403 64.297 160.906C62.7023 162.409 60.8163 163.574 58.639 164.402C56.4923 165.23 54.1157 165.644 51.509 165.644ZM51.509 158.1C52.7357 158.1 53.8703 157.885 54.913 157.456C55.9863 157.027 56.9063 156.413 57.673 155.616C58.4703 154.788 59.0837 153.807 59.513 152.672C59.973 151.537 60.203 150.28 60.203 148.9C60.203 147.489 59.973 146.232 59.513 145.128C59.0837 143.993 58.4703 143.027 57.673 142.23C56.9063 141.402 55.9863 140.773 54.913 140.344C53.8703 139.915 52.7357 139.7 51.509 139.7C50.2823 139.7 49.1323 139.915 48.059 140.344C47.0163 140.773 46.0963 141.402 45.299 142.23C44.5323 143.027 43.919 143.993 43.459 145.128C43.0297 146.232 42.815 147.489 42.815 148.9C42.815 150.28 43.0297 151.537 43.459 152.672C43.919 153.807 44.5323 154.788 45.299 155.616C46.0963 156.413 47.0163 157.027 48.059 157.456C49.1323 157.885 50.2823 158.1 51.509 158.1Z" fill="#F57E25"/>
<path d="M74.1733 165V132.8H90.6413C94.8733 132.8 98.032 133.582 100.117 135.146C102.203 136.679 103.245 138.703 103.245 141.218C103.245 142.874 102.801 144.331 101.911 145.588C101.053 146.815 99.826 147.796 98.2313 148.532C96.6673 149.237 94.7967 149.59 92.6193 149.59L93.5393 147.382C95.8087 147.382 97.7867 147.735 99.4733 148.44C101.16 149.115 102.463 150.111 103.383 151.43C104.334 152.718 104.809 154.297 104.809 156.168C104.809 158.959 103.675 161.136 101.405 162.7C99.1667 164.233 95.8853 165 91.5613 165H74.1733ZM83.1893 158.422H90.8253C92.3893 158.422 93.57 158.161 94.3673 157.64C95.1953 157.088 95.6093 156.26 95.6093 155.156C95.6093 154.052 95.1953 153.239 94.3673 152.718C93.57 152.166 92.3893 151.89 90.8253 151.89H82.5453V145.588H89.4453C90.9787 145.588 92.1287 145.327 92.8953 144.806C93.662 144.285 94.0453 143.503 94.0453 142.46C94.0453 141.417 93.662 140.651 92.8953 140.16C92.1287 139.639 90.9787 139.378 89.4453 139.378H83.1893V158.422Z" fill="#F57E25"/>
<path d="M125.765 165.644C123.189 165.644 120.812 165.23 118.635 164.402C116.458 163.574 114.556 162.409 112.931 160.906C111.336 159.373 110.094 157.594 109.205 155.57C108.316 153.546 107.871 151.323 107.871 148.9C107.871 146.477 108.316 144.254 109.205 142.23C110.094 140.206 111.336 138.443 112.931 136.94C114.556 135.407 116.458 134.226 118.635 133.398C120.812 132.57 123.189 132.156 125.765 132.156C128.372 132.156 130.748 132.57 132.895 133.398C135.072 134.226 136.958 135.407 138.553 136.94C140.148 138.443 141.39 140.206 142.279 142.23C143.199 144.254 143.659 146.477 143.659 148.9C143.659 151.323 143.199 153.561 142.279 155.616C141.39 157.64 140.148 159.403 138.553 160.906C136.958 162.409 135.072 163.574 132.895 164.402C130.748 165.23 128.372 165.644 125.765 165.644ZM125.765 158.1C126.992 158.1 128.126 157.885 129.169 157.456C130.242 157.027 131.162 156.413 131.929 155.616C132.726 154.788 133.34 153.807 133.769 152.672C134.229 151.537 134.459 150.28 134.459 148.9C134.459 147.489 134.229 146.232 133.769 145.128C133.34 143.993 132.726 143.027 131.929 142.23C131.162 141.402 130.242 140.773 129.169 140.344C128.126 139.915 126.992 139.7 125.765 139.7C124.538 139.7 123.388 139.915 122.315 140.344C121.272 140.773 120.352 141.402 119.555 142.23C118.788 143.027 118.175 143.993 117.715 145.128C117.286 146.232 117.071 147.489 117.071 148.9C117.071 150.28 117.286 151.537 117.715 152.672C118.175 153.807 118.788 154.788 119.555 155.616C120.352 156.413 121.272 157.027 122.315 157.456C123.388 157.885 124.538 158.1 125.765 158.1Z" fill="#F57E25"/>
<path d="M154.834 165V140.022H144.944V132.8H173.786V140.022H163.942V165H154.834Z" fill="#F57E25"/>
<path d="M177.179 165V132.8H186.287V165H177.179Z" fill="#F57E25"/>
<path d="M208.821 165.644C206.276 165.644 203.914 165.245 201.737 164.448C199.59 163.62 197.72 162.455 196.125 160.952C194.561 159.449 193.334 157.686 192.445 155.662C191.556 153.607 191.111 151.353 191.111 148.9C191.111 146.447 191.556 144.208 192.445 142.184C193.334 140.129 194.561 138.351 196.125 136.848C197.72 135.345 199.59 134.195 201.737 133.398C203.914 132.57 206.276 132.156 208.821 132.156C211.796 132.156 214.448 132.677 216.779 133.72C219.14 134.763 221.103 136.265 222.667 138.228L216.871 143.472C215.828 142.245 214.678 141.31 213.421 140.666C212.194 140.022 210.814 139.7 209.281 139.7C207.962 139.7 206.751 139.915 205.647 140.344C204.543 140.773 203.592 141.402 202.795 142.23C202.028 143.027 201.415 143.993 200.955 145.128C200.526 146.263 200.311 147.52 200.311 148.9C200.311 150.28 200.526 151.537 200.955 152.672C201.415 153.807 202.028 154.788 202.795 155.616C203.592 156.413 204.543 157.027 205.647 157.456C206.751 157.885 207.962 158.1 209.281 158.1C210.814 158.1 212.194 157.778 213.421 157.134C214.678 156.49 215.828 155.555 216.871 154.328L222.667 159.572C221.103 161.504 219.14 163.007 216.779 164.08C214.448 165.123 211.796 165.644 208.821 165.644Z" fill="#F57E25"/>
<path d="M237.73 165.644C235.092 165.644 232.547 165.322 230.094 164.678C227.671 164.003 225.693 163.145 224.16 162.102L227.15 155.386C228.591 156.306 230.247 157.073 232.118 157.686C234.019 158.269 235.905 158.56 237.776 158.56C239.033 158.56 240.045 158.453 240.812 158.238C241.578 157.993 242.13 157.686 242.468 157.318C242.836 156.919 243.02 156.459 243.02 155.938C243.02 155.202 242.682 154.619 242.008 154.19C241.333 153.761 240.459 153.408 239.386 153.132C238.312 152.856 237.116 152.58 235.798 152.304C234.51 152.028 233.206 151.675 231.888 151.246C230.6 150.817 229.419 150.265 228.346 149.59C227.272 148.885 226.398 147.98 225.724 146.876C225.049 145.741 224.712 144.315 224.712 142.598C224.712 140.666 225.233 138.918 226.276 137.354C227.349 135.79 228.944 134.533 231.06 133.582C233.176 132.631 235.813 132.156 238.972 132.156C241.088 132.156 243.158 132.401 245.182 132.892C247.236 133.352 249.061 134.042 250.656 134.962L247.85 141.724C246.316 140.896 244.798 140.283 243.296 139.884C241.793 139.455 240.336 139.24 238.926 139.24C237.668 139.24 236.656 139.378 235.89 139.654C235.123 139.899 234.571 140.237 234.234 140.666C233.896 141.095 233.728 141.586 233.728 142.138C233.728 142.843 234.05 143.411 234.694 143.84C235.368 144.239 236.242 144.576 237.316 144.852C238.42 145.097 239.616 145.358 240.904 145.634C242.222 145.91 243.526 146.263 244.814 146.692C246.132 147.091 247.328 147.643 248.402 148.348C249.475 149.023 250.334 149.927 250.978 151.062C251.652 152.166 251.99 153.561 251.99 155.248C251.99 157.119 251.453 158.851 250.38 160.446C249.337 162.01 247.758 163.267 245.642 164.218C243.556 165.169 240.919 165.644 237.73 165.644Z" fill="#F57E25"/>
<path d="M278.047 146.922H292.905V153.96H278.047V146.922ZM278.691 165H269.583V132.8H294.837V139.838H278.691V165Z" fill="#F57E25"/>
<path d="M315.066 165.644C312.49 165.644 310.113 165.23 307.936 164.402C305.758 163.574 303.857 162.409 302.232 160.906C300.637 159.373 299.395 157.594 298.506 155.57C297.616 153.546 297.172 151.323 297.172 148.9C297.172 146.477 297.616 144.254 298.506 142.23C299.395 140.206 300.637 138.443 302.232 136.94C303.857 135.407 305.758 134.226 307.936 133.398C310.113 132.57 312.49 132.156 315.066 132.156C317.672 132.156 320.049 132.57 322.196 133.398C324.373 134.226 326.259 135.407 327.854 136.94C329.448 138.443 330.69 140.206 331.58 142.23C332.5 144.254 332.96 146.477 332.96 148.9C332.96 151.323 332.5 153.561 331.58 155.616C330.69 157.64 329.448 159.403 327.854 160.906C326.259 162.409 324.373 163.574 322.196 164.402C320.049 165.23 317.672 165.644 315.066 165.644ZM315.066 158.1C316.292 158.1 317.427 157.885 318.47 157.456C319.543 157.027 320.463 156.413 321.23 155.616C322.027 154.788 322.64 153.807 323.07 152.672C323.53 151.537 323.76 150.28 323.76 148.9C323.76 147.489 323.53 146.232 323.07 145.128C322.64 143.993 322.027 143.027 321.23 142.23C320.463 141.402 319.543 140.773 318.47 140.344C317.427 139.915 316.292 139.7 315.066 139.7C313.839 139.7 312.689 139.915 311.616 140.344C310.573 140.773 309.653 141.402 308.856 142.23C308.089 143.027 307.476 143.993 307.016 145.128C306.586 146.232 306.372 147.489 306.372 148.9C306.372 150.28 306.586 151.537 307.016 152.672C307.476 153.807 308.089 154.788 308.856 155.616C309.653 156.413 310.573 157.027 311.616 157.456C312.689 157.885 313.839 158.1 315.066 158.1Z" fill="#F57E25"/>
<path d="M352.588 165.644C347.835 165.644 344.124 164.341 341.456 161.734C338.788 159.127 337.454 155.432 337.454 150.648V132.8H346.562V150.372C346.562 153.132 347.099 155.11 348.172 156.306C349.276 157.502 350.779 158.1 352.68 158.1C354.581 158.1 356.069 157.502 357.142 156.306C358.215 155.11 358.752 153.132 358.752 150.372V132.8H367.722V150.648C367.722 155.432 366.388 159.127 363.72 161.734C361.052 164.341 357.341 165.644 352.588 165.644Z" fill="#F57E25"/>
<path d="M373.892 165V132.8H381.39L399.146 154.236H395.604V132.8H404.528V165H397.03L379.274 143.564H382.816V165H373.892Z" fill="#F57E25"/>
<path d="M410.953 165V132.8H426.179C429.736 132.8 432.864 133.459 435.563 134.778C438.261 136.097 440.362 137.952 441.865 140.344C443.398 142.736 444.165 145.588 444.165 148.9C444.165 152.181 443.398 155.033 441.865 157.456C440.362 159.848 438.261 161.703 435.563 163.022C432.864 164.341 429.736 165 426.179 165H410.953ZM420.061 157.732H425.811C427.651 157.732 429.245 157.395 430.595 156.72C431.975 156.015 433.048 155.003 433.815 153.684C434.581 152.335 434.965 150.74 434.965 148.9C434.965 147.029 434.581 145.435 433.815 144.116C433.048 142.797 431.975 141.801 430.595 141.126C429.245 140.421 427.651 140.068 425.811 140.068H420.061V157.732Z" fill="#F57E25"/>
<path d="M444.643 165L458.857 132.8H467.827L482.087 165H472.611L461.479 137.262H465.067L453.935 165H444.643ZM452.417 158.744L454.763 152.028H470.495L472.841 158.744H452.417Z" fill="#F57E25"/>
<path d="M489.906 165V140.022H480.016V132.8H508.858V140.022H499.014V165H489.906Z" fill="#F57E25"/>
<path d="M512.251 165V132.8H521.359V165H512.251Z" fill="#F57E25"/>
<path d="M544.077 165.644C541.501 165.644 539.125 165.23 536.947 164.402C534.77 163.574 532.869 162.409 531.243 160.906C529.649 159.373 528.407 157.594 527.517 155.57C526.628 153.546 526.183 151.323 526.183 148.9C526.183 146.477 526.628 144.254 527.517 142.23C528.407 140.206 529.649 138.443 531.243 136.94C532.869 135.407 534.77 134.226 536.947 133.398C539.125 132.57 541.501 132.156 544.077 132.156C546.684 132.156 549.061 132.57 551.207 133.398C553.385 134.226 555.271 135.407 556.865 136.94C558.46 138.443 559.702 140.206 560.591 142.23C561.511 144.254 561.971 146.477 561.971 148.9C561.971 151.323 561.511 153.561 560.591 155.616C559.702 157.64 558.46 159.403 556.865 160.906C555.271 162.409 553.385 163.574 551.207 164.402C549.061 165.23 546.684 165.644 544.077 165.644ZM544.077 158.1C545.304 158.1 546.439 157.885 547.481 157.456C548.555 157.027 549.475 156.413 550.241 155.616C551.039 154.788 551.652 153.807 552.081 152.672C552.541 151.537 552.771 150.28 552.771 148.9C552.771 147.489 552.541 146.232 552.081 145.128C551.652 143.993 551.039 143.027 550.241 142.23C549.475 141.402 548.555 140.773 547.481 140.344C546.439 139.915 545.304 139.7 544.077 139.7C542.851 139.7 541.701 139.915 540.627 140.344C539.585 140.773 538.665 141.402 537.867 142.23C537.101 143.027 536.487 143.993 536.027 145.128C535.598 146.232 535.383 147.489 535.383 148.9C535.383 150.28 535.598 151.537 536.027 152.672C536.487 153.807 537.101 154.788 537.867 155.616C538.665 156.413 539.585 157.027 540.627 157.456C541.701 157.885 542.851 158.1 544.077 158.1Z" fill="#F57E25"/>
<path d="M566.742 165V132.8H574.24L591.996 154.236H588.454V132.8H597.378V165H589.88L572.124 143.564H575.666V165H566.742Z" fill="#F57E25"/>
<path d="M1.22021 165V132.8H15.9402C18.8842 132.8 21.4142 133.275 23.5302 134.226C25.6769 135.177 27.3329 136.557 28.4982 138.366C29.6635 140.145 30.2462 142.261 30.2462 144.714C30.2462 147.137 29.6635 149.237 28.4982 151.016C27.3329 152.764 25.6769 154.113 23.5302 155.064C21.4142 155.984 18.8842 156.444 15.9402 156.444H6.28022L10.3282 152.626V165H1.22021ZM21.1382 165L13.1342 153.27H22.8402L30.8902 165H21.1382ZM10.3282 153.592L6.28022 149.406H15.3882C17.2895 149.406 18.7002 148.992 19.6202 148.164C20.5709 147.336 21.0462 146.186 21.0462 144.714C21.0462 143.211 20.5709 142.046 19.6202 141.218C18.7002 140.39 17.2895 139.976 15.3882 139.976H6.28022L10.3282 135.79V153.592Z" stroke="black" stroke-width="2" mask="url(#path-2-outside-1_984_9)"/>
<path d="M51.509 165.644C48.933 165.644 46.5563 165.23 44.379 164.402C42.2017 163.574 40.3003 162.409 38.675 160.906C37.0803 159.373 35.8383 157.594 34.949 155.57C34.0597 153.546 33.615 151.323 33.615 148.9C33.615 146.477 34.0597 144.254 34.949 142.23C35.8383 140.206 37.0803 138.443 38.675 136.94C40.3003 135.407 42.2017 134.226 44.379 133.398C46.5563 132.57 48.933 132.156 51.509 132.156C54.1157 132.156 56.4923 132.57 58.639 133.398C60.8163 134.226 62.7023 135.407 64.297 136.94C65.8917 138.443 67.1337 140.206 68.023 142.23C68.943 144.254 69.403 146.477 69.403 148.9C69.403 151.323 68.943 153.561 68.023 155.616C67.1337 157.64 65.8917 159.403 64.297 160.906C62.7023 162.409 60.8163 163.574 58.639 164.402C56.4923 165.23 54.1157 165.644 51.509 165.644ZM51.509 158.1C52.7357 158.1 53.8703 157.885 54.913 157.456C55.9863 157.027 56.9063 156.413 57.673 155.616C58.4703 154.788 59.0837 153.807 59.513 152.672C59.973 151.537 60.203 150.28 60.203 148.9C60.203 147.489 59.973 146.232 59.513 145.128C59.0837 143.993 58.4703 143.027 57.673 142.23C56.9063 141.402 55.9863 140.773 54.913 140.344C53.8703 139.915 52.7357 139.7 51.509 139.7C50.2823 139.7 49.1323 139.915 48.059 140.344C47.0163 140.773 46.0963 141.402 45.299 142.23C44.5323 143.027 43.919 143.993 43.459 145.128C43.0297 146.232 42.815 147.489 42.815 148.9C42.815 150.28 43.0297 151.537 43.459 152.672C43.919 153.807 44.5323 154.788 45.299 155.616C46.0963 156.413 47.0163 157.027 48.059 157.456C49.1323 157.885 50.2823 158.1 51.509 158.1Z" stroke="black" stroke-width="2" mask="url(#path-2-outside-1_984_9)"/>
<path d="M74.1733 165V132.8H90.6413C94.8733 132.8 98.032 133.582 100.117 135.146C102.203 136.679 103.245 138.703 103.245 141.218C103.245 142.874 102.801 144.331 101.911 145.588C101.053 146.815 99.826 147.796 98.2313 148.532C96.6673 149.237 94.7967 149.59 92.6193 149.59L93.5393 147.382C95.8087 147.382 97.7867 147.735 99.4733 148.44C101.16 149.115 102.463 150.111 103.383 151.43C104.334 152.718 104.809 154.297 104.809 156.168C104.809 158.959 103.675 161.136 101.405 162.7C99.1667 164.233 95.8853 165 91.5613 165H74.1733ZM83.1893 158.422H90.8253C92.3893 158.422 93.57 158.161 94.3673 157.64C95.1953 157.088 95.6093 156.26 95.6093 155.156C95.6093 154.052 95.1953 153.239 94.3673 152.718C93.57 152.166 92.3893 151.89 90.8253 151.89H82.5453V145.588H89.4453C90.9787 145.588 92.1287 145.327 92.8953 144.806C93.662 144.285 94.0453 143.503 94.0453 142.46C94.0453 141.417 93.662 140.651 92.8953 140.16C92.1287 139.639 90.9787 139.378 89.4453 139.378H83.1893V158.422Z" stroke="black" stroke-width="2" mask="url(#path-2-outside-1_984_9)"/>
<path d="M125.765 165.644C123.189 165.644 120.812 165.23 118.635 164.402C116.458 163.574 114.556 162.409 112.931 160.906C111.336 159.373 110.094 157.594 109.205 155.57C108.316 153.546 107.871 151.323 107.871 148.9C107.871 146.477 108.316 144.254 109.205 142.23C110.094 140.206 111.336 138.443 112.931 136.94C114.556 135.407 116.458 134.226 118.635 133.398C120.812 132.57 123.189 132.156 125.765 132.156C128.372 132.156 130.748 132.57 132.895 133.398C135.072 134.226 136.958 135.407 138.553 136.94C140.148 138.443 141.39 140.206 142.279 142.23C143.199 144.254 143.659 146.477 143.659 148.9C143.659 151.323 143.199 153.561 142.279 155.616C141.39 157.64 140.148 159.403 138.553 160.906C136.958 162.409 135.072 163.574 132.895 164.402C130.748 165.23 128.372 165.644 125.765 165.644ZM125.765 158.1C126.992 158.1 128.126 157.885 129.169 157.456C130.242 157.027 131.162 156.413 131.929 155.616C132.726 154.788 133.34 153.807 133.769 152.672C134.229 151.537 134.459 150.28 134.459 148.9C134.459 147.489 134.229 146.232 133.769 145.128C133.34 143.993 132.726 143.027 131.929 142.23C131.162 141.402 130.242 140.773 129.169 140.344C128.126 139.915 126.992 139.7 125.765 139.7C124.538 139.7 123.388 139.915 122.315 140.344C121.272 140.773 120.352 141.402 119.555 142.23C118.788 143.027 118.175 143.993 117.715 145.128C117.286 146.232 117.071 147.489 117.071 148.9C117.071 150.28 117.286 151.537 117.715 152.672C118.175 153.807 118.788 154.788 119.555 155.616C120.352 156.413 121.272 157.027 122.315 157.456C123.388 157.885 124.538 158.1 125.765 158.1Z" stroke="black" stroke-width="2" mask="url(#path-2-outside-1_984_9)"/>
<path d="M154.834 165V140.022H144.944V132.8H173.786V140.022H163.942V165H154.834Z" stroke="black" stroke-width="2" mask="url(#path-2-outside-1_984_9)"/>
<path d="M177.179 165V132.8H186.287V165H177.179Z" stroke="black" stroke-width="2" mask="url(#path-2-outside-1_984_9)"/>
<path d="M208.821 165.644C206.276 165.644 203.914 165.245 201.737 164.448C199.59 163.62 197.72 162.455 196.125 160.952C194.561 159.449 193.334 157.686 192.445 155.662C191.556 153.607 191.111 151.353 191.111 148.9C191.111 146.447 191.556 144.208 192.445 142.184C193.334 140.129 194.561 138.351 196.125 136.848C197.72 135.345 199.59 134.195 201.737 133.398C203.914 132.57 206.276 132.156 208.821 132.156C211.796 132.156 214.448 132.677 216.779 133.72C219.14 134.763 221.103 136.265 222.667 138.228L216.871 143.472C215.828 142.245 214.678 141.31 213.421 140.666C212.194 140.022 210.814 139.7 209.281 139.7C207.962 139.7 206.751 139.915 205.647 140.344C204.543 140.773 203.592 141.402 202.795 142.23C202.028 143.027 201.415 143.993 200.955 145.128C200.526 146.263 200.311 147.52 200.311 148.9C200.311 150.28 200.526 151.537 200.955 152.672C201.415 153.807 202.028 154.788 202.795 155.616C203.592 156.413 204.543 157.027 205.647 157.456C206.751 157.885 207.962 158.1 209.281 158.1C210.814 158.1 212.194 157.778 213.421 157.134C214.678 156.49 215.828 155.555 216.871 154.328L222.667 159.572C221.103 161.504 219.14 163.007 216.779 164.08C214.448 165.123 211.796 165.644 208.821 165.644Z" stroke="black" stroke-width="2" mask="url(#path-2-outside-1_984_9)"/>
<path d="M237.73 165.644C235.092 165.644 232.547 165.322 230.094 164.678C227.671 164.003 225.693 163.145 224.16 162.102L227.15 155.386C228.591 156.306 230.247 157.073 232.118 157.686C234.019 158.269 235.905 158.56 237.776 158.56C239.033 158.56 240.045 158.453 240.812 158.238C241.578 157.993 242.13 157.686 242.468 157.318C242.836 156.919 243.02 156.459 243.02 155.938C243.02 155.202 242.682 154.619 242.008 154.19C241.333 153.761 240.459 153.408 239.386 153.132C238.312 152.856 237.116 152.58 235.798 152.304C234.51 152.028 233.206 151.675 231.888 151.246C230.6 150.817 229.419 150.265 228.346 149.59C227.272 148.885 226.398 147.98 225.724 146.876C225.049 145.741 224.712 144.315 224.712 142.598C224.712 140.666 225.233 138.918 226.276 137.354C227.349 135.79 228.944 134.533 231.06 133.582C233.176 132.631 235.813 132.156 238.972 132.156C241.088 132.156 243.158 132.401 245.182 132.892C247.236 133.352 249.061 134.042 250.656 134.962L247.85 141.724C246.316 140.896 244.798 140.283 243.296 139.884C241.793 139.455 240.336 139.24 238.926 139.24C237.668 139.24 236.656 139.378 235.89 139.654C235.123 139.899 234.571 140.237 234.234 140.666C233.896 141.095 233.728 141.586 233.728 142.138C233.728 142.843 234.05 143.411 234.694 143.84C235.368 144.239 236.242 144.576 237.316 144.852C238.42 145.097 239.616 145.358 240.904 145.634C242.222 145.91 243.526 146.263 244.814 146.692C246.132 147.091 247.328 147.643 248.402 148.348C249.475 149.023 250.334 149.927 250.978 151.062C251.652 152.166 251.99 153.561 251.99 155.248C251.99 157.119 251.453 158.851 250.38 160.446C249.337 162.01 247.758 163.267 245.642 164.218C243.556 165.169 240.919 165.644 237.73 165.644Z" stroke="black" stroke-width="2" mask="url(#path-2-outside-1_984_9)"/>
<path d="M278.047 146.922H292.905V153.96H278.047V146.922ZM278.691 165H269.583V132.8H294.837V139.838H278.691V165Z" stroke="black" stroke-width="2" mask="url(#path-2-outside-1_984_9)"/>
<path d="M315.066 165.644C312.49 165.644 310.113 165.23 307.936 164.402C305.758 163.574 303.857 162.409 302.232 160.906C300.637 159.373 299.395 157.594 298.506 155.57C297.616 153.546 297.172 151.323 297.172 148.9C297.172 146.477 297.616 144.254 298.506 142.23C299.395 140.206 300.637 138.443 302.232 136.94C303.857 135.407 305.758 134.226 307.936 133.398C310.113 132.57 312.49 132.156 315.066 132.156C317.672 132.156 320.049 132.57 322.196 133.398C324.373 134.226 326.259 135.407 327.854 136.94C329.448 138.443 330.69 140.206 331.58 142.23C332.5 144.254 332.96 146.477 332.96 148.9C332.96 151.323 332.5 153.561 331.58 155.616C330.69 157.64 329.448 159.403 327.854 160.906C326.259 162.409 324.373 163.574 322.196 164.402C320.049 165.23 317.672 165.644 315.066 165.644ZM315.066 158.1C316.292 158.1 317.427 157.885 318.47 157.456C319.543 157.027 320.463 156.413 321.23 155.616C322.027 154.788 322.64 153.807 323.07 152.672C323.53 151.537 323.76 150.28 323.76 148.9C323.76 147.489 323.53 146.232 323.07 145.128C322.64 143.993 322.027 143.027 321.23 142.23C320.463 141.402 319.543 140.773 318.47 140.344C317.427 139.915 316.292 139.7 315.066 139.7C313.839 139.7 312.689 139.915 311.616 140.344C310.573 140.773 309.653 141.402 308.856 142.23C308.089 143.027 307.476 143.993 307.016 145.128C306.586 146.232 306.372 147.489 306.372 148.9C306.372 150.28 306.586 151.537 307.016 152.672C307.476 153.807 308.089 154.788 308.856 155.616C309.653 156.413 310.573 157.027 311.616 157.456C312.689 157.885 313.839 158.1 315.066 158.1Z" stroke="black" stroke-width="2" mask="url(#path-2-outside-1_984_9)"/>
<path d="M352.588 165.644C347.835 165.644 344.124 164.341 341.456 161.734C338.788 159.127 337.454 155.432 337.454 150.648V132.8H346.562V150.372C346.562 153.132 347.099 155.11 348.172 156.306C349.276 157.502 350.779 158.1 352.68 158.1C354.581 158.1 356.069 157.502 357.142 156.306C358.215 155.11 358.752 153.132 358.752 150.372V132.8H367.722V150.648C367.722 155.432 366.388 159.127 363.72 161.734C361.052 164.341 357.341 165.644 352.588 165.644Z" stroke="black" stroke-width="2" mask="url(#path-2-outside-1_984_9)"/>
<path d="M373.892 165V132.8H381.39L399.146 154.236H395.604V132.8H404.528V165H397.03L379.274 143.564H382.816V165H373.892Z" stroke="black" stroke-width="2" mask="url(#path-2-outside-1_984_9)"/>
<path d="M410.953 165V132.8H426.179C429.736 132.8 432.864 133.459 435.563 134.778C438.261 136.097 440.362 137.952 441.865 140.344C443.398 142.736 444.165 145.588 444.165 148.9C444.165 152.181 443.398 155.033 441.865 157.456C440.362 159.848 438.261 161.703 435.563 163.022C432.864 164.341 429.736 165 426.179 165H410.953ZM420.061 157.732H425.811C427.651 157.732 429.245 157.395 430.595 156.72C431.975 156.015 433.048 155.003 433.815 153.684C434.581 152.335 434.965 150.74 434.965 148.9C434.965 147.029 434.581 145.435 433.815 144.116C433.048 142.797 431.975 141.801 430.595 141.126C429.245 140.421 427.651 140.068 425.811 140.068H420.061V157.732Z" stroke="black" stroke-width="2" mask="url(#path-2-outside-1_984_9)"/>
<path d="M444.643 165L458.857 132.8H467.827L482.087 165H472.611L461.479 137.262H465.067L453.935 165H444.643ZM452.417 158.744L454.763 152.028H470.495L472.841 158.744H452.417Z" stroke="black" stroke-width="2" mask="url(#path-2-outside-1_984_9)"/>
<path d="M489.906 165V140.022H480.016V132.8H508.858V140.022H499.014V165H489.906Z" stroke="black" stroke-width="2" mask="url(#path-2-outside-1_984_9)"/>
<path d="M512.251 165V132.8H521.359V165H512.251Z" stroke="black" stroke-width="2" mask="url(#path-2-outside-1_984_9)"/>
<path d="M544.077 165.644C541.501 165.644 539.125 165.23 536.947 164.402C534.77 163.574 532.869 162.409 531.243 160.906C529.649 159.373 528.407 157.594 527.517 155.57C526.628 153.546 526.183 151.323 526.183 148.9C526.183 146.477 526.628 144.254 527.517 142.23C528.407 140.206 529.649 138.443 531.243 136.94C532.869 135.407 534.77 134.226 536.947 133.398C539.125 132.57 541.501 132.156 544.077 132.156C546.684 132.156 549.061 132.57 551.207 133.398C553.385 134.226 555.271 135.407 556.865 136.94C558.46 138.443 559.702 140.206 560.591 142.23C561.511 144.254 561.971 146.477 561.971 148.9C561.971 151.323 561.511 153.561 560.591 155.616C559.702 157.64 558.46 159.403 556.865 160.906C555.271 162.409 553.385 163.574 551.207 164.402C549.061 165.23 546.684 165.644 544.077 165.644ZM544.077 158.1C545.304 158.1 546.439 157.885 547.481 157.456C548.555 157.027 549.475 156.413 550.241 155.616C551.039 154.788 551.652 153.807 552.081 152.672C552.541 151.537 552.771 150.28 552.771 148.9C552.771 147.489 552.541 146.232 552.081 145.128C551.652 143.993 551.039 143.027 550.241 142.23C549.475 141.402 548.555 140.773 547.481 140.344C546.439 139.915 545.304 139.7 544.077 139.7C542.851 139.7 541.701 139.915 540.627 140.344C539.585 140.773 538.665 141.402 537.867 142.23C537.101 143.027 536.487 143.993 536.027 145.128C535.598 146.232 535.383 147.489 535.383 148.9C535.383 150.28 535.598 151.537 536.027 152.672C536.487 153.807 537.101 154.788 537.867 155.616C538.665 156.413 539.585 157.027 540.627 157.456C541.701 157.885 542.851 158.1 544.077 158.1Z" stroke="black" stroke-width="2" mask="url(#path-2-outside-1_984_9)"/>
<path d="M566.742 165V132.8H574.24L591.996 154.236H588.454V132.8H597.378V165H589.88L572.124 143.564H575.666V165H566.742Z" stroke="black" stroke-width="2" mask="url(#path-2-outside-1_984_9)"/>
</svg>
