<svg xmlns="http://www.w3.org/2000/svg" viewBox="0 0 96 96" fill="#2dc26e" aria-hidden="true">
  <path d="m67.554 35.344c-4.769-19.712-28.468-30.198-46.822-19.484-1.508 0.88-3.71 2.352-8.072 7.018 3.64-4.594 6.328-6.429 7.775-7.537 6.919-5.296 15.571-8.442 24.958-8.442 11.35 0 21.625 4.6 29.063 12.038 7.437 7.438 12.038 17.713 12.038 29.063 0 7.999-2.177 15.534-6.239 21.78-1.274 1.96-4.026 4.055-8.043 4.055-5.46 0-9.887-4.398-9.887-9.824 0-2.556 0.982-4.884 2.592-6.631 4.986-7.696 3.804-17.208 2.637-22.036z"/>
  <path d="m35.551 24.809c-21.611-6.656-28.86 11.165-29.835 15.823 0.55-4.334 1.541-6.54 2.03-7.803 2.337-6.042 6.566-11.376 12.437-14.981 7.099-4.359 15.255-5.365 22.702-3.467s14.186 6.699 18.452 13.953c1.988 3.381 3.682 8.127 3.975 10.571 0.118 0.986 0.23 1.635 0.23 2.451 0 5.041-3.896 9.127-8.702 9.127s-8.702-4.086-8.702-9.127c-0.074-0.222-0.106-0.304-0.088-0.394-1.226-7.507-8.032-14.777-12.499-16.153z"/>
  <path d="m23.252 41.317c-9.604-7.23-16.367 2.075-16.455 5.756-0.065-2.788 0.217-4.51 0.405-5.378 0.93-4.29 3.209-8.306 6.778-11.339 4.316-3.668 9.698-5.168 14.92-4.725 5.946 0.505 10.357 4.431 10.357 9.509s-4.116 9.194-9.194 9.194c-2.7 1e-3 -5.129-1.163-6.811-3.017z"/>
</svg>
