<svg width="39" height="39" viewBox="0 0 39 39" fill="none" xmlns="http://www.w3.org/2000/svg">
<rect width="39" height="39" rx="8" fill="#CB1D2D"/>
<path d="M26.954 16.0443H11.305C10.3511 16.0443 9.57812 15.2713 9.57812 14.3175C9.57812 13.3637 10.3511 12.5907 11.305 12.5907H26.954C27.9078 12.5907 28.6808 13.3637 28.6808 14.3175C28.6808 15.2713 27.9078 16.0443 26.954 16.0443Z" fill="white"/>
<path d="M27.5332 28.6993H10.7268C9.773 28.6993 9 27.9263 9 26.9725C9 26.0186 9.773 25.2456 10.7268 25.2456H27.5332C28.487 25.2456 29.26 26.0186 29.26 26.9725C29.26 27.9263 28.487 28.6993 27.5332 28.6993V28.6993Z" fill="white"/>
<path d="M20.8497 13.5426L19.0469 9.95203L19.045 9.95015C18.6161 9.09928 17.58 8.75642 16.7285 9.18405C15.8764 9.61231 15.5323 10.6497 15.9605 11.5018L17.7634 15.0924L17.7652 15.0943C18.1941 15.9451 19.2302 16.288 20.0817 15.8604C20.9339 15.4327 21.278 14.3947 20.8497 13.5426V13.5426Z" fill="white"/>
<path d="M16.2663 23.5709C15.6817 23.5709 15.1109 23.2732 14.7863 22.7357L13.3401 20.3382C12.8478 19.5219 13.1103 18.4606 13.9266 17.9677C14.7417 17.4754 15.8041 17.7373 16.2971 18.5542L17.7432 20.9517C18.2356 21.768 17.9731 22.8293 17.1567 23.3222C16.8779 23.4905 16.5702 23.5709 16.2663 23.5709Z" fill="white"/>
<path d="M20.0289 28.7C19.752 28.7 19.4713 28.6334 19.2107 28.4927C18.3712 28.04 18.0584 26.9926 18.5112 26.153L22.5715 18.6265C23.0236 17.7869 24.0716 17.4736 24.9106 17.927C25.7501 18.3797 26.0629 19.4271 25.6101 20.2667L21.5498 27.7932C21.2384 28.3716 20.6431 28.7006 20.0289 28.7006V28.7Z" fill="white"/>
</svg>
