<?xml version="1.0" encoding="utf-8"?>
<!-- Generator: Adobe Illustrator 27.4.0, SVG Export Plug-In . SVG Version: 6.00 Build 0)  -->
<svg version="1.1" id="Layer_1" xmlns:sketch="http://www.bohemiancoding.com/sketch/ns"
	 xmlns="http://www.w3.org/2000/svg" xmlns:xlink="http://www.w3.org/1999/xlink" x="0px" y="0px" viewBox="0 0 284 37"
	 style="enable-background:new 0 0 284 37;" xml:space="preserve">
<style type="text/css">
	.st0{fill-rule:evenodd;clip-rule:evenodd;}
</style>
<g id="Page-1" sketch:type="MSPage">
	<g id="Imported-Layers-Copy-6" sketch:type="MSLayerGroup">
		<path id="Fill-1" sketch:type="MSShapeGroup" class="st0" d="M24,15.1c3.2,1.6,5.9,5.6,5.9,10.2c0,8.5-7.7,11.1-14.9,11.1
			c-2.7,0-5.6-1-7.9-2.3l-5.4,2.3H0.5L0.2,24.1h1.6c2.5,5.9,7.3,11,14.1,11c2.1,0,4.8-0.8,4.8-3.3c0-2.9-3.2-4.2-5.5-5.2l-3.8-1.7
			C4.2,21.7,0.5,17.3,0.5,11.9c0-7.2,5.2-11.4,12.1-11.4c2.8,0,5.5,0.8,7.9,2l5.4-2h1.1l0.4,11.4h-1.3c-2.5-5.4-7-10-13.3-10
			c-1.9,0-4.2,1-4.2,3.2c0,2.7,3.3,3.8,5.3,4.8L24,15.1"/>
		<path id="Fill-2" sketch:type="MSShapeGroup" class="st0" d="M46.3,3.5v8.7h5.6v1.2h-5.6v17.5c0,1.1-0.1,2.5,1.4,2.5
			c2.5,0,3.5-4.1,3.8-6h1.1c-0.5,6.9-4.5,9-10.9,9c-6,0-7.5-1.7-7.5-8.1V13.4h-2.9v-1.2c6.1,0,11-3.7,14.1-8.7H46.3"/>
		<path id="Fill-3" sketch:type="MSShapeGroup" class="st0" d="M71.1,15.9c0-2.2-0.5-3-2.8-3c-0.9,0-2,0.1-2,0.5
			c0,0.6,1.8,1.2,1.8,3.5c0,3.4-4,4-6.6,4c-2.4,0-5.5-1-5.5-3.9c0-2.2,1.2-5.4,12.3-5.4c2.5,0,6.5,0.3,8.9,0.9
			c3.3,0.7,5.4,2.2,5.4,5.9v13.3c0,0.5,0.2,1.2,0.8,1.2c0.9,0,1.4-0.7,2-1.3v1.7c-1.9,2.2-5,3.1-7.7,3.1c-2.8,0-5.1-0.6-6.3-3.4
			c-2.5,2.7-6.1,3.4-9.6,3.4c-3.8,0-7.7-1.6-7.7-6c0-3.3,1.7-6.6,8.7-7.6c2.2-0.3,3.6-0.4,5.8-0.4h2.4V15.9L71.1,15.9z M71.1,23.5
			h-1.8c-3.1,0-2.7,3.5-2.7,5.8c0,1.4-0.1,4.1,1.9,4.1c2.7,0,2.6-3.1,2.6-5V23.5L71.1,23.5z"/>
		<path id="Fill-4" sketch:type="MSShapeGroup" class="st0" d="M100.4,3.5v8.7h5.6v1.2h-5.6v17.5c0,1.1-0.1,2.5,1.4,2.5
			c2.5,0,3.5-4.1,3.8-6h1.1c-0.5,6.9-4.5,9-10.9,9c-6,0-7.5-1.7-7.5-8.1V13.4h-2.9v-1.2c6.1,0,11-3.7,14.1-8.7H100.4"/>
		<path id="Fill-5" sketch:type="MSShapeGroup" class="st0" d="M120.2,25.5v2.1c0,4,0.7,7.1,5.4,7.1c3.7,0,7-2.3,9.1-5.2l0.9,0.6
			c-3,4.3-7.1,6.3-12.5,6.3c-2.9,0-5.5-0.2-8.1-1.3c-4.2-1.8-7.2-5.3-7.2-11.1c0-7.9,6.5-12.4,14-12.4c8.6,0,14.5,5.2,14.4,14H120.2
			L120.2,25.5z M124.4,24.3v-6.8c0-1.7,0.4-4.8-2.2-4.8c-2.3,0-2,3.2-2,4.8v6.8H124.4L124.4,24.3z"/>
		<path id="Fill-6" sketch:type="MSShapeGroup" class="st0" d="M148.8,35.6v-1.3h1.2c2.1,0,2.8-2.4,2.8-4.7V5.2
			c-0.9-1.2-1.7-2.7-3.3-2.7h-0.7V1.3h18.8l13.4,18.4V5.1c0-1.4-1.5-2.5-3.4-2.5h-1V1.3H187v1.3h-1.5c-2.6,0-2.5,1.9-2.5,6v27h-8.3
			l-20-27.6v21.5c0,2.3,0.5,4.7,2.9,4.7h1.6v1.3H148.8"/>
		<path id="Fill-7" sketch:type="MSShapeGroup" class="st0" d="M198.5,25.5v2.1c0,4,0.7,7.1,5.4,7.1c3.7,0,7-2.3,9.1-5.2l0.9,0.6
			c-3,4.3-7.1,6.3-12.5,6.3c-2.9,0-5.5-0.2-8.1-1.3c-4.2-1.8-7.2-5.3-7.2-11.1c0-7.9,6.5-12.4,14-12.4c8.6,0,14.5,5.2,14.4,14H198.5
			L198.5,25.5z M202.8,24.3v-6.8c0-1.7,0.4-4.8-2.2-4.8c-2.3,0-2,3.2-2,4.8v6.8H202.8L202.8,24.3z"/>
		<path id="Fill-8" sketch:type="MSShapeGroup" class="st0" d="M212.9,12.2h16.3v1.2h-1.6l6.2,15.7l2.2-5.8l-3.7-9.9h-2.2v-1.2h16.9
			v1.2h-2.8l5.9,15.3l4.3-11.2c1.3-3.4,0.1-4.1-0.7-4.1h-0.9v-1.2h7.6v1.2c-2.9,0-3.8,2.5-4.6,4.8l-6.7,17.5H241l-4.1-10.5l-4,10.5
			h-8.7l-8.8-22.3h-2.5V12.2"/>
		<path id="Fill-9" sketch:type="MSShapeGroup" class="st0" d="M261.8,27.3c1.7,4.2,6.9,7.9,11.5,7.9c1.5,0,3.4-0.2,3.4-2.1
			c0-2.4-4-3.1-7.9-4.5c-4-1.4-7.9-3.6-7.9-9c0-5.1,4.5-8,9.2-8c2.2,0,3.8,0.4,6.9,1.5l3.9-1.5h1.1l0.3,8.5h-1.1
			c-1.7-3.8-5.7-7.3-10-7.3c-1.6,0-2.9,0.5-2.9,2.3c0,1.8,3,2.6,4.3,3l5.3,1.9c3.4,1.2,5.6,4.3,5.6,8c0,2.6-1,5.2-3.2,6.7
			c-2.2,1.5-4.8,1.7-7.3,1.7c-2.1,0-4.2-1-6.2-1.6l-4.1,1.6h-1.3l-0.3-9.1H261.8"/>
		<path id="Fill-10" sketch:type="MSShapeGroup" class="st0" d="M51.4,2.8c-1,0.1-1.4,1.1-1.6,2h-0.3l0-2.2h6.3l0,2.2h-0.3
			c-0.2-0.8-0.6-1.9-1.6-2v5.5h0.8v0.2h-4.2V8.3h0.8V2.8"/>
		<path id="Fill-11" sketch:type="MSShapeGroup" class="st0" d="M59.1,8.3h0.3v0.2h-2.8V8.3H57V2.8h-0.5V2.6c0.8,0,1.7-0.1,2.5-0.1
			v2.7c0.3-0.5,0.9-0.8,1.5-0.8c1,0,1.4,0.6,1.4,1.5v2.4h0.5v0.2h-2.8V8.3H60V5.9C60,5.6,60,5,59.6,5c-0.2,0-0.5,0.1-0.5,1.5V8.3"/>
		<path id="Fill-12" sketch:type="MSShapeGroup" class="st0" d="M64.9,6.8v0.4c0,0.7,0.1,1.2,0.9,1.2c0.6,0,1.2-0.4,1.6-0.9l0.2,0.1
			c-0.5,0.7-1.2,1.1-2.2,1.1c-0.5,0-0.9,0-1.4-0.2c-0.7-0.3-1.3-0.9-1.3-1.9c0-1.4,1.1-2.2,2.4-2.2c1.5,0,2.5,0.9,2.5,2.4H64.9
			L64.9,6.8z M65.6,6.6V5.4c0-0.3,0.1-0.8-0.4-0.8c-0.4,0-0.4,0.6-0.4,0.8v1.2H65.6L65.6,6.6z"/>
	</g>
</g>
</svg>
